<svg width="416" height="230" viewBox="0 0 416 230" fill="none" xmlns="http://www.w3.org/2000/svg">
<g filter="url(#filter0_d_285_1787)">
<path d="M104.897 161.727C104.97 161.727 90.9123 161.727 68.6467 161.683C55.0609 161.656 49.126 160.368 44.5328 159.391C39.9511 158.418 37.1378 154.6 35.0418 150.718C33.8991 148.602 34.0449 145.572 34.2448 142.761C34.5776 138.08 40.451 131.105 45.6155 123.492C49.4868 117.784 55.2796 112.652 58.8885 108.673C61.857 105.4 64.0378 101.21 67.376 96.7546C70.445 92.6587 74.8521 89.1908 78.1868 86.0766C82.0952 82.4266 85.2513 75.9509 87.8237 72.442C90.8142 68.3629 97.2361 65.3643 102.872 62.411C107.354 60.062 117.646 59.8123 124.472 61.0802C128.629 61.8526 132.472 66.8696 136.235 70.165C139.526 73.0475 142.347 76.7657 145.56 80.4819C148.498 83.8813 152.259 89.1537 156.832 96.8976C160.439 103.007 164.718 108.769 167.767 112.833C172.281 118.852 173.529 124.229 174.246 130.934C175.263 140.455 174.03 147.585 172.804 149.248C170.093 152.929 165.729 154.437 161.944 157.242C158.608 159.715 154.518 161.875 150.193 164.065C146.438 165.967 142.084 166.802 137.476 167.883C133.169 168.894 128.488 169.349 122.489 170.106C116.252 170.892 111.058 171.118 99.8259 171.259C89.6788 171.387 70.5008 171.43 60.109 171.385C45.3343 171.322 38.797 168.638 33.5099 167.49C29.209 166.556 25.0397 165.827 20.9369 163.893C19.0476 163.003 18.8418 160.155 18.3401 157.307C16.5459 147.119 22.1907 138.852 27.2938 131.444C31.3413 125.568 35.8819 118.515 40.2687 112.889C45.5093 106.168 49.3695 100.016 55.7088 92.633C61.2537 86.1755 65.9725 81.1912 76.8069 73.1781C81.7724 69.5056 85.9242 67.2861 90.5434 65.6595C94.8274 64.1509 99.0024 64.0915 103.061 63.4806C104.09 63.341 105.1 63.1559 107.073 63.0592C109.046 62.9625 111.95 62.9599 116.346 64.1741" stroke="#741A43" stroke-width="120.648" stroke-linecap="round"/>
<path d="M46.7479 74.981C46.7051 74.981 46.173 75.2234 45.3965 75.8848C45.0259 76.2005 45.123 76.8923 45.3698 77.0715C45.9906 77.5225 47.1336 76.3767 47.9748 75.5109C48.3888 75.0849 48.4825 74.4097 48.3126 73.9596C47.9527 73.006 45.9684 72.9508 43.993 73.1147C42.572 73.2326 41.6829 74.3418 40.9845 75.2709C40.2595 76.2352 40.5688 78.1365 40.8292 79.8466C41.2087 82.3386 45.4453 81.5311 48.5044 81.3681C50.8182 81.2447 50.0761 77.5247 50.0679 76.3444C49.9657 75.773 49.6643 75.2578 49.2333 74.9299C48.8024 74.6019 48.2509 74.4769 47.2358 74.1218" stroke="white" stroke-width="30.162" stroke-linecap="round"/>
<path d="M159.844 73.8464C159.801 73.852 159.301 74.1627 158.607 74.9214C158.275 75.2835 158.451 75.9572 158.717 76.1026C159.385 76.4683 160.387 75.1806 161.122 74.2106C161.484 73.7332 161.499 73.0508 161.279 72.6265C160.812 71.7277 158.836 71.9344 156.895 72.3574C155.498 72.6616 154.744 73.8796 154.158 74.8936C153.549 75.9462 154.075 77.7923 154.53 79.4549C155.194 81.8779 159.305 80.5183 162.322 79.9533C164.604 79.5259 163.439 75.932 163.295 74.7617C163.128 74.2082 162.77 73.7366 162.304 73.468C161.839 73.1994 161.277 73.148 160.229 72.9294" stroke="white" stroke-width="30.162" stroke-linecap="round"/>
<path d="M66.365 77.3736C66.3387 77.3736 65.8377 77.3416 64.9758 77.4585C64.5796 77.5122 64.3548 77.9377 64.2276 78.3579C64.1003 78.778 64.0999 79.2779 64.1912 79.6889C64.2824 80.0999 64.4654 80.4069 64.7198 80.626C64.9742 80.8452 65.2945 80.9672 65.5654 80.8538C66.8595 80.3123 66.8781 78.6099 66.9543 77.8203C66.9907 77.4422 66.7602 77.1068 66.4924 76.8625C65.9375 76.3563 65.158 76.1366 64.5291 75.9568C64.2258 75.967 63.9547 76.1834 63.7659 76.4744C63.577 76.7654 63.4788 77.1245 63.1621 78.0378" stroke="black" stroke-width="15.081" stroke-linecap="round"/>
<path d="M177.636 72.9548C177.61 72.9582 177.109 72.9926 176.267 73.2222C175.88 73.3277 175.706 73.7796 175.628 74.2133C175.55 74.647 175.607 75.1432 175.745 75.539C175.883 75.9348 176.1 76.2154 176.378 76.3993C176.655 76.5833 176.987 76.6622 177.243 76.5139C178.465 75.806 178.287 74.1141 178.272 73.3205C178.264 72.9404 177.997 72.6379 177.703 72.4309C177.094 72.0017 176.295 71.8864 175.651 71.7908C175.351 71.8409 175.107 72.0914 174.953 72.4051C174.799 72.7187 174.743 73.088 174.534 74.0361" stroke="black" stroke-width="15.081" stroke-linecap="round"/>
<path d="M64.8682 74.5691H64.9067" stroke="black" stroke-width="15.081" stroke-linecap="round"/>
<path d="M63.4062 72.5385C63.4062 72.5657 63.6515 72.3038 63.8792 71.9907C63.9031 71.958 63.5738 72.164 63.4982 72.438C63.4225 72.712 63.5677 73.0434 63.7053 73.0404C63.8429 73.0375 63.9683 72.6901 63.6948 72.1772" stroke="white" stroke-width="3.0162" stroke-linecap="round"/>
<path d="M174.357 68.3634C174.361 68.3904 174.574 68.0981 174.764 67.7575C174.784 67.7218 174.481 67.9696 174.437 68.2515C174.394 68.5334 174.576 68.8431 174.712 68.8221C174.848 68.801 174.933 68.4398 174.602 67.9669" stroke="white" stroke-width="3.0162" stroke-linecap="round"/>
<path d="M97.9919 121.925C98.191 122.052 100.531 124.019 102.762 125.819C104.242 127.012 106.994 127.56 109.546 128.027C114.516 128.936 115.707 127.868 116.714 127.447C117.943 126.933 119.16 125.975 120.078 125.109C121.79 123.54 122.63 122.553 123.385 121.438C123.555 121.173 123.685 120.95 124.033 120.289" stroke="white" stroke-width="6.0324" stroke-linecap="round"/>
<path d="M31.1522 115.653C31.797 115.653 33.9104 115.862 37.0137 117.239C39.1255 118.175 41.076 118.253 48.2646 118.115C49.6917 118.088 49.7694 117.381 49.8011 116.868C49.8329 116.355 49.7999 115.848 49.5641 115.429C48.1192 112.859 41.2452 112.918 37.3401 112.454C33.4469 111.991 30.2638 113.026 29.1975 114.161C28.7253 114.664 28.5357 115.159 28.4519 115.666C28.3681 116.173 28.4323 116.711 28.8476 117.1C30.7893 118.917 33.0269 118.85 35.0598 119.805C36.8127 120.629 38.7615 120.826 41.1084 120.999C43.1622 121.306 44.5757 121.5 45.595 121.541C46.1562 121.562 46.8064 121.584 47.9866 120.466" stroke="#C4A1B9" stroke-width="9.0486" stroke-linecap="round"/>
<path d="M167.384 113.849C168.002 113.65 170.081 113.197 173.424 113.555C175.699 113.799 177.587 113.271 184.432 110.917C185.791 110.449 185.674 109.749 185.566 109.248C185.458 108.747 185.289 108.272 184.95 107.944C182.873 105.93 176.308 108.111 172.444 108.874C168.592 109.634 165.824 111.608 165.11 113.025C164.794 113.652 164.746 114.185 164.803 114.696C164.859 115.207 165.066 115.703 165.569 115.947C167.919 117.086 170.043 116.33 172.247 116.616C174.147 116.863 176.066 116.45 178.36 115.89C180.409 115.548 181.815 115.297 182.801 115.022C183.344 114.869 183.973 114.688 184.801 113.253" stroke="#C4A1B9" stroke-width="9.0486" stroke-linecap="round"/>
</g>
<path d="M304.719 188.187C304.799 188.187 289.374 188.187 264.943 188.156C250.035 188.137 243.523 187.237 238.483 186.554C233.456 185.874 230.369 183.206 228.069 180.493C226.815 179.014 226.975 176.896 227.194 174.931C227.559 171.66 234.004 166.785 239.671 161.464C243.919 157.476 250.275 153.889 254.235 151.108C257.493 148.82 259.885 145.892 263.548 142.778C266.916 139.916 271.752 137.492 275.411 135.315C279.7 132.764 283.163 128.239 285.985 125.786C289.267 122.935 296.313 120.84 302.497 118.776C307.416 117.134 318.709 116.959 326.198 117.846C330.76 118.385 334.977 121.892 339.106 124.195C342.718 126.209 345.813 128.808 349.338 131.405C352.562 133.781 356.689 137.466 361.707 142.878C365.665 147.148 370.36 151.175 373.705 154.015C378.659 158.222 380.028 161.979 380.814 166.666C381.931 173.32 380.578 178.303 379.233 179.466C376.257 182.038 371.469 183.092 367.317 185.053C363.656 186.781 359.168 188.29 354.422 189.821C350.301 191.15 345.524 191.733 340.467 192.489C335.741 193.196 330.606 193.514 324.023 194.043C317.179 194.592 311.48 194.75 299.155 194.849C288.021 194.938 266.977 194.968 255.575 194.937C239.363 194.892 232.189 193.017 226.388 192.214C221.669 191.562 217.094 191.052 212.592 189.701C210.519 189.079 210.293 187.088 209.742 185.098C207.774 177.977 213.967 172.2 219.567 167.022C224.008 162.915 228.991 157.986 233.804 154.054C239.555 149.357 243.79 145.057 250.746 139.898C256.831 135.384 262.008 131.901 273.897 126.301C279.345 123.734 283.901 122.183 288.97 121.046C293.67 119.992 298.251 119.95 302.705 119.523C303.834 119.426 304.943 119.296 307.107 119.229C309.272 119.161 312.459 119.159 317.282 120.008" stroke="#86A09C" stroke-width="68.9258" stroke-linecap="round"/>
<path d="M224.664 143.293C224.641 143.293 224.358 143.423 223.945 143.777C223.748 143.947 223.799 144.317 223.931 144.413C224.261 144.655 224.869 144.041 225.317 143.577C225.537 143.349 225.587 142.987 225.496 142.746C225.305 142.235 224.249 142.206 223.198 142.293C222.442 142.357 221.969 142.951 221.597 143.449C221.212 143.965 221.376 144.984 221.515 145.9C221.717 147.235 223.971 146.802 225.598 146.715C226.83 146.649 226.435 144.656 226.43 144.024C226.376 143.718 226.216 143.442 225.986 143.266C225.757 143.09 225.464 143.023 224.924 142.833" stroke="white" stroke-width="17.2315" stroke-linecap="round"/>
<path d="M284.838 142.685C284.815 142.688 284.549 142.855 284.179 143.261C284.003 143.455 284.097 143.816 284.238 143.894C284.593 144.09 285.127 143.4 285.518 142.88C285.71 142.624 285.718 142.259 285.601 142.032C285.353 141.55 284.302 141.661 283.269 141.887C282.526 142.05 282.124 142.703 281.812 143.246C281.489 143.81 281.768 144.799 282.011 145.69C282.364 146.988 284.551 146.259 286.156 145.957C287.371 145.728 286.751 143.802 286.674 143.175C286.585 142.879 286.394 142.626 286.147 142.482C285.899 142.338 285.6 142.311 285.043 142.194" stroke="white" stroke-width="17.2315" stroke-linecap="round"/>
<path d="M288.849 164.117C289.178 164.011 290.284 163.768 292.063 163.96C293.273 164.091 294.278 163.808 297.919 162.546C298.642 162.296 298.58 161.921 298.523 161.652C298.465 161.384 298.376 161.13 298.195 160.953C297.09 159.874 293.597 161.043 291.541 161.452C289.492 161.859 288.019 162.917 287.639 163.676C287.471 164.012 287.445 164.297 287.476 164.571C287.506 164.845 287.616 165.11 287.883 165.241C289.133 165.852 290.263 165.446 291.436 165.6C292.448 165.732 293.468 165.51 294.689 165.211C295.779 165.028 296.527 164.893 297.052 164.746C297.341 164.663 297.675 164.567 298.116 163.798" stroke="#86A09C" stroke-width="5.16944" stroke-linecap="round"/>
<path d="M216.366 165.081C216.709 165.081 217.833 165.193 219.485 165.931C220.608 166.433 221.646 166.474 225.471 166.4C226.23 166.386 226.271 166.007 226.288 165.732C226.305 165.457 226.288 165.186 226.162 164.961C225.393 163.584 221.736 163.616 219.658 163.367C217.587 163.12 215.893 163.674 215.326 164.282C215.075 164.551 214.974 164.817 214.929 165.088C214.885 165.36 214.919 165.648 215.14 165.856C216.173 166.83 217.363 166.794 218.445 167.306C219.378 167.747 220.414 167.853 221.663 167.945C222.756 168.11 223.508 168.214 224.05 168.236C224.349 168.247 224.695 168.259 225.323 167.66" stroke="#86A09C" stroke-width="5.16944" stroke-linecap="round"/>
<path d="M251.93 168.443C252.036 168.511 253.281 169.564 254.469 170.529C255.256 171.168 256.72 171.462 258.078 171.712C260.722 172.199 261.356 171.626 261.892 171.401C262.545 171.126 263.193 170.613 263.681 170.149C264.592 169.308 265.039 168.779 265.441 168.182C265.532 168.04 265.601 167.92 265.786 167.566" stroke="white" stroke-width="3.44629" stroke-linecap="round"/>
<path d="M294.304 142.208C294.29 142.21 294.024 142.228 293.576 142.351C293.37 142.408 293.278 142.65 293.236 142.882C293.195 143.114 293.225 143.38 293.298 143.592C293.372 143.804 293.487 143.955 293.635 144.053C293.783 144.152 293.959 144.194 294.095 144.115C294.745 143.735 294.651 142.829 294.643 142.404C294.639 142.2 294.497 142.038 294.34 141.927C294.016 141.697 293.591 141.635 293.248 141.584C293.089 141.611 292.959 141.745 292.877 141.913C292.795 142.081 292.765 142.279 292.654 142.787" stroke="black" stroke-width="8.61573" stroke-linecap="round"/>
<path d="M235.103 144.576C235.089 144.576 234.822 144.559 234.363 144.622C234.153 144.65 234.033 144.878 233.965 145.103C233.898 145.329 233.897 145.596 233.946 145.817C233.995 146.037 234.092 146.201 234.227 146.319C234.363 146.436 234.533 146.501 234.677 146.441C235.366 146.151 235.376 145.239 235.416 144.816C235.435 144.613 235.313 144.433 235.17 144.302C234.875 144.031 234.46 143.913 234.126 143.817C233.964 143.823 233.82 143.939 233.72 144.094C233.619 144.25 233.567 144.443 233.398 144.932" stroke="black" stroke-width="8.61573" stroke-linecap="round"/>
<path d="M234.305 143.071H234.326" stroke="black" stroke-width="8.61573" stroke-linecap="round"/>
<path d="M292.56 139.748C292.562 139.763 292.675 139.606 292.776 139.424C292.787 139.404 292.626 139.537 292.603 139.688C292.579 139.839 292.676 140.005 292.749 139.994C292.821 139.983 292.866 139.789 292.69 139.536" stroke="white" stroke-width="1.72315" stroke-linecap="round"/>
<path d="M233.527 141.983C233.527 141.997 233.658 141.857 233.779 141.689C233.792 141.672 233.617 141.782 233.576 141.929C233.536 142.076 233.613 142.253 233.686 142.251C233.76 142.25 233.826 142.064 233.681 141.789" stroke="white" stroke-width="1.72315" stroke-linecap="round"/>
<path d="M217.455 165.262C216.837 165.063 214.758 164.61 211.415 164.968C209.14 165.212 207.252 164.684 200.407 162.33C199.048 161.862 199.165 161.162 199.273 160.661C199.381 160.16 199.549 159.685 199.888 159.357C201.966 157.343 208.531 159.524 212.395 160.287C216.247 161.048 219.015 163.022 219.729 164.438C220.045 165.065 220.093 165.598 220.036 166.109C219.98 166.62 219.773 167.116 219.27 167.36C216.92 168.499 214.796 167.743 212.592 168.03C210.691 168.276 208.773 167.863 206.479 167.303C204.43 166.962 203.024 166.71 202.037 166.435C201.494 166.282 200.866 166.101 200.038 164.666" stroke="#C4A1B9" stroke-width="9.0486" stroke-linecap="round"/>
<path d="M308.418 158.938C309.035 158.739 311.109 158.265 314.414 158.489C316.663 158.641 318.549 158.105 325.397 155.764C326.757 155.3 326.66 154.669 326.566 154.218C326.472 153.767 326.318 153.342 325.99 153.054C323.984 151.292 317.417 153.468 313.566 154.276C309.727 155.082 306.93 156.955 306.185 158.26C305.855 158.838 305.793 159.322 305.836 159.784C305.878 160.245 306.071 160.688 306.562 160.894C308.862 161.856 310.988 161.106 313.166 161.299C315.044 161.465 316.957 161.032 319.246 160.455C321.286 160.084 322.687 159.814 323.672 159.534C324.215 159.379 324.842 159.196 325.701 157.871" stroke="#C4A1B9" stroke-width="9.0486" stroke-linecap="round"/>
<defs>
<filter id="filter0_d_285_1787" x="-48.4663" y="0" width="289.573" height="244.048" filterUnits="userSpaceOnUse" color-interpolation-filters="sRGB">
<feFlood flood-opacity="0" result="BackgroundImageFix"/>
<feColorMatrix in="SourceAlpha" type="matrix" values="0 0 0 0 0 0 0 0 0 0 0 0 0 0 0 0 0 0 127 0" result="hardAlpha"/>
<feOffset dy="6.16068"/>
<feGaussianBlur stdDeviation="3.08034"/>
<feComposite in2="hardAlpha" operator="out"/>
<feColorMatrix type="matrix" values="0 0 0 0 0 0 0 0 0 0 0 0 0 0 0 0 0 0 0.25 0"/>
<feBlend mode="normal" in2="BackgroundImageFix" result="effect1_dropShadow_285_1787"/>
<feBlend mode="normal" in="SourceGraphic" in2="effect1_dropShadow_285_1787" result="shape"/>
</filter>
</defs>
</svg>
