<svg width="1262" height="437" viewBox="0 0 1262 437" fill="none" xmlns="http://www.w3.org/2000/svg">
<g filter="url(#filter0_d_285_1688)">
<path d="M701.46 314.216C701.591 314.216 676.28 314.216 636.191 314.136C611.729 314.087 601.043 311.768 592.773 310.01C584.524 308.257 579.458 301.383 575.684 294.394C573.627 290.584 573.889 285.127 574.249 280.066C574.848 271.638 585.423 259.08 594.722 245.372C601.693 235.096 612.123 225.856 618.621 218.691C623.966 212.797 627.892 205.253 633.903 197.231C639.428 189.856 647.364 183.612 653.368 178.005C660.405 171.433 666.087 159.774 670.719 153.456C676.104 146.111 687.666 140.712 697.813 135.395C705.884 131.165 724.415 130.716 736.705 132.999C744.19 134.389 751.109 143.423 757.884 149.356C763.811 154.546 768.89 161.241 774.674 167.932C779.964 174.052 786.737 183.545 794.97 197.489C801.465 208.488 809.17 218.863 814.659 226.181C822.787 237.018 825.034 246.699 826.324 258.772C828.156 275.914 825.936 288.752 823.729 291.747C818.846 298.375 810.989 301.09 804.175 306.141C798.169 310.593 790.804 314.481 783.017 318.425C776.255 321.849 768.416 323.352 760.119 325.3C752.364 327.12 743.937 327.939 733.135 329.301C721.904 330.718 712.553 331.124 692.329 331.378C674.059 331.608 639.529 331.686 620.818 331.606C594.216 331.491 582.445 326.658 572.926 324.591C565.182 322.91 557.675 321.597 550.288 318.116C546.886 316.513 546.516 311.386 545.612 306.257C542.382 287.913 552.545 273.028 561.734 259.689C569.021 249.109 577.197 236.411 585.095 226.281C594.531 214.18 601.481 203.103 612.896 189.81C622.879 178.183 631.376 169.209 650.883 154.781C659.824 148.169 667.299 144.172 675.616 141.244C683.33 138.527 690.847 138.421 698.155 137.321C700.007 137.069 701.826 136.736 705.378 136.562C708.93 136.388 714.159 136.383 722.074 138.569" stroke="#741A43" stroke-width="217.229" stroke-linecap="round"/>
<path d="M596.761 158.027C596.684 158.027 595.726 158.464 594.328 159.655C593.661 160.223 593.836 161.469 594.28 161.791C595.398 162.603 597.456 160.54 598.97 158.982C599.716 158.214 599.885 156.999 599.579 156.188C598.931 154.471 595.358 154.372 591.801 154.667C589.243 154.879 587.642 156.877 586.384 158.549C585.079 160.286 585.636 163.709 586.105 166.788C586.788 171.275 594.416 169.821 599.924 169.527C604.09 169.305 602.754 162.607 602.739 160.482C602.555 159.453 602.012 158.526 601.236 157.935C600.46 157.345 599.468 157.12 597.64 156.48" stroke="white" stroke-width="54.3074" stroke-linecap="round"/>
<path d="M800.392 155.984C800.316 155.994 799.415 156.554 798.165 157.92C797.568 158.572 797.885 159.785 798.364 160.047C799.566 160.705 801.371 158.386 802.695 156.64C803.346 155.78 803.373 154.552 802.977 153.788C802.136 152.169 798.579 152.542 795.083 153.303C792.568 153.851 791.21 156.044 790.155 157.87C789.059 159.765 790.006 163.089 790.826 166.083C792.021 170.445 799.423 167.997 804.855 166.98C808.964 166.21 806.867 159.739 806.607 157.632C806.306 156.636 805.661 155.787 804.823 155.303C803.985 154.819 802.973 154.727 801.086 154.333" stroke="white" stroke-width="54.3074" stroke-linecap="round"/>
<path d="M632.081 162.335C632.034 162.335 631.132 162.278 629.58 162.488C628.867 162.585 628.462 163.351 628.233 164.108C628.004 164.864 628.003 165.764 628.167 166.504C628.332 167.244 628.661 167.797 629.119 168.192C629.577 168.586 630.154 168.806 630.642 168.602C632.972 167.627 633.005 164.561 633.142 163.14C633.208 162.459 632.793 161.855 632.311 161.415C631.312 160.504 629.908 160.108 628.776 159.784C628.23 159.803 627.742 160.192 627.402 160.716C627.062 161.24 626.885 161.887 626.314 163.531" stroke="black" stroke-width="27.1537" stroke-linecap="round"/>
<path d="M832.428 154.379C832.381 154.385 831.479 154.447 829.963 154.861C829.266 155.051 828.953 155.864 828.813 156.645C828.673 157.426 828.775 158.319 829.024 159.032C829.272 159.745 829.663 160.25 830.163 160.581C830.663 160.912 831.26 161.054 831.721 160.787C833.921 159.513 833.601 156.466 833.573 155.038C833.56 154.353 833.079 153.809 832.55 153.436C831.453 152.663 830.015 152.455 828.854 152.283C828.314 152.374 827.874 152.825 827.597 153.389C827.32 153.954 827.219 154.619 826.843 156.326" stroke="black" stroke-width="27.1537" stroke-linecap="round"/>
<path d="M629.387 157.285H629.456" stroke="black" stroke-width="27.1537" stroke-linecap="round"/>
<path d="M626.755 153.63C626.755 153.679 627.196 153.207 627.606 152.643C627.649 152.584 627.057 152.955 626.92 153.449C626.784 153.942 627.046 154.539 627.293 154.533C627.541 154.528 627.767 153.903 627.274 152.979" stroke="white" stroke-width="5.43074" stroke-linecap="round"/>
<path d="M826.525 146.112C826.531 146.161 826.915 145.635 827.257 145.021C827.293 144.957 826.747 145.403 826.669 145.911C826.59 146.418 826.919 146.976 827.164 146.938C827.409 146.9 827.561 146.25 826.966 145.398" stroke="white" stroke-width="5.43074" stroke-linecap="round"/>
<path d="M689.027 242.551C689.386 242.78 693.599 246.321 697.617 249.562C700.281 251.711 705.236 252.698 709.83 253.538C718.779 255.175 720.924 253.251 722.738 252.493C724.95 251.569 727.141 249.844 728.794 248.284C731.877 245.458 733.389 243.682 734.749 241.674C735.055 241.197 735.289 240.796 735.915 239.605" stroke="white" stroke-width="10.8615" stroke-linecap="round"/>
<path d="M568.68 231.258C569.841 231.258 573.646 231.635 579.234 234.113C583.036 235.8 586.548 235.94 599.492 235.691C602.061 235.642 602.201 234.37 602.258 233.446C602.315 232.522 602.256 231.61 601.831 230.855C599.23 226.227 586.853 226.334 579.822 225.499C572.812 224.666 567.081 226.528 565.161 228.572C564.311 229.477 563.969 230.37 563.818 231.282C563.667 232.194 563.783 233.164 564.531 233.864C568.027 237.136 572.056 237.014 575.716 238.735C578.872 240.218 582.381 240.573 586.607 240.884C590.305 241.436 592.85 241.786 594.685 241.86C595.695 241.898 596.866 241.937 598.991 239.924" stroke="#C4A1B9" stroke-width="16.2922" stroke-linecap="round"/>
<path d="M813.971 228.01C815.082 227.651 818.827 226.836 824.845 227.481C828.941 227.92 832.341 226.969 844.665 222.73C847.112 221.889 846.902 220.628 846.707 219.726C846.512 218.823 846.209 217.969 845.599 217.377C841.858 213.751 830.038 217.679 823.081 219.052C816.146 220.421 811.162 223.976 809.876 226.526C809.306 227.655 809.221 228.615 809.322 229.535C809.424 230.455 809.797 231.348 810.702 231.787C814.933 233.839 818.757 232.477 822.726 232.993C826.148 233.437 829.603 232.692 833.732 231.684C837.422 231.07 839.953 230.618 841.73 230.122C842.707 229.846 843.838 229.521 845.329 226.937" stroke="#C4A1B9" stroke-width="16.2922" stroke-linecap="round"/>
</g>
<path d="M1061.24 361.857C1061.39 361.857 1033.62 361.857 989.626 361.801C962.785 361.767 951.059 360.146 941.985 358.918C932.933 357.692 927.375 352.888 923.234 348.004C920.976 345.341 921.264 341.527 921.659 337.99C922.316 332.1 933.92 323.323 944.124 313.742C951.772 306.561 963.217 300.103 970.347 295.095C976.212 290.976 980.52 285.704 987.116 280.097C993.179 274.943 1001.89 270.579 1008.47 266.661C1016.2 262.068 1022.43 253.919 1027.51 249.503C1033.42 244.37 1046.11 240.597 1057.24 236.881C1066.1 233.925 1086.43 233.61 1099.92 235.206C1108.13 236.178 1115.72 242.491 1123.16 246.638C1129.66 250.265 1135.23 254.944 1141.58 259.62C1147.39 263.898 1154.82 270.533 1163.85 280.277C1170.98 287.965 1179.43 295.216 1185.46 300.33C1194.38 307.904 1196.84 314.67 1198.26 323.108C1200.27 335.088 1197.83 344.06 1195.41 346.154C1190.05 350.786 1181.43 352.684 1173.95 356.213C1167.36 359.325 1159.28 362.043 1150.74 364.799C1143.32 367.192 1134.71 368.242 1125.61 369.603C1117.1 370.875 1107.85 371.448 1096 372.4C1083.68 373.39 1073.42 373.674 1051.23 373.852C1031.18 374.012 993.289 374.067 972.758 374.011C943.568 373.93 930.653 370.553 920.207 369.108C911.71 367.933 903.473 367.016 895.367 364.583C891.634 363.463 891.228 359.879 890.236 356.295C886.692 343.474 897.844 333.072 907.926 323.749C915.923 316.355 924.893 307.48 933.56 300.4C943.914 291.943 951.54 284.201 964.065 274.911C975.02 266.785 984.343 260.513 1005.75 250.429C1015.56 245.808 1023.76 243.015 1032.89 240.968C1041.35 239.07 1049.6 238.995 1057.62 238.226C1059.65 238.051 1061.65 237.818 1065.54 237.696C1069.44 237.574 1075.18 237.571 1083.86 239.099" stroke="#86A09C" stroke-width="124.103" stroke-linecap="round"/>
<path d="M917.104 281.023C917.063 281.023 916.553 281.256 915.809 281.894C915.454 282.199 915.547 282.866 915.784 283.039C916.379 283.474 917.474 282.369 918.279 281.534C918.676 281.123 918.766 280.471 918.603 280.037C918.258 279.117 916.357 279.064 914.465 279.222C913.104 279.336 912.252 280.406 911.583 281.302C910.888 282.232 911.185 284.066 911.434 285.716C911.798 288.12 915.856 287.341 918.787 287.184C921.003 287.065 920.292 283.476 920.285 282.338C920.187 281.787 919.898 281.29 919.485 280.973C919.072 280.657 918.544 280.536 917.571 280.194" stroke="white" stroke-width="31.0256" stroke-linecap="round"/>
<path d="M1025.45 279.927C1025.41 279.933 1024.93 280.233 1024.26 280.964C1023.95 281.314 1024.11 281.964 1024.37 282.104C1025.01 282.457 1025.97 281.214 1026.67 280.279C1027.02 279.818 1027.03 279.16 1026.82 278.751C1026.38 277.884 1024.48 278.083 1022.62 278.491C1021.29 278.785 1020.56 279.959 1020 280.938C1019.42 281.953 1019.92 283.734 1020.36 285.338C1020.99 287.675 1024.93 286.363 1027.82 285.818C1030.01 285.406 1028.89 281.939 1028.76 280.81C1028.59 280.276 1028.25 279.822 1027.81 279.562C1027.36 279.303 1026.82 279.254 1025.82 279.043" stroke="white" stroke-width="31.0256" stroke-linecap="round"/>
<path d="M1032.67 318.515C1033.26 318.323 1035.26 317.886 1038.46 318.232C1040.64 318.467 1042.45 317.957 1049 315.686C1050.3 315.236 1050.19 314.56 1050.09 314.077C1049.99 313.593 1049.82 313.135 1049.5 312.818C1047.51 310.876 1041.22 312.98 1037.52 313.716C1033.83 314.45 1031.18 316.354 1030.49 317.72C1030.19 318.325 1030.14 318.839 1030.2 319.332C1030.25 319.825 1030.45 320.303 1030.93 320.538C1033.18 321.638 1035.22 320.908 1037.33 321.184C1039.15 321.423 1040.99 321.024 1043.19 320.484C1045.15 320.154 1046.5 319.912 1047.44 319.646C1047.96 319.498 1048.56 319.324 1049.36 317.94" stroke="#86A09C" stroke-width="9.30769" stroke-linecap="round"/>
<path d="M902.163 320.255C902.781 320.255 904.806 320.457 907.779 321.785C909.802 322.688 911.67 322.764 918.557 322.63C919.924 322.604 919.998 321.923 920.029 321.428C920.059 320.932 920.028 320.444 919.802 320.039C918.417 317.56 911.832 317.617 908.091 317.17C904.362 316.723 901.312 317.721 900.291 318.816C899.838 319.301 899.657 319.779 899.577 320.268C899.496 320.757 899.558 321.276 899.956 321.651C901.816 323.404 903.959 323.339 905.907 324.261C907.586 325.055 909.453 325.245 911.701 325.412C913.669 325.708 915.023 325.895 915.999 325.935C916.537 325.955 917.16 325.976 918.29 324.898" stroke="#86A09C" stroke-width="9.30769" stroke-linecap="round"/>
<path d="M966.196 326.306C966.386 326.429 968.628 328.326 970.766 330.062C972.183 331.214 974.82 331.742 977.264 332.193C982.025 333.07 983.167 332.039 984.131 331.633C985.308 331.138 986.474 330.213 987.354 329.378C988.994 327.864 989.798 326.912 990.522 325.836C990.685 325.581 990.809 325.366 991.143 324.728" stroke="white" stroke-width="6.20513" stroke-linecap="round"/>
<path d="M1042.49 279.068C1042.47 279.071 1041.99 279.104 1041.18 279.326C1040.81 279.428 1040.64 279.864 1040.57 280.282C1040.49 280.7 1040.55 281.179 1040.68 281.561C1040.81 281.943 1041.02 282.213 1041.29 282.391C1041.55 282.568 1041.87 282.644 1042.12 282.501C1043.29 281.818 1043.12 280.186 1043.1 279.421C1043.09 279.054 1042.84 278.762 1042.56 278.563C1041.97 278.149 1041.21 278.037 1040.59 277.945C1040.3 277.993 1040.07 278.235 1039.92 278.538C1039.77 278.84 1039.72 279.196 1039.52 280.111" stroke="black" stroke-width="15.5128" stroke-linecap="round"/>
<path d="M935.896 283.331C935.871 283.331 935.391 283.3 934.566 283.413C934.186 283.465 933.971 283.875 933.849 284.28C933.727 284.686 933.727 285.168 933.814 285.564C933.901 285.961 934.077 286.257 934.32 286.468C934.564 286.68 934.871 286.797 935.13 286.688C936.37 286.166 936.388 284.524 936.461 283.762C936.496 283.397 936.275 283.074 936.019 282.838C935.487 282.35 934.74 282.138 934.138 281.964C933.847 281.974 933.587 282.183 933.407 282.464C933.226 282.744 933.131 283.091 932.828 283.972" stroke="black" stroke-width="15.5128" stroke-linecap="round"/>
<path d="M934.463 280.625H934.501" stroke="black" stroke-width="15.5128" stroke-linecap="round"/>
<path d="M1039.35 274.64C1039.35 274.666 1039.56 274.385 1039.74 274.056C1039.76 274.022 1039.47 274.261 1039.43 274.533C1039.39 274.804 1039.56 275.103 1039.69 275.083C1039.82 275.063 1039.9 274.714 1039.59 274.258" stroke="white" stroke-width="3.10256" stroke-linecap="round"/>
<path d="M933.062 278.666C933.062 278.692 933.296 278.44 933.515 278.138C933.537 278.106 933.222 278.305 933.15 278.569C933.077 278.834 933.216 279.153 933.348 279.15C933.48 279.148 933.6 278.812 933.338 278.318" stroke="white" stroke-width="3.10256" stroke-linecap="round"/>
<g filter="url(#filter1_d_285_1688)">
<path d="M145.561 344.258C145.639 344.258 130.504 344.258 106.531 344.143C91.903 344.072 85.513 340.723 80.5676 338.185C75.6345 335.653 72.6054 325.729 70.3486 315.638C69.1183 310.136 69.2753 302.258 69.4905 294.95C69.8489 282.781 76.1726 264.648 81.7332 244.856C85.9015 230.019 92.1385 216.677 96.0241 206.332C99.2202 197.822 101.568 186.93 105.163 175.347C108.467 164.699 113.212 155.683 116.802 147.587C121.01 138.098 124.409 121.263 127.178 112.141C130.398 101.536 137.312 93.7408 143.38 86.0632C148.207 79.9563 159.288 79.307 166.637 82.6034C171.113 84.6113 175.25 97.6542 179.302 106.221C182.846 113.715 185.883 123.381 189.342 133.042C192.505 141.88 196.555 155.587 201.479 175.719C205.363 191.601 209.97 206.581 213.252 217.146C218.113 232.794 219.456 246.772 220.228 264.203C221.323 288.955 219.995 307.491 218.676 311.816C215.756 321.386 211.058 325.306 206.983 332.598C203.391 339.027 198.987 344.641 194.33 350.335C190.287 355.28 185.6 357.449 180.638 360.261C176.001 362.889 170.961 364.072 164.502 366.039C157.786 368.084 152.195 368.671 140.101 369.038C129.176 369.37 108.527 369.483 97.3382 369.366C81.4305 369.2 74.3918 362.223 68.6993 359.239C64.0686 356.811 59.5795 354.915 55.1621 349.889C53.128 347.575 52.9063 340.171 52.3662 332.766C50.4344 306.28 56.512 284.788 62.0065 265.528C66.3644 250.252 71.2532 231.918 75.9764 217.291C81.6189 199.818 85.7751 183.825 92.6006 164.632C98.5707 147.844 103.651 134.886 115.317 114.055C120.663 104.507 125.133 98.737 130.107 94.5082C134.719 90.5864 139.214 90.432 143.584 88.8437C144.692 88.4808 145.78 87.9995 147.904 87.7482C150.028 87.4968 153.155 87.4901 157.888 90.6467" stroke="#747C57" stroke-width="161.277" stroke-linecap="round"/>
<path d="M87.7892 248.54C87.736 248.54 87.0735 248.844 86.1068 249.673C85.6454 250.069 85.7663 250.936 86.0735 251.161C86.8463 251.726 88.2694 250.29 89.3166 249.205C89.832 248.671 89.9487 247.824 89.7372 247.26C89.2891 246.065 86.8188 245.996 84.3595 246.201C82.5904 246.349 81.4836 247.739 80.6141 248.904C79.7116 250.113 80.0966 252.496 80.4208 254.64C80.8932 257.764 86.1675 256.751 89.9759 256.547C92.8565 256.392 91.9327 251.729 91.9225 250.25C91.7952 249.533 91.42 248.887 90.8834 248.476C90.3469 248.065 89.6604 247.909 88.3966 247.463" stroke="white" stroke-width="40.3192" stroke-linecap="round"/>
<path d="M228.587 247.117C228.534 247.124 227.912 247.513 227.047 248.464C226.635 248.918 226.854 249.763 227.184 249.945C228.016 250.403 229.264 248.789 230.179 247.573C230.629 246.975 230.648 246.119 230.374 245.587C229.793 244.461 227.333 244.72 224.916 245.25C223.177 245.631 222.238 247.158 221.508 248.429C220.751 249.749 221.406 252.063 221.973 254.147C222.799 257.185 227.917 255.48 231.673 254.772C234.514 254.236 233.064 249.731 232.884 248.264C232.676 247.57 232.23 246.979 231.651 246.642C231.071 246.306 230.372 246.241 229.067 245.967" stroke="white" stroke-width="40.3192" stroke-linecap="round"/>
<path d="M237.975 297.261C238.743 297.012 241.332 296.444 245.494 296.893C248.326 297.199 250.677 296.537 259.198 293.585C260.889 293 260.745 292.122 260.61 291.494C260.475 290.865 260.265 290.27 259.843 289.858C257.257 287.334 249.084 290.068 244.274 291.025C239.478 291.978 236.032 294.453 235.143 296.228C234.749 297.014 234.69 297.683 234.761 298.323C234.831 298.964 235.089 299.585 235.714 299.891C238.64 301.32 241.284 300.371 244.028 300.73C246.394 301.04 248.783 300.521 251.638 299.82C254.189 299.392 255.939 299.077 257.168 298.731C257.844 298.539 258.626 298.313 259.657 296.514" stroke="#E8F8B4" stroke-width="12.0958" stroke-linecap="round"/>
<path d="M68.3741 299.523C69.1769 299.523 71.8079 299.785 75.6714 301.51C78.3005 302.685 80.7288 302.782 89.6781 302.609C91.4547 302.575 91.5515 301.69 91.591 301.046C91.6306 300.403 91.5895 299.768 91.296 299.242C89.4971 296.02 80.9394 296.094 76.0778 295.513C71.231 294.933 67.2682 296.229 65.9406 297.652C65.3528 298.282 65.1168 298.904 65.0124 299.539C64.9081 300.174 64.988 300.849 65.505 301.337C67.9224 303.615 70.7081 303.53 73.2389 304.728C75.4212 305.761 77.8474 306.008 80.769 306.225C83.3259 306.609 85.0857 306.852 86.3547 306.904C87.0533 306.93 87.8627 306.957 89.3321 305.556" stroke="#E8F8B4" stroke-width="12.0958" stroke-linecap="round"/>
<path d="M151.585 307.387C151.833 307.546 154.746 310.012 157.524 312.268C159.366 313.764 162.793 314.451 165.969 315.036C172.157 316.176 173.64 314.836 174.894 314.309C176.423 313.665 177.938 312.464 179.081 311.378C181.213 309.411 182.258 308.174 183.199 306.776C183.41 306.444 183.572 306.165 184.005 305.336" stroke="white" stroke-width="8.06384" stroke-linecap="round"/>
<path d="M250.737 245.999C250.705 246.003 250.081 246.047 249.033 246.334C248.551 246.467 248.335 247.033 248.238 247.577C248.141 248.121 248.212 248.742 248.384 249.239C248.555 249.735 248.825 250.087 249.171 250.317C249.517 250.548 249.93 250.647 250.248 250.461C251.77 249.573 251.548 247.452 251.529 246.458C251.52 245.981 251.187 245.602 250.821 245.342C250.063 244.804 249.069 244.66 248.266 244.54C247.893 244.603 247.589 244.917 247.397 245.31C247.206 245.703 247.136 246.166 246.876 247.355" stroke="black" stroke-width="20.1596" stroke-linecap="round"/>
<path d="M112.211 251.538C112.178 251.538 111.555 251.498 110.482 251.644C109.988 251.712 109.709 252.245 109.55 252.772C109.392 253.298 109.391 253.925 109.505 254.44C109.618 254.955 109.846 255.34 110.163 255.615C110.48 255.89 110.878 256.043 111.216 255.9C112.827 255.222 112.85 253.088 112.945 252.098C112.99 251.624 112.703 251.203 112.37 250.897C111.679 250.263 110.708 249.987 109.925 249.762C109.548 249.775 109.21 250.046 108.975 250.411C108.74 250.775 108.618 251.226 108.224 252.37" stroke="black" stroke-width="20.1596" stroke-linecap="round"/>
<path d="M110.348 248.022H110.395" stroke="black" stroke-width="20.1596" stroke-linecap="round"/>
<path d="M246.656 240.244C246.66 240.278 246.926 239.912 247.162 239.484C247.187 239.44 246.81 239.75 246.755 240.104C246.701 240.457 246.928 240.845 247.098 240.819C247.267 240.793 247.372 240.34 246.961 239.747" stroke="white" stroke-width="4.03192" stroke-linecap="round"/>
<path d="M108.527 245.478C108.527 245.512 108.833 245.184 109.116 244.791C109.146 244.75 108.736 245.009 108.642 245.352C108.548 245.696 108.728 246.111 108.9 246.107C109.071 246.104 109.227 245.668 108.887 245.025" stroke="white" stroke-width="4.03192" stroke-linecap="round"/>
</g>
<path d="M395.281 383.19C395.342 383.19 383.701 383.19 365.263 383.096C354.013 383.039 349.098 380.325 345.295 378.268C341.501 376.217 339.171 368.174 337.435 359.997C336.489 355.539 336.61 349.154 336.775 343.233C337.051 333.372 341.915 318.678 346.191 302.639C349.397 290.616 354.194 279.804 357.182 271.421C359.641 264.525 361.446 255.698 364.211 246.312C366.752 237.683 370.402 230.378 373.163 223.817C376.4 216.127 379.013 202.485 381.143 195.093C383.62 186.499 388.938 180.182 393.604 173.961C397.316 169.012 405.839 168.486 411.491 171.157C414.934 172.784 418.116 183.354 421.232 190.296C423.958 196.369 426.293 204.202 428.954 212.031C431.387 219.192 434.502 230.299 438.288 246.613C441.275 259.484 444.819 271.623 447.343 280.184C451.082 292.864 452.115 304.191 452.708 318.317C453.551 338.374 452.53 353.395 451.515 356.9C449.269 364.655 445.655 367.832 442.522 373.741C439.759 378.951 436.372 383.5 432.79 388.114C429.681 392.121 426.075 393.879 422.259 396.158C418.693 398.287 414.817 399.246 409.849 400.84C404.684 402.498 400.383 402.973 391.082 403.27C382.679 403.539 366.798 403.631 358.193 403.536C345.958 403.402 340.545 397.748 336.167 395.329C332.605 393.362 329.153 391.825 325.755 387.753C324.191 385.878 324.02 379.878 323.605 373.877C322.119 352.414 326.793 334.998 331.019 319.391C334.371 307.012 338.131 292.155 341.764 280.302C346.103 266.142 349.3 253.182 354.549 237.629C359.141 224.025 363.049 213.525 372.02 196.644C376.132 188.907 379.57 184.231 383.395 180.804C386.943 177.626 390.4 177.501 393.761 176.214C394.613 175.92 395.45 175.53 397.083 175.326C398.717 175.123 401.122 175.117 404.762 177.675" stroke="#B186A4" stroke-width="120.938" stroke-linecap="round"/>
<path d="M353.403 194.182C353.364 194.182 352.867 194.41 352.142 195.032C351.796 195.329 351.887 195.979 352.117 196.148C352.696 196.571 353.764 195.494 354.549 194.681C354.935 194.28 355.023 193.645 354.864 193.222C354.528 192.326 352.676 192.274 350.832 192.428C349.505 192.539 348.675 193.582 348.023 194.455C347.346 195.361 347.635 197.149 347.878 198.756C348.232 201.099 352.187 200.34 355.043 200.186C357.203 200.07 356.511 196.574 356.503 195.464C356.407 194.927 356.126 194.443 355.724 194.134C355.321 193.826 354.807 193.709 353.859 193.375" stroke="white" stroke-width="30.2345" stroke-linecap="round"/>
<path d="M458.984 193.117C458.944 193.122 458.477 193.414 457.829 194.127C457.519 194.468 457.684 195.101 457.932 195.238C458.555 195.581 459.491 194.371 460.177 193.459C460.515 193.01 460.529 192.369 460.323 191.97C459.887 191.125 458.043 191.32 456.231 191.717C454.927 192.003 454.223 193.148 453.675 194.101C453.107 195.091 453.598 196.826 454.023 198.389C454.643 200.667 458.481 199.389 461.298 198.857C463.428 198.456 462.341 195.077 462.206 193.977C462.05 193.457 461.715 193.014 461.281 192.761C460.846 192.509 460.322 192.46 459.343 192.255" stroke="white" stroke-width="30.2345" stroke-linecap="round"/>
<path d="M466.024 230.719C466.6 230.532 468.542 230.106 471.663 230.443C473.786 230.672 475.549 230.176 481.939 227.963C483.207 227.523 483.099 226.865 482.998 226.394C482.897 225.923 482.74 225.477 482.423 225.168C480.484 223.275 474.355 225.325 470.748 226.042C467.152 226.757 464.568 228.613 463.901 229.944C463.606 230.534 463.561 231.035 463.614 231.515C463.667 231.996 463.86 232.462 464.329 232.691C466.523 233.762 468.506 233.051 470.563 233.32C472.338 233.553 474.129 233.164 476.27 232.637C478.183 232.317 479.496 232.08 480.417 231.821C480.924 231.677 481.51 231.508 482.283 230.159" stroke="#D2BCCC" stroke-width="9.07035" stroke-linecap="round"/>
<path d="M338.844 232.412C339.446 232.412 341.419 232.608 344.316 233.902C346.287 234.783 348.108 234.856 354.819 234.726C356.151 234.7 356.224 234.036 356.254 233.554C356.283 233.071 356.252 232.595 356.032 232.201C354.683 229.785 348.266 229.841 344.62 229.405C340.986 228.97 338.014 229.942 337.019 231.009C336.578 231.482 336.401 231.948 336.323 232.424C336.245 232.9 336.305 233.406 336.692 233.772C338.505 235.48 340.594 235.417 342.492 236.315C344.128 237.089 345.947 237.275 348.138 237.437C350.056 237.725 351.375 237.908 352.327 237.947C352.851 237.966 353.458 237.987 354.56 236.936" stroke="#D2BCCC" stroke-width="9.07035" stroke-linecap="round"/>
<path d="M401.242 238.308C401.428 238.428 403.613 240.277 405.696 241.969C407.077 243.091 409.647 243.606 412.029 244.044C416.669 244.899 417.781 243.895 418.721 243.499C419.868 243.016 421.004 242.116 421.861 241.302C423.459 239.826 424.243 238.899 424.949 237.85C425.107 237.602 425.228 237.392 425.553 236.771" stroke="white" stroke-width="6.0469" stroke-linecap="round"/>
<path d="M475.594 192.275C475.57 192.278 475.102 192.31 474.316 192.526C473.955 192.625 473.793 193.05 473.72 193.458C473.647 193.865 473.701 194.332 473.829 194.704C473.958 195.076 474.16 195.34 474.42 195.513C474.679 195.686 474.989 195.76 475.228 195.62C476.368 194.955 476.202 193.364 476.188 192.618C476.181 192.261 475.932 191.977 475.657 191.782C475.089 191.379 474.343 191.27 473.741 191.18C473.461 191.228 473.233 191.463 473.09 191.758C472.946 192.053 472.894 192.4 472.698 193.291" stroke="black" stroke-width="15.1173" stroke-linecap="round"/>
<path d="M371.717 196.43C371.692 196.43 371.224 196.4 370.42 196.51C370.05 196.561 369.84 196.96 369.721 197.355C369.602 197.75 369.602 198.22 369.687 198.607C369.772 198.993 369.943 199.282 370.181 199.488C370.418 199.694 370.717 199.808 370.97 199.702C372.178 199.193 372.196 197.592 372.267 196.85C372.301 196.495 372.086 196.179 371.836 195.95C371.318 195.474 370.59 195.267 370.003 195.098C369.72 195.108 369.466 195.311 369.29 195.585C369.114 195.859 369.022 196.196 368.727 197.055" stroke="black" stroke-width="15.1173" stroke-linecap="round"/>
<path d="M370.319 193.793H370.353" stroke="black" stroke-width="15.1173" stroke-linecap="round"/>
<path d="M472.534 187.962C472.537 187.987 472.736 187.712 472.913 187.392C472.932 187.359 472.649 187.592 472.608 187.857C472.568 188.122 472.738 188.413 472.865 188.393C472.992 188.373 473.071 188.034 472.762 187.589" stroke="white" stroke-width="3.02345" stroke-linecap="round"/>
<path d="M368.955 191.886C368.955 191.911 369.184 191.665 369.397 191.371C369.419 191.34 369.112 191.534 369.041 191.791C368.97 192.049 369.106 192.36 369.234 192.358C369.363 192.355 369.48 192.028 369.224 191.546" stroke="white" stroke-width="3.02345" stroke-linecap="round"/>
<defs>
<filter id="filter0_d_285_1688" x="425.327" y="23.022" width="521.383" height="439.414" filterUnits="userSpaceOnUse" color-interpolation-filters="sRGB">
<feFlood flood-opacity="0" result="BackgroundImageFix"/>
<feColorMatrix in="SourceAlpha" type="matrix" values="0 0 0 0 0 0 0 0 0 0 0 0 0 0 0 0 0 0 127 0" result="hardAlpha"/>
<feOffset dy="11.0924"/>
<feGaussianBlur stdDeviation="5.54622"/>
<feComposite in2="hardAlpha" operator="out"/>
<feColorMatrix type="matrix" values="0 0 0 0 0 0 0 0 0 0 0 0 0 0 0 0 0 0 0.25 0"/>
<feBlend mode="normal" in2="BackgroundImageFix" result="effect1_dropShadow_285_1688"/>
<feBlend mode="normal" in="SourceGraphic" in2="effect1_dropShadow_285_1688" result="shape"/>
</filter>
<filter id="filter1_d_285_1688" x="-40.5264" y="0" width="353.695" height="473.844" filterUnits="userSpaceOnUse" color-interpolation-filters="sRGB">
<feFlood flood-opacity="0" result="BackgroundImageFix"/>
<feColorMatrix in="SourceAlpha" type="matrix" values="0 0 0 0 0 0 0 0 0 0 0 0 0 0 0 0 0 0 127 0" result="hardAlpha"/>
<feOffset dy="11.8975"/>
<feGaussianBlur stdDeviation="5.94874"/>
<feComposite in2="hardAlpha" operator="out"/>
<feColorMatrix type="matrix" values="0 0 0 0 0 0 0 0 0 0 0 0 0 0 0 0 0 0 0.25 0"/>
<feBlend mode="normal" in2="BackgroundImageFix" result="effect1_dropShadow_285_1688"/>
<feBlend mode="normal" in="SourceGraphic" in2="effect1_dropShadow_285_1688" result="shape"/>
</filter>
</defs>
</svg>
