<svg width="891" height="376" viewBox="0 0 891 376" fill="none" xmlns="http://www.w3.org/2000/svg">
<g filter="url(#filter0_d_324_1878)">
<path d="M661.873 302.485C661.987 302.485 640.007 302.485 605.192 302.419C583.949 302.379 574.669 300.473 567.487 299.029C560.323 297.588 555.924 291.941 552.647 286.199C550.86 283.068 551.088 278.585 551.401 274.427C551.921 267.502 561.105 257.184 569.18 245.921C575.233 237.479 584.291 229.887 589.934 224C594.575 219.158 597.985 212.96 603.205 206.369C608.004 200.31 614.895 195.179 620.109 190.573C626.22 185.173 631.155 175.593 635.177 170.402C639.853 164.368 649.895 159.932 658.706 155.563C665.715 152.088 681.808 151.719 692.48 153.595C698.981 154.737 704.989 162.159 710.873 167.034C716.02 171.298 720.431 176.799 725.454 182.296C730.048 187.325 735.93 195.125 743.079 206.58C748.72 215.618 755.411 224.142 760.177 230.154C767.236 239.058 769.187 247.012 770.308 256.931C771.899 271.015 769.97 281.563 768.054 284.024C763.814 289.47 756.99 291.7 751.073 295.85C745.857 299.508 739.462 302.703 732.699 305.943C726.827 308.756 720.019 309.991 712.814 311.591C706.079 313.086 698.761 313.76 689.38 314.879C679.627 316.043 671.507 316.377 653.944 316.585C638.078 316.774 608.091 316.839 591.842 316.772C568.74 316.678 558.518 312.707 550.252 311.009C543.526 309.628 537.007 308.549 530.592 305.689C527.638 304.372 527.316 300.159 526.532 295.945C523.726 280.874 532.553 268.645 540.532 257.685C546.861 248.992 553.96 238.56 560.82 230.236C569.014 220.294 575.05 211.193 584.962 200.272C593.632 190.719 601.01 183.345 617.951 171.491C625.715 166.059 632.207 162.775 639.43 160.369C646.128 158.137 652.656 158.049 659.003 157.146C660.611 156.939 662.191 156.665 665.276 156.522C668.36 156.379 672.901 156.375 679.775 158.172" stroke="#741A43" stroke-width="217.229" stroke-linecap="round"/>
<path d="M570.951 174.159C570.884 174.159 570.052 174.517 568.838 175.496C568.258 175.963 568.41 176.986 568.796 177.251C569.766 177.918 571.554 176.223 572.869 174.943C573.516 174.312 573.663 173.313 573.397 172.648C572.835 171.237 569.732 171.155 566.643 171.398C564.421 171.572 563.031 173.213 561.939 174.587C560.805 176.014 561.289 178.827 561.696 181.356C562.29 185.043 568.914 183.848 573.697 183.607C577.315 183.425 576.155 177.922 576.142 176.175C575.982 175.33 575.511 174.568 574.837 174.083C574.163 173.598 573.301 173.413 571.714 172.888" stroke="white" stroke-width="54.3074" stroke-linecap="round"/>
<path d="M747.788 172.48C747.722 172.488 746.94 172.948 745.854 174.07C745.336 174.606 745.611 175.603 746.026 175.818C747.071 176.359 748.638 174.454 749.787 173.019C750.353 172.313 750.377 171.303 750.032 170.676C749.302 169.346 746.213 169.652 743.177 170.277C740.993 170.728 739.814 172.529 738.897 174.029C737.946 175.587 738.768 178.317 739.48 180.777C740.518 184.361 746.946 182.35 751.664 181.514C755.232 180.882 753.411 175.565 753.185 173.834C752.924 173.015 752.363 172.318 751.636 171.92C750.908 171.523 750.03 171.447 748.39 171.124" stroke="white" stroke-width="54.3074" stroke-linecap="round"/>
<path d="M601.624 177.699C601.583 177.699 600.799 177.652 599.452 177.825C598.832 177.905 598.481 178.534 598.282 179.156C598.083 179.777 598.082 180.517 598.225 181.125C598.367 181.733 598.654 182.187 599.051 182.511C599.449 182.835 599.95 183.016 600.374 182.848C602.397 182.047 602.426 179.528 602.545 178.36C602.602 177.801 602.242 177.305 601.823 176.943C600.955 176.195 599.736 175.87 598.753 175.604C598.279 175.619 597.855 175.939 597.56 176.369C597.265 176.8 597.111 177.331 596.616 178.682" stroke="black" stroke-width="27.1537" stroke-linecap="round"/>
<path d="M775.608 171.161C775.568 171.167 774.784 171.217 773.468 171.557C772.863 171.713 772.591 172.382 772.469 173.023C772.347 173.665 772.437 174.399 772.652 174.984C772.868 175.57 773.207 175.985 773.641 176.257C774.075 176.529 774.594 176.646 774.994 176.427C776.905 175.379 776.627 172.876 776.603 171.702C776.592 171.14 776.173 170.693 775.714 170.386C774.762 169.751 773.513 169.581 772.505 169.44C772.036 169.514 771.654 169.884 771.413 170.348C771.173 170.812 771.085 171.359 770.758 172.761" stroke="black" stroke-width="27.1537" stroke-linecap="round"/>
<path d="M599.283 173.552H599.343" stroke="black" stroke-width="27.1537" stroke-linecap="round"/>
<path d="M596.998 170.543C596.998 170.583 597.381 170.196 597.737 169.733C597.774 169.684 597.26 169.989 597.141 170.394C597.023 170.8 597.25 171.29 597.465 171.285C597.68 171.281 597.876 170.767 597.449 170.009" stroke="white" stroke-width="5.43074" stroke-linecap="round"/>
<path d="M770.483 164.369C770.487 164.409 770.821 163.976 771.118 163.472C771.149 163.42 770.675 163.786 770.607 164.203C770.539 164.62 770.824 165.078 771.037 165.047C771.25 165.016 771.382 164.482 770.865 163.782" stroke="white" stroke-width="5.43074" stroke-linecap="round"/>
<path d="M651.076 243.602C651.388 243.79 655.046 246.699 658.536 249.362C660.849 251.128 665.153 251.938 669.142 252.629C676.914 253.974 678.776 252.393 680.351 251.77C682.272 251.011 684.175 249.594 685.61 248.312C688.287 245.99 689.601 244.531 690.782 242.881C691.048 242.489 691.25 242.159 691.794 241.182" stroke="white" stroke-width="10.8615" stroke-linecap="round"/>
<path d="M546.564 234.328C547.572 234.328 550.877 234.638 555.729 236.674C559.031 238.059 562.081 238.175 573.321 237.97C575.553 237.93 575.674 236.885 575.724 236.126C575.774 235.367 575.722 234.617 575.353 233.997C573.094 230.195 562.346 230.282 556.24 229.596C550.152 228.912 545.175 230.442 543.508 232.121C542.77 232.864 542.473 233.598 542.342 234.347C542.211 235.097 542.311 235.894 542.961 236.469C545.997 239.157 549.496 239.057 552.674 240.471C555.415 241.69 558.462 241.981 562.132 242.237C565.343 242.69 567.553 242.978 569.147 243.039C570.025 243.07 571.041 243.102 572.887 241.448" stroke="#C4A1B9" stroke-width="16.2922" stroke-linecap="round"/>
<path d="M759.579 231.655C760.545 231.36 763.797 230.69 769.023 231.22C772.58 231.581 775.533 230.8 786.235 227.317C788.36 226.626 788.178 225.59 788.009 224.849C787.839 224.107 787.576 223.405 787.046 222.919C783.798 219.939 773.533 223.167 767.491 224.295C761.468 225.42 757.14 228.34 756.023 230.436C755.529 231.363 755.454 232.152 755.543 232.908C755.631 233.664 755.955 234.397 756.741 234.758C760.415 236.444 763.736 235.325 767.183 235.749C770.154 236.114 773.155 235.502 776.741 234.674C779.945 234.169 782.143 233.797 783.686 233.39C784.535 233.163 785.517 232.896 786.812 230.774" stroke="#C4A1B9" stroke-width="16.2922" stroke-linecap="round"/>
</g>
<g filter="url(#filter1_d_324_1878)">
<path d="M153.242 311.605C153.315 311.605 139.202 311.605 116.848 311.504C103.208 311.442 97.2497 308.508 92.6383 306.284C88.0383 304.066 85.2138 295.371 83.1095 286.53C81.9623 281.71 82.1087 274.807 82.3093 268.404C82.6435 257.743 88.5402 241.856 93.7252 224.515C97.612 211.516 103.428 199.827 107.051 190.763C110.031 183.307 112.221 173.764 115.572 163.616C118.653 154.287 123.078 146.388 126.426 139.294C130.35 130.981 133.519 116.231 136.101 108.239C139.104 98.9475 145.551 92.1177 151.209 85.391C155.709 80.0406 166.042 79.4717 172.895 82.3598C177.069 84.119 180.927 95.5464 184.705 103.052C188.009 109.618 190.841 118.087 194.066 126.551C197.016 134.294 200.793 146.303 205.384 163.941C209.005 177.857 213.301 190.981 216.362 200.238C220.895 213.947 222.147 226.193 222.867 241.466C223.888 263.152 222.65 279.392 221.419 283.181C218.697 291.566 214.316 295 210.516 301.389C207.167 307.022 203.061 311.94 198.718 316.93C194.948 321.261 190.577 323.162 185.95 325.626C181.626 327.928 176.927 328.965 170.904 330.688C164.642 332.48 159.428 332.994 148.151 333.316C137.964 333.606 118.709 333.705 108.276 333.603C93.443 333.458 86.8796 327.345 81.5716 324.73C77.2535 322.603 73.0676 320.942 68.9486 316.539C67.0518 314.511 66.8451 308.024 66.3415 301.536C64.5401 278.331 70.2073 259.502 75.3307 242.627C79.3944 229.243 83.9529 213.18 88.3572 200.365C93.6186 185.056 97.4941 171.043 103.859 154.228C109.426 139.519 114.163 128.167 125.041 109.915C130.026 101.55 134.194 96.4951 138.832 92.7901C143.133 89.354 147.324 89.2187 151.399 87.8272C152.432 87.5092 153.446 87.0875 155.427 86.8673C157.407 86.6471 160.323 86.6412 164.737 89.4068" stroke="#747C57" stroke-width="161.277" stroke-linecap="round"/>
<path d="M99.3728 227.743C99.3232 227.743 98.7054 228.01 97.804 228.736C97.3738 229.083 97.4865 229.843 97.773 230.04C98.4936 230.535 99.8206 229.276 100.797 228.326C101.278 227.858 101.386 227.116 101.189 226.622C100.771 225.574 98.468 225.514 96.1748 225.694C94.5251 225.823 93.4931 227.041 92.6823 228.062C91.8407 229.121 92.1997 231.209 92.502 233.087C92.9426 235.824 97.8606 234.937 101.412 234.758C104.098 234.623 103.236 230.537 103.227 229.241C103.108 228.613 102.758 228.047 102.258 227.687C101.758 227.327 101.118 227.19 99.9392 226.8" stroke="white" stroke-width="40.3192" stroke-linecap="round"/>
<path d="M230.662 226.496C230.613 226.502 230.032 226.843 229.226 227.677C228.841 228.074 229.046 228.814 229.354 228.974C230.129 229.376 231.293 227.961 232.146 226.896C232.566 226.372 232.584 225.622 232.328 225.156C231.786 224.169 229.493 224.396 227.239 224.861C225.617 225.195 224.742 226.532 224.061 227.646C223.355 228.802 223.965 230.83 224.494 232.656C225.264 235.317 230.037 233.824 233.539 233.203C236.188 232.734 234.836 228.787 234.669 227.501C234.475 226.893 234.059 226.375 233.518 226.08C232.978 225.785 232.326 225.729 231.109 225.489" stroke="white" stroke-width="40.3192" stroke-linecap="round"/>
<path d="M239.415 270.43C240.132 270.211 242.546 269.713 246.427 270.107C249.067 270.375 251.259 269.795 259.205 267.209C260.783 266.696 260.647 265.927 260.522 265.376C260.396 264.826 260.201 264.305 259.807 263.944C257.395 261.732 249.775 264.128 245.289 264.966C240.817 265.801 237.604 267.969 236.775 269.525C236.408 270.213 236.353 270.799 236.418 271.36C236.484 271.921 236.724 272.466 237.308 272.734C240.036 273.985 242.501 273.155 245.06 273.469C247.266 273.74 249.494 273.286 252.156 272.671C254.535 272.296 256.167 272.02 257.313 271.718C257.943 271.549 258.672 271.351 259.633 269.775" stroke="#E8F8B4" stroke-width="12.0958" stroke-linecap="round"/>
<path d="M81.2685 272.411C82.017 272.411 84.4703 272.641 88.0729 274.152C90.5244 275.181 92.7887 275.267 101.134 275.115C102.79 275.085 102.881 274.309 102.917 273.746C102.954 273.182 102.916 272.626 102.642 272.165C100.965 269.342 92.9851 269.407 88.4519 268.898C83.9323 268.39 80.2372 269.525 78.9993 270.772C78.4512 271.324 78.2311 271.869 78.1338 272.425C78.0365 272.982 78.111 273.573 78.5931 274C80.8472 275.996 83.4448 275.922 85.8047 276.971C87.8396 277.876 90.1019 278.093 92.8263 278.283C95.2105 278.619 96.8514 278.833 98.0347 278.878C98.6861 278.901 99.4409 278.925 100.811 277.697" stroke="#E8F8B4" stroke-width="12.0958" stroke-linecap="round"/>
<path d="M158.86 279.301C159.092 279.441 161.808 281.601 164.398 283.578C166.116 284.888 169.311 285.49 172.273 286.003C178.043 287.001 179.425 285.828 180.595 285.365C182.021 284.802 183.434 283.75 184.499 282.798C186.487 281.074 187.462 279.991 188.339 278.766C188.536 278.475 188.687 278.23 189.091 277.504" stroke="white" stroke-width="8.06384" stroke-linecap="round"/>
<path d="M251.316 225.517C251.285 225.521 250.704 225.559 249.727 225.811C249.277 225.927 249.075 226.423 248.985 226.899C248.895 227.376 248.961 227.921 249.121 228.355C249.281 228.79 249.533 229.098 249.855 229.3C250.178 229.502 250.563 229.589 250.86 229.426C252.278 228.649 252.072 226.79 252.054 225.919C252.046 225.501 251.735 225.169 251.394 224.942C250.687 224.47 249.76 224.344 249.011 224.239C248.663 224.294 248.38 224.569 248.201 224.913C248.023 225.258 247.957 225.663 247.715 226.705" stroke="black" stroke-width="20.1596" stroke-linecap="round"/>
<path d="M122.145 230.369C122.114 230.369 121.533 230.334 120.532 230.463C120.072 230.522 119.811 230.989 119.664 231.451C119.516 231.912 119.515 232.461 119.621 232.912C119.727 233.364 119.94 233.701 120.235 233.942C120.53 234.182 120.902 234.316 121.217 234.192C122.719 233.597 122.741 231.727 122.829 230.86C122.871 230.445 122.604 230.076 122.293 229.808C121.649 229.252 120.744 229.011 120.014 228.813C119.662 228.825 119.347 229.062 119.128 229.382C118.908 229.702 118.794 230.096 118.427 231.099" stroke="black" stroke-width="20.1596" stroke-linecap="round"/>
<path d="M120.408 227.289H120.453" stroke="black" stroke-width="20.1596" stroke-linecap="round"/>
<path d="M247.51 220.475C247.514 220.504 247.761 220.183 247.982 219.809C248.005 219.77 247.653 220.042 247.603 220.352C247.552 220.662 247.764 221.002 247.922 220.979C248.08 220.955 248.178 220.559 247.794 220.039" stroke="white" stroke-width="4.03192" stroke-linecap="round"/>
<path d="M118.71 225.06C118.71 225.09 118.995 224.803 119.259 224.459C119.287 224.423 118.904 224.649 118.817 224.95C118.729 225.251 118.897 225.615 119.057 225.612C119.217 225.608 119.362 225.227 119.045 224.664" stroke="white" stroke-width="4.03192" stroke-linecap="round"/>
</g>
<path d="M386.098 345.714C386.155 345.714 375.3 345.714 358.107 345.633C347.617 345.583 343.034 343.205 339.488 341.403C335.95 339.605 333.777 332.559 332.159 325.395C331.277 321.489 331.389 315.895 331.544 310.707C331.801 302.067 336.336 289.193 340.324 275.141C343.313 264.607 347.786 255.135 350.573 247.79C352.865 241.748 354.549 234.015 357.126 225.791C359.496 218.231 362.899 211.83 365.474 206.082C368.492 199.345 370.929 187.393 372.915 180.916C375.224 173.387 380.183 167.852 384.535 162.401C387.996 158.066 395.943 157.605 401.213 159.945C404.424 161.371 407.391 170.631 410.296 176.713C412.838 182.034 415.016 188.897 417.497 195.756C419.766 202.03 422.67 211.762 426.201 226.055C428.986 237.331 432.29 247.967 434.644 255.468C438.13 266.577 439.094 276.501 439.647 288.877C440.433 306.45 439.48 319.611 438.534 322.681C436.44 329.476 433.071 332.259 430.148 337.436C427.572 342 424.414 345.986 421.074 350.029C418.175 353.54 414.813 355.08 411.255 357.076C407.929 358.942 404.315 359.782 399.682 361.179C394.866 362.631 390.856 363.047 382.183 363.308C374.348 363.543 359.539 363.624 351.515 363.541C340.107 363.423 335.059 358.469 330.976 356.35C327.655 354.627 324.436 353.281 321.268 349.713C319.809 348.069 319.65 342.813 319.263 337.555C317.877 318.751 322.236 303.492 326.176 289.818C329.302 278.973 332.808 265.955 336.195 255.571C340.242 243.165 343.222 231.81 348.117 218.184C352.399 206.265 356.043 197.065 364.408 182.275C368.243 175.496 371.448 171.4 375.015 168.397C378.323 165.613 381.547 165.503 384.681 164.376C385.475 164.118 386.256 163.776 387.779 163.598C389.302 163.419 391.545 163.415 394.939 165.656" stroke="#B186A4" stroke-width="120.938" stroke-linecap="round"/>
<path d="M347.049 180.118C347.012 180.118 346.548 180.318 345.872 180.863C345.55 181.123 345.634 181.692 345.849 181.84C346.39 182.212 347.385 181.268 348.117 180.555C348.477 180.204 348.559 179.648 348.411 179.277C348.098 178.492 346.37 178.446 344.651 178.581C343.414 178.678 342.64 179.592 342.032 180.357C341.401 181.151 341.67 182.717 341.897 184.126C342.227 186.178 345.915 185.513 348.578 185.379C350.592 185.277 349.946 182.213 349.939 181.241C349.85 180.771 349.588 180.346 349.212 180.076C348.837 179.806 348.357 179.703 347.474 179.411" stroke="white" stroke-width="30.2345" stroke-linecap="round"/>
<path d="M445.499 179.185C445.462 179.189 445.027 179.445 444.422 180.07C444.134 180.368 444.287 180.923 444.518 181.043C445.1 181.344 445.972 180.284 446.612 179.485C446.927 179.092 446.941 178.53 446.749 178.18C446.342 177.44 444.622 177.61 442.932 177.958C441.717 178.209 441.06 179.212 440.55 180.047C440.02 180.914 440.478 182.435 440.874 183.804C441.452 185.799 445.031 184.68 447.657 184.214C449.644 183.862 448.63 180.902 448.504 179.939C448.358 179.483 448.046 179.094 447.641 178.873C447.236 178.652 446.747 178.61 445.835 178.43" stroke="white" stroke-width="30.2345" stroke-linecap="round"/>
<path d="M452.064 212.13C452.601 211.965 454.412 211.592 457.322 211.888C459.302 212.089 460.946 211.654 466.904 209.715C468.087 209.33 467.986 208.753 467.891 208.34C467.797 207.928 467.651 207.537 467.355 207.266C465.547 205.607 459.832 207.404 456.469 208.032C453.115 208.659 450.706 210.284 450.084 211.451C449.809 211.967 449.767 212.407 449.817 212.827C449.866 213.248 450.046 213.656 450.484 213.857C452.529 214.796 454.378 214.173 456.297 214.409C457.951 214.612 459.622 214.271 461.618 213.81C463.402 213.529 464.626 213.322 465.485 213.095C465.957 212.969 466.504 212.821 467.225 211.639" stroke="#D2BCCC" stroke-width="9.07035" stroke-linecap="round"/>
<path d="M333.472 213.612C334.034 213.612 335.873 213.785 338.575 214.918C340.413 215.69 342.111 215.754 348.369 215.64C349.611 215.618 349.679 215.036 349.706 214.613C349.734 214.191 349.705 213.773 349.5 213.428C348.242 211.311 342.258 211.36 338.859 210.978C335.47 210.597 332.699 211.449 331.771 212.384C331.36 212.798 331.195 213.206 331.122 213.623C331.049 214.04 331.105 214.484 331.466 214.804C333.156 216.301 335.104 216.245 336.874 217.032C338.4 217.711 340.096 217.873 342.139 218.016C343.927 218.268 345.158 218.428 346.045 218.462C346.533 218.479 347.099 218.497 348.127 217.576" stroke="#D2BCCC" stroke-width="9.07035" stroke-linecap="round"/>
<path d="M391.657 218.779C391.831 218.884 393.868 220.503 395.81 221.986C397.098 222.969 399.494 223.42 401.715 223.804C406.042 224.553 407.079 223.673 407.956 223.327C409.025 222.904 410.084 222.115 410.883 221.401C412.374 220.109 413.105 219.296 413.763 218.378C413.911 218.16 414.024 217.976 414.326 217.432" stroke="white" stroke-width="6.0469" stroke-linecap="round"/>
<path d="M460.988 178.447C460.965 178.45 460.529 178.478 459.796 178.667C459.459 178.754 459.308 179.126 459.24 179.483C459.172 179.841 459.222 180.249 459.342 180.575C459.462 180.901 459.651 181.132 459.892 181.284C460.134 181.435 460.423 181.5 460.646 181.378C461.709 180.795 461.555 179.402 461.541 178.748C461.535 178.435 461.302 178.186 461.046 178.015C460.516 177.662 459.821 177.567 459.26 177.488C458.999 177.53 458.786 177.736 458.652 177.994C458.518 178.253 458.469 178.557 458.287 179.338" stroke="black" stroke-width="15.1173" stroke-linecap="round"/>
<path d="M364.125 182.088C364.102 182.088 363.666 182.061 362.916 182.158C362.571 182.202 362.375 182.552 362.264 182.898C362.154 183.244 362.153 183.656 362.233 183.995C362.312 184.333 362.471 184.586 362.693 184.766C362.914 184.947 363.193 185.047 363.429 184.954C364.556 184.508 364.572 183.106 364.638 182.456C364.67 182.144 364.469 181.868 364.236 181.667C363.753 181.25 363.074 181.069 362.527 180.921C362.263 180.929 362.027 181.108 361.862 181.347C361.698 181.587 361.613 181.883 361.337 182.635" stroke="black" stroke-width="15.1173" stroke-linecap="round"/>
<path d="M362.822 179.777H362.854" stroke="black" stroke-width="15.1173" stroke-linecap="round"/>
<path d="M458.134 174.668C458.137 174.691 458.322 174.45 458.488 174.169C458.505 174.14 458.241 174.344 458.203 174.576C458.165 174.808 458.324 175.063 458.443 175.046C458.561 175.029 458.635 174.731 458.347 174.342" stroke="white" stroke-width="3.02345" stroke-linecap="round"/>
<path d="M361.55 178.106C361.55 178.129 361.763 177.913 361.962 177.655C361.982 177.628 361.696 177.798 361.63 178.024C361.564 178.249 361.69 178.522 361.81 178.52C361.93 178.517 362.039 178.231 361.801 177.809" stroke="white" stroke-width="3.02345" stroke-linecap="round"/>
<defs>
<filter id="filter0_d_324_1878" x="406.325" y="43.8613" width="484.28" height="403.736" filterUnits="userSpaceOnUse" color-interpolation-filters="sRGB">
<feFlood flood-opacity="0" result="BackgroundImageFix"/>
<feColorMatrix in="SourceAlpha" type="matrix" values="0 0 0 0 0 0 0 0 0 0 0 0 0 0 0 0 0 0 127 0" result="hardAlpha"/>
<feOffset dy="11.0924"/>
<feGaussianBlur stdDeviation="5.54622"/>
<feComposite in2="hardAlpha" operator="out"/>
<feColorMatrix type="matrix" values="0 0 0 0 0 0 0 0 0 0 0 0 0 0 0 0 0 0 0.25 0"/>
<feBlend mode="normal" in2="BackgroundImageFix" result="effect1_dropShadow_324_1878"/>
<feBlend mode="normal" in="SourceGraphic" in2="effect1_dropShadow_324_1878" result="shape"/>
</filter>
<filter id="filter1_d_324_1878" x="-26.5249" y="0" width="342.306" height="438.075" filterUnits="userSpaceOnUse" color-interpolation-filters="sRGB">
<feFlood flood-opacity="0" result="BackgroundImageFix"/>
<feColorMatrix in="SourceAlpha" type="matrix" values="0 0 0 0 0 0 0 0 0 0 0 0 0 0 0 0 0 0 127 0" result="hardAlpha"/>
<feOffset dy="11.8975"/>
<feGaussianBlur stdDeviation="5.94874"/>
<feComposite in2="hardAlpha" operator="out"/>
<feColorMatrix type="matrix" values="0 0 0 0 0 0 0 0 0 0 0 0 0 0 0 0 0 0 0.25 0"/>
<feBlend mode="normal" in2="BackgroundImageFix" result="effect1_dropShadow_324_1878"/>
<feBlend mode="normal" in="SourceGraphic" in2="effect1_dropShadow_324_1878" result="shape"/>
</filter>
</defs>
</svg>
