<svg width="504" height="380" viewBox="0 0 504 380" fill="none" xmlns="http://www.w3.org/2000/svg">
<g filter="url(#filter0_d_285_1687)">
<path d="M215.694 247.523C215.887 247.523 178.729 247.523 119.874 247.454C83.963 247.411 68.2753 245.398 56.1342 243.872C44.0233 242.35 36.5869 236.383 31.0464 230.316C28.026 227.009 28.4114 222.272 28.9398 217.879C29.8195 210.563 45.3445 199.661 58.9959 187.762C69.2291 178.842 84.541 170.821 94.0804 164.601C101.927 159.485 107.691 152.936 116.516 145.973C124.628 139.571 136.277 134.151 145.092 129.283C155.423 123.578 163.765 113.457 170.565 107.973C178.47 101.597 195.445 96.9105 210.341 92.2946C222.19 88.6232 249.394 88.2328 267.436 90.2146C278.426 91.4218 288.583 99.2633 298.53 104.414C307.23 108.919 314.687 114.73 323.178 120.539C330.944 125.852 340.888 134.093 352.974 146.196C362.51 155.745 373.82 164.751 381.878 171.103C393.812 180.51 397.109 188.914 399.004 199.394C401.693 214.274 398.434 225.418 395.194 228.019C388.026 233.772 376.491 236.129 366.488 240.513C357.669 244.378 346.859 247.753 335.425 251.177C325.499 254.149 313.991 255.454 301.81 257.144C290.425 258.724 278.053 259.436 262.196 260.618C245.708 261.848 231.98 262.201 202.29 262.421C175.468 262.62 124.775 262.688 97.3066 262.618C58.2528 262.519 40.9725 258.324 26.9974 256.53C15.6287 255.07 4.6079 253.93 -6.23693 250.909C-11.2308 249.517 -11.7749 245.066 -13.1009 240.614C-17.8436 224.69 -2.92284 211.77 10.5663 200.19C21.2651 191.006 33.2671 179.983 44.8629 171.19C58.7152 160.685 68.9188 151.07 85.6756 139.531C100.332 129.438 112.806 121.648 141.444 109.123C154.569 103.383 165.544 99.9143 177.754 97.3719C189.078 95.014 200.113 94.9212 210.842 93.9663C213.561 93.7482 216.232 93.4588 221.446 93.3077C226.661 93.1566 234.338 93.1525 245.957 95.0503" stroke="#86A09C" stroke-width="178.065" stroke-linecap="round"/>
<path d="M22.8448 147.121C22.79 147.121 22.108 147.412 21.1127 148.204C20.6378 148.583 20.7622 149.411 21.0785 149.626C21.8741 150.166 23.3392 148.794 24.4173 147.756C24.9479 147.246 25.0681 146.437 24.8503 145.898C24.3891 144.755 21.8458 144.689 19.3139 144.885C17.4925 145.027 16.3531 146.356 15.4579 147.469C14.5287 148.624 14.9251 150.902 15.2588 152.951C15.7452 155.937 21.1752 154.969 25.0961 154.774C28.0618 154.626 27.1106 150.169 27.1001 148.755C26.9691 148.07 26.5828 147.453 26.0304 147.06C25.478 146.667 24.7712 146.518 23.4702 146.092" stroke="white" stroke-width="44.5161" stroke-linecap="round"/>
<path d="M167.801 145.76C167.747 145.767 167.106 146.139 166.216 147.048C165.791 147.482 166.017 148.289 166.357 148.464C167.213 148.902 168.498 147.359 169.44 146.197C169.904 145.625 169.923 144.807 169.641 144.299C169.042 143.222 166.51 143.47 164.022 143.976C162.232 144.341 161.265 145.8 160.513 147.015C159.734 148.276 160.408 150.488 160.991 152.48C161.842 155.383 167.111 153.754 170.978 153.077C173.903 152.565 172.41 148.259 172.225 146.857C172.011 146.194 171.552 145.629 170.955 145.307C170.358 144.985 169.639 144.924 168.295 144.662" stroke="white" stroke-width="44.5161" stroke-linecap="round"/>
<path d="M177.465 193.69C178.256 193.452 180.922 192.909 185.206 193.338C188.122 193.631 190.542 192.998 199.315 190.177C201.057 189.617 200.907 188.778 200.769 188.178C200.63 187.577 200.414 187.008 199.98 186.615C197.317 184.202 188.903 186.816 183.951 187.729C179.013 188.641 175.466 191.006 174.55 192.703C174.145 193.454 174.084 194.093 174.156 194.705C174.229 195.317 174.494 195.911 175.138 196.203C178.15 197.569 180.872 196.663 183.697 197.006C186.134 197.302 188.593 196.806 191.533 196.135C194.159 195.726 195.96 195.425 197.225 195.095C197.921 194.912 198.727 194.695 199.788 192.976" stroke="#86A09C" stroke-width="13.3548" stroke-linecap="round"/>
<path d="M2.85639 195.851C3.68284 195.851 6.39157 196.102 10.3691 197.751C13.0758 198.873 15.5758 198.967 24.7894 198.801C26.6185 198.768 26.7181 197.922 26.7588 197.307C26.7995 196.692 26.7573 196.086 26.4551 195.583C24.6031 192.504 15.7927 192.575 10.7875 192.019C5.79758 191.464 1.71781 192.704 0.35103 194.064C-0.254121 194.666 -0.497174 195.26 -0.604578 195.867C-0.711981 196.474 -0.629704 197.119 -0.0974323 197.585C2.3913 199.762 5.25928 199.682 7.8648 200.826C10.1115 201.813 12.6093 202.049 15.6173 202.257C18.2497 202.624 20.0614 202.857 21.3679 202.906C22.0871 202.931 22.9204 202.957 24.4332 201.618" stroke="#86A09C" stroke-width="13.3548" stroke-linecap="round"/>
<path d="M88.5261 203.366C88.7813 203.518 91.7804 205.875 94.6406 208.031C96.5369 209.461 100.065 210.118 103.335 210.677C109.705 211.766 111.232 210.486 112.523 209.982C114.097 209.367 115.657 208.219 116.834 207.181C119.028 205.3 120.105 204.118 121.073 202.782C121.291 202.465 121.457 202.198 121.903 201.406" stroke="white" stroke-width="8.90323" stroke-linecap="round"/>
<path d="M190.605 144.695C190.572 144.699 189.93 144.74 188.851 145.015C188.355 145.142 188.132 145.683 188.032 146.203C187.932 146.722 188.005 147.317 188.182 147.791C188.359 148.265 188.637 148.601 188.993 148.822C189.349 149.042 189.774 149.137 190.102 148.959C191.668 148.111 191.44 146.084 191.421 145.133C191.411 144.678 191.069 144.315 190.692 144.067C189.911 143.553 188.887 143.415 188.061 143.3C187.677 143.36 187.364 143.66 187.167 144.036C186.969 144.412 186.897 144.855 186.629 145.99" stroke="black" stroke-width="22.2581" stroke-linecap="round"/>
<path d="M47.9889 149.988C47.9552 149.988 47.313 149.95 46.2083 150.09C45.7005 150.155 45.4124 150.664 45.2493 151.168C45.0862 151.671 45.0857 152.27 45.2026 152.763C45.3196 153.255 45.5541 153.623 45.8802 153.885C46.2062 154.148 46.6168 154.294 46.964 154.158C48.6226 153.509 48.6465 151.47 48.7441 150.524C48.7909 150.071 48.4953 149.669 48.1522 149.376C47.4409 148.77 46.4418 148.506 45.6358 148.291C45.2471 148.303 44.8996 148.563 44.6575 148.911C44.4155 149.26 44.2895 149.69 43.8837 150.784" stroke="black" stroke-width="22.2581" stroke-linecap="round"/>
<path d="M46.0705 146.626H46.1205" stroke="black" stroke-width="22.2581" stroke-linecap="round"/>
<path d="M186.404 139.194C186.408 139.227 186.681 138.877 186.924 138.468C186.95 138.426 186.561 138.723 186.506 139.06C186.45 139.398 186.684 139.769 186.858 139.744C187.033 139.719 187.141 139.286 186.717 138.719" stroke="white" stroke-width="4.45161" stroke-linecap="round"/>
<path d="M44.1962 144.194C44.1962 144.227 44.5105 143.913 44.8024 143.538C44.8329 143.499 44.411 143.745 44.314 144.074C44.217 144.402 44.4031 144.799 44.5795 144.795C44.7558 144.792 44.9166 144.376 44.566 143.761" stroke="white" stroke-width="4.45161" stroke-linecap="round"/>
<path d="M182.395 192.38C177.606 192.448 163.865 193.158 159.825 194.062C158.389 194.383 157.47 195.583 157.081 196.733C155.85 200.379 165.164 203.373 170.368 204.444C179.949 206.415 184.55 202.867 188.643 200.544C190.002 199.773 189.888 197.906 189.711 196.591C189.355 193.96 182.361 193.481 177.746 192.479C172.703 191.385 166.056 192.039 162.43 193.608C161.088 194.189 160.498 195.515 160.154 196.72C159.817 197.901 160.958 199.08 162.046 199.979C164.354 201.886 169.511 202.532 174.832 204.132C180.723 205.903 184.655 202.828 188.137 200.296C188.874 199.76 189.221 198.997 189.466 198.204C189.711 197.411 189.739 196.492 189.476 195.793C188.518 193.249 184.979 193.163 180.207 192.632C172.356 191.758 166.462 192.533 165.761 192.573C163.373 192.709 173.021 191.82 183.938 191.88C186.037 191.891 186.322 192.666 186.582 193.32C187.127 194.693 187.322 196.843 187.134 199.115C186.846 202.61 179.598 202.809 174.738 202.752C173.759 202.741 173.341 201.957 173.092 201.304C172.842 200.651 172.812 199.893 173.123 199.432C174.09 198.829 175.686 198.683 176.751 198.761C176.893 198.839 176.227 198.995 174.904 199.156" stroke="#E7F7F4" stroke-width="10" stroke-linecap="round"/>
<path d="M1.27496 195.444C2.27589 195.444 9.30465 195.963 14.5039 196.673C17.3456 197.061 19.531 198.349 20.6408 199.086C21.2145 199.468 21.5734 200.046 21.8775 200.623C22.2393 201.31 22.2331 202.525 22.1363 203.782C22.0235 205.246 19.6539 206.206 17.9352 207.237C14.636 209.218 8.73893 210.296 4.85453 210.808C4.01337 210.919 3.05281 210.857 2.45531 210.716C1.85782 210.575 1.64633 210.292 1.49621 209.938C-0.036415 206.324 1.26936 200.224 1.59318 199.757C2.83034 197.973 7.74168 199.845 12.8867 201.745C13.9223 202.127 14.2238 202.405 14.4513 202.691C14.6787 202.976 14.7978 203.323 14.7609 203.643C14.7241 203.963 14.5277 204.246 14.1485 204.482C11.864 205.901 8.74231 204.858 7.26356 204.494C6.80593 204.381 6.26742 204.226 6.13962 204.106C6.01182 203.986 6.30952 203.912 6.81761 203.874C7.3257 203.836 8.03516 203.836 9.33902 203.576" stroke="#E7F7F4" stroke-width="10" stroke-linecap="round"/>
</g>
<defs>
<filter id="filter0_d_285_1687" x="-117.107" y="0" width="620.14" height="379.677" filterUnits="userSpaceOnUse" color-interpolation-filters="sRGB">
<feFlood flood-opacity="0" result="BackgroundImageFix"/>
<feColorMatrix in="SourceAlpha" type="matrix" values="0 0 0 0 0 0 0 0 0 0 0 0 0 0 0 0 0 0 127 0" result="hardAlpha"/>
<feOffset dy="14"/>
<feGaussianBlur stdDeviation="7"/>
<feComposite in2="hardAlpha" operator="out"/>
<feColorMatrix type="matrix" values="0 0 0 0 0 0 0 0 0 0 0 0 0 0 0 0 0 0 0.25 0"/>
<feBlend mode="normal" in2="BackgroundImageFix" result="effect1_dropShadow_285_1687"/>
<feBlend mode="normal" in="SourceGraphic" in2="effect1_dropShadow_285_1687" result="shape"/>
</filter>
</defs>
</svg>
