<svg width="290" height="289" viewBox="0 0 290 289" fill="none" xmlns="http://www.w3.org/2000/svg">
<g filter="url(#filter0_d_201_6708)">
<path d="M6.9873 137.28C6.9873 61.4626 69.1694 0 144.987 0C220.805 0 282.987 61.4626 282.987 137.28C282.987 213.098 220.805 274.561 144.987 274.561C69.1694 274.561 6.9873 213.098 6.9873 137.28Z" fill="#B1D4CD"/>
<path d="M153.073 132.411C153.143 132.411 139.683 132.411 118.365 132.386C105.357 132.371 99.6748 131.645 95.277 131.095C90.8903 130.547 88.1966 128.397 86.1898 126.211C85.0957 125.019 85.2353 123.312 85.4267 121.729C85.7454 119.093 91.3688 115.165 96.3136 110.877C100.02 107.663 105.567 104.772 109.022 102.531C111.864 100.688 113.952 98.3281 117.148 95.8189C120.087 93.5122 124.306 91.5591 127.499 89.8052C131.241 87.7496 134.263 84.1025 136.726 82.1264C139.589 79.829 145.738 78.1403 151.134 76.4771C155.426 75.1541 165.28 75.0135 171.815 75.7276C175.796 76.1625 179.474 78.9881 183.078 80.844C186.229 82.4674 188.93 84.5614 192.006 86.6544C194.819 88.5688 198.42 91.5382 202.798 95.8994C206.252 99.3401 210.349 102.585 213.268 104.874C217.591 108.264 218.785 111.292 219.471 115.068C220.446 120.43 219.265 124.446 218.091 125.383C215.495 127.456 211.317 128.305 207.693 129.885C204.499 131.278 200.583 132.494 196.442 133.727C192.846 134.798 188.678 135.268 184.266 135.878C180.142 136.447 175.661 136.703 169.917 137.129C163.944 137.572 158.972 137.699 148.218 137.779C138.502 137.851 120.14 137.875 110.191 137.85C96.0444 137.814 89.7852 136.303 84.7231 135.656C80.6051 135.13 76.6132 134.719 72.685 133.631C70.8761 133.129 70.679 131.525 70.1987 129.921C68.4808 124.183 73.8854 119.528 78.7714 115.355C82.6468 112.046 86.9941 108.074 91.1944 104.905C96.2119 101.12 99.9079 97.6555 105.978 93.4977C111.287 89.8609 115.805 87.0538 126.178 82.5409C130.932 80.4726 134.907 79.2227 139.33 78.3066C143.432 77.4569 147.429 77.4235 151.315 77.0794C152.3 77.0008 153.268 76.8965 155.156 76.8421C157.045 76.7876 159.826 76.7862 164.035 77.47" stroke="#86A09C" stroke-width="64.4985" stroke-linecap="round"/>
<path d="M83.2193 96.2326C83.1994 96.2326 82.9524 96.3372 82.5919 96.6228C82.4198 96.759 82.4649 97.0577 82.5795 97.1351C82.8677 97.3298 83.3984 96.8351 83.7889 96.4614C83.9811 96.2774 84.0246 95.9859 83.9457 95.7916C83.7786 95.38 82.8574 95.3561 81.9403 95.4269C81.2806 95.4777 80.8678 95.9566 80.5436 96.3577C80.207 96.7741 80.3506 97.5949 80.4715 98.3331C80.6477 99.4089 82.6145 99.0604 84.0347 98.99C85.109 98.9367 84.7644 97.3307 84.7606 96.8212C84.7132 96.5745 84.5733 96.3521 84.3732 96.2105C84.1731 96.0689 83.9171 96.015 83.4458 95.8616" stroke="white" stroke-width="16.1246" stroke-linecap="round"/>
<path d="M135.726 95.7433C135.706 95.7457 135.474 95.8798 135.151 96.2074C134.998 96.3637 135.079 96.6546 135.203 96.7173C135.513 96.8752 135.978 96.3193 136.319 95.9005C136.487 95.6944 136.494 95.3998 136.392 95.2166C136.175 94.8286 135.258 94.9179 134.357 95.1005C133.708 95.2318 133.358 95.7577 133.086 96.1954C132.803 96.6498 133.048 97.4468 133.259 98.1646C133.567 99.2107 135.476 98.6237 136.876 98.3797C137.936 98.1952 137.395 96.6437 137.328 96.1385C137.251 95.8995 137.084 95.6959 136.868 95.58C136.652 95.464 136.391 95.4418 135.905 95.3474" stroke="white" stroke-width="16.1246" stroke-linecap="round"/>
<path d="M139.226 113.013C139.513 112.926 140.478 112.731 142.03 112.886C143.086 112.991 143.963 112.763 147.141 111.747C147.772 111.545 147.718 111.243 147.667 111.026C147.617 110.81 147.539 110.605 147.382 110.463C146.417 109.594 143.369 110.535 141.576 110.865C139.787 111.193 138.502 112.045 138.17 112.657C138.024 112.927 138.002 113.158 138.028 113.378C138.054 113.599 138.15 113.813 138.383 113.918C139.474 114.41 140.46 114.084 141.484 114.207C142.366 114.314 143.257 114.135 144.322 113.894C145.273 113.746 145.926 113.638 146.384 113.519C146.636 113.453 146.928 113.375 147.312 112.755" stroke="#86A09C" stroke-width="4.83739" stroke-linecap="round"/>
<path d="M75.9794 113.791C76.2788 113.791 77.2599 113.882 78.7007 114.476C79.6811 114.88 80.5866 114.914 83.924 114.854C84.5865 114.842 84.6226 114.538 84.6374 114.316C84.6521 114.094 84.6368 113.876 84.5273 113.695C83.8565 112.585 80.6652 112.611 78.8522 112.41C77.0448 112.211 75.567 112.657 75.0719 113.147C74.8527 113.364 74.7647 113.578 74.7258 113.797C74.6869 114.016 74.7167 114.248 74.9095 114.416C75.8109 115.201 76.8498 115.172 77.7936 115.584C78.6074 115.94 79.5121 116.025 80.6017 116.099C81.5552 116.232 82.2114 116.316 82.6846 116.333C82.9451 116.343 83.247 116.352 83.795 115.869" stroke="#86A09C" stroke-width="4.83739" stroke-linecap="round"/>
<path d="M107.011 116.499C107.103 116.554 108.19 117.403 109.226 118.18C109.913 118.696 111.19 118.932 112.375 119.134C114.682 119.526 115.235 119.065 115.703 118.883C116.273 118.661 116.838 118.248 117.265 117.874C118.059 117.196 118.449 116.77 118.8 116.289C118.879 116.175 118.939 116.078 119.101 115.793" stroke="white" stroke-width="3.22493" stroke-linecap="round"/>
<path d="M143.986 95.3581C143.974 95.3596 143.741 95.3744 143.35 95.4735C143.171 95.5191 143.09 95.7142 143.054 95.9014C143.018 96.0887 143.044 96.3028 143.108 96.4737C143.172 96.6446 143.273 96.7657 143.402 96.8451C143.531 96.9246 143.685 96.9586 143.804 96.8946C144.371 96.589 144.288 95.8586 144.281 95.516C144.278 95.3519 144.154 95.2213 144.017 95.1319C143.735 94.9466 143.364 94.8968 143.064 94.8556C142.925 94.8772 142.812 94.9854 142.74 95.1208C142.669 95.2562 142.643 95.4156 142.546 95.8249" stroke="black" stroke-width="8.06232" stroke-linecap="round"/>
<path d="M92.3268 97.2657C92.3146 97.2657 92.082 97.2519 91.6819 97.3024C91.4979 97.3256 91.3936 97.5092 91.3345 97.6906C91.2754 97.872 91.2752 98.0878 91.3176 98.2653C91.36 98.4427 91.4449 98.5752 91.563 98.6698C91.6811 98.7645 91.8298 98.8171 91.9556 98.7682C92.5564 98.5344 92.565 97.7995 92.6004 97.4586C92.6173 97.2953 92.5103 97.1505 92.386 97.0451C92.1283 96.8265 91.7664 96.7317 91.4745 96.6541C91.3337 96.6585 91.2078 96.7519 91.1201 96.8775C91.0325 97.0032 90.9869 97.1582 90.8398 97.5525" stroke="black" stroke-width="8.06232" stroke-linecap="round"/>
<path d="M91.6318 96.0552H91.6496" stroke="black" stroke-width="8.06232" stroke-linecap="round"/>
<path d="M142.464 93.376C142.465 93.3877 142.564 93.2615 142.653 93.1145C142.662 93.0991 142.521 93.206 142.501 93.3277C142.481 93.4494 142.565 93.5832 142.629 93.5741C142.692 93.565 142.731 93.409 142.578 93.2048" stroke="white" stroke-width="1.61246" stroke-linecap="round"/>
<path d="M90.9541 95.1784C90.9541 95.1901 91.068 95.0771 91.1737 94.9419C91.1847 94.9278 91.0319 95.0167 90.9968 95.135C90.9617 95.2533 91.0291 95.3964 91.0929 95.3951C91.1568 95.3938 91.2151 95.2438 91.088 95.0224" stroke="white" stroke-width="1.61246" stroke-linecap="round"/>
<path d="M153.073 132.411C153.143 132.411 139.683 132.411 118.365 132.386C105.357 132.371 99.6748 131.645 95.277 131.095C90.8903 130.547 88.1966 128.397 86.1898 126.211C85.0957 125.019 85.2353 123.312 85.4267 121.729C85.7454 119.093 91.3688 115.165 96.3136 110.877C100.02 107.663 105.567 104.772 109.022 102.531C111.864 100.688 113.952 98.3281 117.148 95.8189C120.087 93.5122 124.306 91.5591 127.499 89.8052C131.241 87.7496 134.263 84.1025 136.726 82.1264C139.589 79.829 145.738 78.1403 151.134 76.4771C155.426 75.1541 165.28 75.0135 171.815 75.7276C175.796 76.1625 179.474 78.9881 183.078 80.844C186.229 82.4674 188.93 84.5614 192.006 86.6544C194.819 88.5688 198.42 91.5382 202.798 95.8994C206.252 99.3401 210.349 102.585 213.268 104.874C217.591 108.264 218.785 111.292 219.471 115.068C220.446 120.43 219.265 124.446 218.091 125.383C215.495 127.456 211.317 128.305 207.693 129.885C204.499 131.278 200.583 132.494 196.442 133.727C192.846 134.798 188.678 135.268 184.266 135.878C180.142 136.447 175.661 136.703 169.917 137.129C163.944 137.572 158.972 137.699 148.218 137.779C138.502 137.851 120.14 137.875 110.191 137.85C96.0444 137.814 89.7852 136.303 84.7231 135.656C80.6051 135.13 76.6132 134.719 72.685 133.631C70.8761 133.129 70.679 131.525 70.1987 129.921C68.4808 124.183 73.8854 119.528 78.7714 115.355C82.6468 112.046 86.9941 108.074 91.1944 104.905C96.2119 101.12 99.9079 97.6555 105.978 93.4977C111.287 89.8609 115.805 87.0538 126.178 82.5409C130.932 80.4726 134.907 79.2227 139.33 78.3066C143.432 77.4569 147.429 77.4235 151.315 77.0794C152.3 77.0008 153.268 76.8965 155.156 76.8421C157.045 76.7876 159.826 76.7862 164.035 77.47" stroke="#86A09C" stroke-width="64.4985" stroke-linecap="round"/>
<path d="M83.2193 96.2326C83.1994 96.2326 82.9524 96.3372 82.5919 96.6228C82.4198 96.759 82.4649 97.0577 82.5795 97.1351C82.8677 97.3298 83.3984 96.8351 83.7889 96.4614C83.9811 96.2774 84.0246 95.9859 83.9457 95.7916C83.7786 95.38 82.8574 95.3561 81.9403 95.4269C81.2806 95.4777 80.8678 95.9566 80.5436 96.3577C80.207 96.7741 80.3506 97.5949 80.4715 98.3331C80.6477 99.4089 82.6145 99.0604 84.0347 98.99C85.109 98.9367 84.7644 97.3307 84.7606 96.8212C84.7132 96.5745 84.5733 96.3521 84.3732 96.2105C84.1731 96.0689 83.9171 96.015 83.4458 95.8616" stroke="white" stroke-width="16.1246" stroke-linecap="round"/>
<path d="M135.726 95.7433C135.706 95.7457 135.474 95.8798 135.151 96.2074C134.998 96.3637 135.079 96.6546 135.203 96.7173C135.513 96.8752 135.978 96.3193 136.319 95.9005C136.487 95.6944 136.494 95.3998 136.392 95.2166C136.175 94.8286 135.258 94.9179 134.357 95.1005C133.708 95.2318 133.358 95.7577 133.086 96.1954C132.803 96.6498 133.048 97.4468 133.259 98.1646C133.567 99.2107 135.476 98.6237 136.876 98.3797C137.936 98.1952 137.395 96.6437 137.328 96.1385C137.251 95.8995 137.084 95.6959 136.868 95.58C136.652 95.464 136.391 95.4418 135.905 95.3474" stroke="white" stroke-width="16.1246" stroke-linecap="round"/>
<path d="M139.226 113.013C139.513 112.926 140.478 112.731 142.03 112.886C143.086 112.991 143.963 112.763 147.141 111.747C147.772 111.545 147.718 111.243 147.667 111.026C147.617 110.81 147.539 110.605 147.382 110.463C146.417 109.594 143.369 110.535 141.576 110.865C139.787 111.193 138.502 112.045 138.17 112.657C138.024 112.927 138.002 113.158 138.028 113.378C138.054 113.599 138.15 113.813 138.383 113.918C139.474 114.41 140.46 114.084 141.484 114.207C142.366 114.314 143.257 114.135 144.322 113.894C145.273 113.746 145.926 113.638 146.384 113.519C146.636 113.453 146.928 113.375 147.312 112.755" stroke="#86A09C" stroke-width="4.83739" stroke-linecap="round"/>
<path d="M75.9794 113.791C76.2788 113.791 77.2599 113.882 78.7007 114.476C79.6811 114.88 80.5866 114.914 83.924 114.854C84.5865 114.842 84.6226 114.538 84.6374 114.316C84.6521 114.094 84.6368 113.876 84.5273 113.695C83.8565 112.585 80.6652 112.611 78.8522 112.41C77.0448 112.211 75.567 112.657 75.0719 113.147C74.8527 113.364 74.7647 113.578 74.7258 113.797C74.6869 114.016 74.7167 114.248 74.9095 114.416C75.8109 115.201 76.8498 115.172 77.7936 115.584C78.6074 115.94 79.5121 116.025 80.6017 116.099C81.5552 116.232 82.2114 116.316 82.6846 116.333C82.9451 116.343 83.247 116.352 83.795 115.869" stroke="#86A09C" stroke-width="4.83739" stroke-linecap="round"/>
<path d="M107.011 116.499C107.103 116.554 108.19 117.403 109.226 118.18C109.913 118.696 111.19 118.932 112.375 119.134C114.682 119.526 115.235 119.065 115.703 118.883C116.273 118.661 116.838 118.248 117.265 117.874C118.059 117.196 118.449 116.77 118.8 116.289C118.879 116.175 118.939 116.078 119.101 115.793" stroke="white" stroke-width="3.22493" stroke-linecap="round"/>
<path d="M143.986 95.3581C143.974 95.3596 143.741 95.3744 143.35 95.4735C143.171 95.5191 143.09 95.7142 143.054 95.9014C143.018 96.0887 143.044 96.3028 143.108 96.4737C143.172 96.6446 143.273 96.7657 143.402 96.8451C143.531 96.9246 143.685 96.9586 143.804 96.8946C144.371 96.589 144.288 95.8586 144.281 95.516C144.278 95.3519 144.154 95.2213 144.017 95.1319C143.735 94.9466 143.364 94.8968 143.064 94.8556C142.925 94.8772 142.812 94.9854 142.74 95.1208C142.669 95.2562 142.643 95.4156 142.546 95.8249" stroke="black" stroke-width="8.06232" stroke-linecap="round"/>
<path d="M92.3268 97.2657C92.3146 97.2657 92.082 97.2519 91.6819 97.3024C91.4979 97.3256 91.3936 97.5092 91.3345 97.6906C91.2754 97.872 91.2752 98.0878 91.3176 98.2653C91.36 98.4427 91.4449 98.5752 91.563 98.6698C91.6811 98.7645 91.8298 98.8171 91.9556 98.7682C92.5564 98.5344 92.565 97.7995 92.6004 97.4586C92.6173 97.2953 92.5103 97.1505 92.386 97.0451C92.1283 96.8265 91.7664 96.7317 91.4745 96.6541C91.3337 96.6585 91.2078 96.7519 91.1201 96.8775C91.0325 97.0032 90.9869 97.1582 90.8398 97.5525" stroke="black" stroke-width="8.06232" stroke-linecap="round"/>
<path d="M91.6318 96.0552H91.6496" stroke="black" stroke-width="8.06232" stroke-linecap="round"/>
<path d="M142.464 93.376C142.465 93.3877 142.564 93.2615 142.653 93.1145C142.662 93.0991 142.521 93.206 142.501 93.3277C142.481 93.4494 142.565 93.5832 142.629 93.5741C142.692 93.565 142.731 93.409 142.578 93.2048" stroke="white" stroke-width="1.61246" stroke-linecap="round"/>
<path d="M90.9541 95.1784C90.9541 95.1901 91.068 95.0771 91.1737 94.9419C91.1847 94.9278 91.0319 95.0167 90.9968 95.135C90.9617 95.2533 91.0291 95.3964 91.0929 95.3951C91.1568 95.3938 91.2151 95.2438 91.088 95.0224" stroke="white" stroke-width="1.61246" stroke-linecap="round"/>
<path d="M113.49 203.327C113.49 204.119 113.233 204.717 112.721 205.121C112.209 205.525 111.471 205.804 110.508 205.959C110.555 206.767 110.578 207.761 110.578 208.941C110.578 211.58 110.058 213.56 109.018 214.88C107.977 216.2 106.378 216.86 104.22 216.86C103.164 216.86 102.224 216.65 101.402 216.231C100.579 215.796 99.9419 215.221 99.4916 214.507C99.0413 213.793 98.8162 213.032 98.8162 212.225C98.8162 211.464 99.0258 210.866 99.445 210.431C99.8798 209.996 100.384 209.779 100.959 209.779C101.502 209.779 101.898 209.888 102.147 210.105C102.411 210.307 102.644 210.602 102.846 210.99C103.016 211.285 103.172 211.503 103.311 211.642C103.467 211.782 103.684 211.852 103.964 211.852C104.476 211.852 104.802 211.596 104.942 211.083C105.097 210.571 105.175 209.701 105.175 208.475V207.497V206.076C103.793 206.014 102.714 205.781 101.937 205.377C101.176 204.973 100.796 204.29 100.796 203.327C100.796 202.505 101.075 201.891 101.634 201.487C102.209 201.084 102.931 200.828 103.8 200.719C104.686 200.61 105.804 200.556 107.154 200.556C108.505 200.556 109.616 200.61 110.485 200.719C111.355 200.828 112.069 201.084 112.628 201.487C113.202 201.891 113.49 202.505 113.49 203.327ZM118.878 216.86C117.744 216.86 116.75 216.58 115.896 216.021C115.042 215.447 114.382 214.655 113.917 213.645C113.466 212.621 113.241 211.441 113.241 210.105C113.241 208.801 113.451 207.776 113.87 207.031C114.289 206.285 114.872 205.913 115.617 205.913C116.937 205.913 117.597 206.588 117.597 207.939C117.597 208.219 117.589 208.467 117.573 208.684C117.558 208.886 117.542 209.065 117.527 209.22C117.465 209.841 117.434 210.338 117.434 210.711C117.434 211.394 117.573 211.914 117.853 212.271C118.132 212.628 118.474 212.807 118.878 212.807C119.297 212.807 119.639 212.636 119.902 212.295C120.182 211.937 120.322 211.409 120.322 210.711C120.322 210.214 120.298 209.756 120.252 209.337C120.236 209.197 120.221 208.995 120.205 208.731C120.19 208.452 120.182 208.195 120.182 207.962C120.182 206.596 120.842 205.913 122.162 205.913C122.907 205.913 123.482 206.285 123.885 207.031C124.305 207.761 124.514 208.785 124.514 210.105C124.514 212.17 124.033 213.816 123.07 215.043C122.107 216.254 120.71 216.86 118.878 216.86ZM129.413 216.813C128.637 216.813 128.055 216.526 127.666 215.951C127.278 215.377 127.014 214.531 126.875 213.413C126.75 212.279 126.688 210.703 126.688 208.684C126.688 206.743 126.735 205.23 126.828 204.143C126.937 203.056 127.185 202.186 127.573 201.534C127.977 200.882 128.598 200.556 129.437 200.556C130.275 200.556 130.888 200.882 131.277 201.534C131.68 202.186 131.929 203.056 132.022 204.143C132.131 205.23 132.185 206.743 132.185 208.684C132.185 210.594 132.1 212.139 131.929 213.319C131.773 214.484 131.494 215.361 131.09 215.951C130.687 216.526 130.128 216.813 129.413 216.813ZM139.908 216.86C138.759 216.86 137.742 216.634 136.857 216.184C135.972 215.734 135.281 215.105 134.784 214.298C134.303 213.475 134.062 212.551 134.062 211.526C134.062 210.517 134.303 209.585 134.784 208.731C135.281 207.877 135.964 207.194 136.834 206.681C137.703 206.169 138.689 205.913 139.792 205.913C140.786 205.913 141.663 206.115 142.424 206.518C143.185 206.922 143.767 207.458 144.171 208.125C144.574 208.778 144.776 209.461 144.776 210.175C144.776 211.34 144.334 212.194 143.449 212.737C142.579 213.265 141.539 213.529 140.328 213.529C139.52 213.529 138.837 213.428 138.278 213.226C138.744 213.987 139.512 214.367 140.584 214.367C141.019 214.367 141.484 214.313 141.981 214.204C142.168 214.158 142.346 214.135 142.517 214.135C142.859 214.135 143.13 214.22 143.332 214.391C143.549 214.562 143.658 214.794 143.658 215.089C143.658 215.571 143.363 215.99 142.773 216.347C142.183 216.689 141.228 216.86 139.908 216.86ZM138.348 210.385C138.488 210.602 138.674 210.765 138.907 210.874C139.155 210.967 139.427 211.014 139.722 211.014C140.064 211.014 140.359 210.936 140.607 210.781C140.871 210.625 141.003 210.423 141.003 210.175C141.003 209.896 140.887 209.655 140.654 209.453C140.436 209.251 140.118 209.15 139.699 209.15C139.279 209.15 138.946 209.282 138.697 209.546C138.464 209.795 138.348 210.074 138.348 210.385ZM154.437 207.59C155.958 207.621 157.053 207.784 157.721 208.079C158.404 208.374 158.745 208.941 158.745 209.779C158.745 210.602 158.396 211.161 157.697 211.456C157.014 211.736 155.943 211.891 154.483 211.922L154.506 213.762C154.522 214.057 154.53 214.468 154.53 214.996C154.53 215.664 154.343 216.138 153.971 216.417C153.598 216.681 153.163 216.813 152.666 216.813C151.812 216.813 151.191 216.386 150.803 215.532C150.415 214.678 150.174 213.459 150.081 211.875C149.072 211.798 148.319 211.604 147.822 211.293C147.34 210.982 147.1 210.478 147.1 209.779C147.1 209.08 147.34 208.576 147.822 208.265C148.319 207.939 149.072 207.729 150.081 207.636C150.174 206.13 150.399 204.865 150.757 203.84C151.114 202.815 151.696 202.015 152.503 201.441C153.311 200.851 154.398 200.556 155.764 200.556C156.618 200.556 157.325 200.758 157.884 201.161C158.458 201.55 158.745 202.116 158.745 202.862C158.745 203.638 158.505 204.228 158.023 204.632C157.558 205.02 156.913 205.292 156.09 205.447C155.547 205.556 155.151 205.796 154.902 206.169C154.654 206.526 154.499 207 154.437 207.59ZM162.449 205.563C161.688 205.563 161.043 205.292 160.516 204.748C159.988 204.189 159.724 203.514 159.724 202.722C159.724 201.946 159.988 201.286 160.516 200.742C161.043 200.183 161.688 199.904 162.449 199.904C163.194 199.904 163.831 200.183 164.359 200.742C164.902 201.286 165.174 201.946 165.174 202.722C165.174 203.514 164.902 204.189 164.359 204.748C163.831 205.292 163.194 205.563 162.449 205.563ZM162.449 216.86C161.812 216.86 161.338 216.681 161.028 216.324C160.733 215.951 160.531 215.4 160.422 214.67C160.329 213.925 160.283 212.869 160.283 211.503C160.283 210.354 160.337 209.445 160.446 208.778C160.57 208.11 160.787 207.613 161.098 207.287C161.408 206.961 161.859 206.798 162.449 206.798C163.085 206.798 163.551 206.984 163.846 207.357C164.157 207.714 164.359 208.265 164.452 209.011C164.56 209.74 164.615 210.788 164.615 212.155C164.615 213.304 164.553 214.212 164.428 214.88C164.32 215.548 164.11 216.044 163.8 216.371C163.489 216.697 163.039 216.86 162.449 216.86ZM170.232 216.813C169.456 216.813 168.873 216.526 168.485 215.951C168.097 215.377 167.833 214.531 167.693 213.413C167.569 212.279 167.507 210.703 167.507 208.684C167.507 206.743 167.553 205.23 167.647 204.143C167.755 203.056 168.004 202.186 168.392 201.534C168.796 200.882 169.417 200.556 170.255 200.556C171.094 200.556 171.707 200.882 172.095 201.534C172.499 202.186 172.747 203.056 172.841 204.143C172.949 205.23 173.004 206.743 173.004 208.684C173.004 210.594 172.918 212.139 172.747 213.319C172.592 214.484 172.313 215.361 171.909 215.951C171.505 216.526 170.946 216.813 170.232 216.813ZM183.185 216.86C182.471 216.86 181.982 216.619 181.718 216.138C181.454 215.656 181.322 214.919 181.322 213.925C181.322 213.195 181.314 212.675 181.298 212.364C181.283 212.038 181.221 211.767 181.112 211.549C181.019 211.332 180.848 211.223 180.6 211.223C180.305 211.223 180.087 211.324 179.947 211.526C179.808 211.712 179.722 211.961 179.691 212.271C179.676 212.566 179.668 213.017 179.668 213.622C179.668 214.367 179.637 214.958 179.575 215.392C179.513 215.812 179.35 216.161 179.086 216.44C178.822 216.704 178.41 216.836 177.851 216.836C176.174 216.836 175.336 214.709 175.336 210.455C175.336 209.011 175.46 207.893 175.708 207.101C175.972 206.293 176.462 205.789 177.176 205.587C177.44 205.509 177.68 205.47 177.898 205.47C178.224 205.47 178.519 205.54 178.783 205.68C179.047 205.82 179.233 206.014 179.342 206.262C179.559 206.138 179.777 206.045 179.994 205.983C180.211 205.921 180.522 205.889 180.926 205.889C181.423 205.889 181.888 206.014 182.323 206.262C182.773 206.495 183.092 206.829 183.278 207.264C183.682 206.798 184.085 206.456 184.489 206.239C184.908 206.006 185.444 205.889 186.096 205.889C187.059 205.889 187.897 206.177 188.612 206.751C189.342 207.31 189.901 208.087 190.289 209.08C190.692 210.059 190.894 211.146 190.894 212.341C190.894 213.676 190.716 214.763 190.359 215.602C190.001 216.44 189.38 216.86 188.495 216.86C187.905 216.86 187.478 216.712 187.214 216.417C186.966 216.122 186.811 215.757 186.748 215.322C186.702 214.872 186.679 214.22 186.679 213.366C186.679 212.621 186.624 212.077 186.516 211.736C186.407 211.394 186.151 211.223 185.747 211.223C185.452 211.223 185.266 211.386 185.188 211.712C185.11 212.023 185.071 212.543 185.071 213.273C185.056 213.413 185.048 213.63 185.048 213.925C185.017 214.919 184.87 215.656 184.606 216.138C184.342 216.619 183.868 216.86 183.185 216.86Z" fill="#4A5A58"/>
</g>
<defs>
<filter id="filter0_d_201_6708" x="-3.71933e-05" y="0" width="289.975" height="288.536" filterUnits="userSpaceOnUse" color-interpolation-filters="sRGB">
<feFlood flood-opacity="0" result="BackgroundImageFix"/>
<feColorMatrix in="SourceAlpha" type="matrix" values="0 0 0 0 0 0 0 0 0 0 0 0 0 0 0 0 0 0 127 0" result="hardAlpha"/>
<feOffset dy="6.98734"/>
<feGaussianBlur stdDeviation="3.49367"/>
<feComposite in2="hardAlpha" operator="out"/>
<feColorMatrix type="matrix" values="0 0 0 0 0 0 0 0 0 0 0 0 0 0 0 0 0 0 0.25 0"/>
<feBlend mode="normal" in2="BackgroundImageFix" result="effect1_dropShadow_201_6708"/>
<feBlend mode="normal" in="SourceGraphic" in2="effect1_dropShadow_201_6708" result="shape"/>
</filter>
</defs>
</svg>
