<svg width="288" height="287" viewBox="0 0 288 287" fill="none" xmlns="http://www.w3.org/2000/svg">
<g filter="url(#filter0_d_458_1769)">
<path d="M6 137.28C6 61.4626 68.1821 0 144 0C219.818 0 282 61.4626 282 137.28C282 213.098 219.818 274.561 144 274.561C68.1821 274.561 6 213.098 6 137.28Z" fill="#B1D4CD"/>
<path d="M152.086 132.411C152.156 132.411 138.696 132.411 117.378 132.386C104.37 132.371 98.6877 131.645 94.29 131.095C89.9032 130.547 87.2096 128.397 85.2027 126.211C84.1086 125.019 84.2483 123.312 84.4396 121.729C84.7583 119.093 90.3818 115.165 95.3266 110.877C99.0332 107.663 104.58 104.773 108.035 102.531C110.877 100.688 112.965 98.3284 116.161 95.8192C119.1 93.5124 123.319 91.5593 126.512 89.8055C130.254 87.7498 133.276 84.1028 135.739 82.1266C138.602 79.8293 144.751 78.1405 150.147 76.4773C154.439 75.1544 164.293 75.0137 170.828 75.7278C174.808 76.1628 178.487 78.9883 182.09 80.8442C185.242 82.4676 187.943 84.5617 191.018 86.6546C193.832 88.5691 197.433 91.5384 201.811 95.8997C205.265 99.3403 209.362 102.585 212.281 104.874C216.604 108.264 217.798 111.292 218.484 115.068C219.458 120.43 218.278 124.446 217.104 125.383C214.508 127.456 210.33 128.305 206.706 129.885C203.512 131.278 199.596 132.494 195.455 133.728C191.859 134.799 187.691 135.269 183.279 135.878C179.155 136.447 174.673 136.703 168.93 137.13C162.957 137.573 157.985 137.7 147.231 137.779C137.515 137.851 119.153 137.876 109.203 137.85C95.0574 137.814 88.7981 136.303 83.7361 135.656C79.6181 135.13 75.6261 134.72 71.6979 133.631C69.889 133.13 69.692 131.526 69.2116 129.921C67.4938 124.184 72.8984 119.528 77.7844 115.356C81.6597 112.046 86.0071 108.074 90.2073 104.906C95.2249 101.12 98.9208 97.6557 104.99 93.4979C110.299 89.8611 114.818 87.0541 125.191 82.5412C129.945 80.4729 133.92 79.2229 138.343 78.3068C142.445 77.4572 146.442 77.4237 150.328 77.0797C151.313 77.0011 152.281 76.8968 154.169 76.8423C156.058 76.7879 158.839 76.7864 163.048 77.4702" stroke="#86A09C" stroke-width="64.4985" stroke-linecap="round"/>
<path d="M82.2324 96.2328C82.2125 96.2328 81.9655 96.3375 81.605 96.623C81.4329 96.7593 81.478 97.0579 81.5926 97.1353C81.8808 97.33 82.4115 96.8354 82.802 96.4616C82.9942 96.2777 83.0377 95.9862 82.9588 95.7918C82.7917 95.3802 81.8705 95.3564 80.9534 95.4271C80.2937 95.478 79.8809 95.9569 79.5567 96.358C79.2201 96.7743 79.3637 97.5951 79.4846 98.3334C79.6608 99.4092 81.6276 99.0606 83.0478 98.9902C84.1221 98.937 83.7775 97.331 83.7737 96.8214C83.7263 96.5747 83.5864 96.3523 83.3863 96.2107C83.1862 96.0692 82.9302 96.0152 82.4589 95.8619" stroke="white" stroke-width="16.1246" stroke-linecap="round"/>
<path d="M134.738 95.7434C134.719 95.7458 134.487 95.88 134.164 96.2075C134.01 96.3639 134.092 96.6547 134.215 96.7175C134.525 96.8754 134.991 96.3194 135.332 95.9006C135.5 95.6945 135.507 95.3999 135.405 95.2168C135.188 94.8287 134.271 94.918 133.369 95.1006C132.721 95.232 132.371 95.7578 132.099 96.1955C131.816 96.65 132.06 97.4469 132.272 98.1647C132.58 99.2108 134.489 98.6238 135.889 98.3799C136.949 98.1954 136.408 96.6438 136.341 96.1386C136.263 95.8996 136.097 95.696 135.881 95.5801C135.665 95.4641 135.404 95.4419 134.917 95.3475" stroke="white" stroke-width="16.1246" stroke-linecap="round"/>
<path d="M138.239 113.013C138.526 112.927 139.491 112.731 141.043 112.886C142.099 112.991 142.976 112.763 146.154 111.747C146.785 111.545 146.731 111.243 146.68 111.026C146.63 110.81 146.552 110.605 146.394 110.463C145.43 109.594 142.382 110.536 140.588 110.865C138.8 111.193 137.515 112.045 137.183 112.657C137.037 112.928 137.014 113.158 137.041 113.378C137.067 113.599 137.163 113.813 137.396 113.918C138.487 114.41 139.473 114.084 140.497 114.207C141.379 114.314 142.27 114.135 143.335 113.894C144.286 113.746 144.939 113.638 145.397 113.519C145.649 113.453 145.941 113.375 146.325 112.756" stroke="#86A09C" stroke-width="4.83739" stroke-linecap="round"/>
<path d="M74.9925 113.791C75.2919 113.791 76.273 113.882 77.7138 114.476C78.6942 114.88 79.5998 114.914 82.9371 114.854C83.5996 114.842 83.6357 114.538 83.6505 114.316C83.6652 114.094 83.6499 113.876 83.5404 113.695C82.8696 112.585 79.6783 112.611 77.8653 112.41C76.0579 112.211 74.5801 112.657 74.085 113.147C73.8658 113.364 73.7778 113.578 73.7389 113.797C73.7 114.016 73.7298 114.248 73.9226 114.416C74.8241 115.201 75.8629 115.172 76.8067 115.584C77.6205 115.94 78.5252 116.025 79.6148 116.099C80.5683 116.232 81.2245 116.316 81.6978 116.333C81.9583 116.343 82.2601 116.352 82.8081 115.869" stroke="#86A09C" stroke-width="4.83739" stroke-linecap="round"/>
<path d="M106.023 116.5C106.116 116.554 107.202 117.403 108.238 118.181C108.925 118.696 110.203 118.932 111.387 119.134C113.695 119.526 114.248 119.065 114.715 118.883C115.286 118.662 115.851 118.248 116.277 117.874C117.072 117.197 117.462 116.771 117.812 116.289C117.891 116.175 117.952 116.079 118.113 115.793" stroke="white" stroke-width="3.22493" stroke-linecap="round"/>
<path d="M142.999 95.3581C142.987 95.3596 142.754 95.3744 142.364 95.4735C142.184 95.5191 142.103 95.7142 142.067 95.9014C142.031 96.0887 142.057 96.3028 142.121 96.4737C142.185 96.6446 142.286 96.7657 142.415 96.8451C142.544 96.9246 142.698 96.9586 142.817 96.8946C143.384 96.589 143.302 95.8586 143.294 95.516C143.291 95.3519 143.167 95.2213 143.03 95.1319C142.748 94.9466 142.377 94.8968 142.077 94.8556C141.938 94.8772 141.825 94.9854 141.753 95.1208C141.682 95.2562 141.656 95.4156 141.559 95.8249" stroke="black" stroke-width="8.06232" stroke-linecap="round"/>
<path d="M91.34 97.2658C91.3278 97.2658 91.0952 97.252 90.6951 97.3025C90.5111 97.3257 90.4068 97.5094 90.3477 97.6908C90.2886 97.8722 90.2884 98.088 90.3308 98.2654C90.3732 98.4428 90.4581 98.5754 90.5762 98.67C90.6943 98.7646 90.843 98.8173 90.9688 98.7683C91.5696 98.5345 91.5782 97.7996 91.6136 97.4587C91.6305 97.2954 91.5235 97.1506 91.3992 97.0452C91.1415 96.8267 90.7797 96.7318 90.4877 96.6542C90.3469 96.6586 90.221 96.752 90.1334 96.8777C90.0457 97.0033 90.0001 97.1583 89.8531 97.5526" stroke="black" stroke-width="8.06232" stroke-linecap="round"/>
<path d="M90.6442 96.0553H90.662" stroke="black" stroke-width="8.06232" stroke-linecap="round"/>
<path d="M141.477 93.376C141.479 93.3877 141.578 93.2615 141.666 93.1145C141.675 93.0991 141.534 93.206 141.514 93.3277C141.494 93.4494 141.579 93.5832 141.642 93.5741C141.705 93.565 141.744 93.409 141.591 93.2048" stroke="white" stroke-width="1.61246" stroke-linecap="round"/>
<path d="M89.9671 95.1784C89.9671 95.1901 90.081 95.0771 90.1867 94.9419C90.1978 94.9278 90.0449 95.0167 90.0098 95.135C89.9747 95.2533 90.0421 95.3964 90.106 95.3951C90.1698 95.3938 90.2281 95.2438 90.1011 95.0224" stroke="white" stroke-width="1.61246" stroke-linecap="round"/>
<path d="M152.086 132.411C152.156 132.411 138.696 132.411 117.378 132.386C104.37 132.371 98.6876 131.645 94.2899 131.095C89.9031 130.547 87.2094 128.397 85.2026 126.211C84.1085 125.019 84.2481 123.312 84.4395 121.729C84.7582 119.093 90.3816 115.165 95.3264 110.877C99.0331 107.663 104.579 104.773 108.035 102.531C110.877 100.688 112.965 98.3282 116.161 95.819C119.1 93.5123 123.319 91.5592 126.512 89.8053C130.254 87.7497 133.276 84.1027 135.739 82.1265C138.602 79.8292 144.751 78.1404 150.147 76.4772C154.439 75.1542 164.292 75.0136 170.828 75.7277C174.808 76.1627 178.487 78.9882 182.09 80.8441C185.242 82.4675 187.943 84.5615 191.018 86.6545C193.832 88.569 197.433 91.5383 201.811 95.8996C205.265 99.3402 209.362 102.585 212.281 104.874C216.603 108.264 217.798 111.292 218.484 115.068C219.458 120.43 218.278 124.446 217.104 125.383C214.508 127.456 210.33 128.305 206.706 129.885C203.512 131.278 199.596 132.494 195.455 133.727C191.859 134.799 187.691 135.269 183.278 135.878C179.155 136.447 174.673 136.703 168.929 137.129C162.957 137.572 157.985 137.7 147.23 137.779C137.515 137.851 119.153 137.875 109.203 137.85C95.0573 137.814 88.798 136.303 83.7359 135.656C79.618 135.13 75.626 134.719 71.6978 133.631C69.8889 133.129 69.6918 131.526 69.2115 129.921C67.4936 124.183 72.8982 119.528 77.7843 115.355C81.6596 112.046 86.0069 108.074 90.2072 104.906C95.2248 101.12 98.9207 97.6556 104.99 93.4978C110.299 89.861 114.817 87.0539 125.191 82.5411C129.945 80.4728 133.92 79.2228 138.343 78.3067C142.445 77.4571 146.442 77.4236 150.328 77.0795C151.313 77.0009 152.281 76.8967 154.169 76.8422C156.058 76.7878 158.839 76.7863 163.048 77.4701" stroke="#86A09C" stroke-width="64.4985" stroke-linecap="round"/>
<path d="M82.2323 96.2327C82.2124 96.2327 81.9654 96.3373 81.6049 96.6229C81.4328 96.7592 81.4779 97.0578 81.5925 97.1352C81.8807 97.3299 82.4113 96.8352 82.8019 96.4615C82.9941 96.2775 83.0376 95.986 82.9587 95.7917C82.7916 95.3801 81.8704 95.3562 80.9533 95.427C80.2936 95.4779 79.8808 95.9568 79.5566 96.3578C79.22 96.7742 79.3636 97.595 79.4845 98.3332C79.6607 99.4091 81.6275 99.0605 83.0477 98.9901C84.122 98.9369 83.7774 97.3308 83.7736 96.8213C83.7262 96.5746 83.5862 96.3522 83.3862 96.2106C83.1861 96.069 82.9301 96.0151 82.4588 95.8618" stroke="white" stroke-width="16.1246" stroke-linecap="round"/>
<path d="M134.738 95.7433C134.719 95.7457 134.486 95.8798 134.164 96.2074C134.01 96.3637 134.092 96.6546 134.215 96.7173C134.525 96.8752 134.991 96.3193 135.332 95.9005C135.5 95.6944 135.507 95.3998 135.405 95.2166C135.188 94.8286 134.271 94.9179 133.369 95.1005C132.721 95.2318 132.371 95.7577 132.099 96.1954C131.816 96.6498 132.06 97.4468 132.272 98.1646C132.58 99.2107 134.488 98.6237 135.889 98.3797C136.949 98.1952 136.408 96.6437 136.341 96.1385C136.263 95.8995 136.097 95.6959 135.881 95.58C135.665 95.464 135.404 95.4418 134.917 95.3474" stroke="white" stroke-width="16.1246" stroke-linecap="round"/>
<path d="M138.239 113.013C138.526 112.926 139.491 112.731 141.043 112.886C142.099 112.991 142.976 112.763 146.154 111.747C146.784 111.545 146.73 111.243 146.68 111.026C146.63 110.81 146.552 110.605 146.394 110.463C145.43 109.594 142.382 110.535 140.588 110.865C138.8 111.193 137.515 112.045 137.183 112.657C137.036 112.927 137.014 113.158 137.041 113.378C137.067 113.599 137.163 113.813 137.396 113.918C138.487 114.41 139.473 114.084 140.497 114.207C141.379 114.314 142.27 114.135 143.335 113.894C144.286 113.746 144.938 113.638 145.397 113.519C145.649 113.453 145.94 113.375 146.325 112.755" stroke="#86A09C" stroke-width="4.83739" stroke-linecap="round"/>
<path d="M74.9924 113.791C75.2918 113.791 76.2729 113.882 77.7137 114.476C78.6941 114.88 79.5996 114.914 82.937 114.854C83.5995 114.842 83.6356 114.538 83.6504 114.316C83.6651 114.094 83.6498 113.876 83.5403 113.695C82.8695 112.585 79.6782 112.611 77.8652 112.41C76.0578 112.211 74.58 112.657 74.0849 113.147C73.8657 113.364 73.7777 113.578 73.7388 113.797C73.6999 114.016 73.7297 114.248 73.9225 114.416C74.8239 115.201 75.8628 115.172 76.8066 115.584C77.6204 115.94 78.5251 116.025 79.6147 116.099C80.5682 116.232 81.2244 116.316 81.6976 116.333C81.9581 116.343 82.26 116.352 82.808 115.869" stroke="#86A09C" stroke-width="4.83739" stroke-linecap="round"/>
<path d="M106.023 116.499C106.116 116.554 107.202 117.403 108.238 118.18C108.925 118.696 110.203 118.932 111.387 119.134C113.695 119.526 114.248 119.065 114.715 118.883C115.286 118.661 115.851 118.248 116.277 117.874C117.072 117.196 117.462 116.77 117.812 116.289C117.891 116.175 117.951 116.078 118.113 115.793" stroke="white" stroke-width="3.22493" stroke-linecap="round"/>
<path d="M142.999 95.358C142.987 95.3595 142.754 95.3743 142.363 95.4734C142.184 95.519 142.103 95.714 142.067 95.9013C142.031 96.0885 142.057 96.3027 142.121 96.4736C142.185 96.6445 142.286 96.7656 142.415 96.845C142.544 96.9244 142.698 96.9585 142.817 96.8945C143.384 96.5889 143.301 95.8585 143.294 95.5158C143.291 95.3518 143.167 95.2212 143.03 95.1318C142.748 94.9465 142.377 94.8967 142.077 94.8554C141.938 94.8771 141.825 94.9852 141.753 95.1206C141.682 95.2561 141.656 95.4155 141.559 95.8248" stroke="black" stroke-width="8.06232" stroke-linecap="round"/>
<path d="M91.3399 97.2657C91.3277 97.2657 91.0951 97.2519 90.695 97.3024C90.511 97.3256 90.4067 97.5092 90.3476 97.6906C90.2885 97.872 90.2883 98.0878 90.3307 98.2653C90.373 98.4427 90.458 98.5752 90.5761 98.6698C90.6942 98.7645 90.8429 98.8171 90.9687 98.7682C91.5695 98.5344 91.5781 97.7995 91.6135 97.4586C91.6304 97.2953 91.5234 97.1505 91.3991 97.0451C91.1414 96.8265 90.7795 96.7317 90.4876 96.6541C90.3468 96.6585 90.2209 96.7519 90.1332 96.8775C90.0456 97.0032 89.9999 97.1582 89.8529 97.5525" stroke="black" stroke-width="8.06232" stroke-linecap="round"/>
<path d="M90.6441 96.0552H90.6619" stroke="black" stroke-width="8.06232" stroke-linecap="round"/>
<path d="M141.477 93.3759C141.478 93.3876 141.577 93.2614 141.666 93.1143C141.675 93.0989 141.534 93.2059 141.514 93.3276C141.494 93.4493 141.578 93.583 141.642 93.5739C141.705 93.5648 141.744 93.4089 141.591 93.2047" stroke="white" stroke-width="1.61246" stroke-linecap="round"/>
<path d="M89.967 95.1783C89.967 95.19 90.0809 95.0769 90.1866 94.9418C90.1977 94.9276 90.0448 95.0166 90.0097 95.1349C89.9746 95.2532 90.042 95.3962 90.1058 95.395C90.1697 95.3937 90.228 95.2437 90.101 95.0223" stroke="white" stroke-width="1.61246" stroke-linecap="round"/>
<path d="M112.502 203.327C112.502 204.119 112.246 204.717 111.734 205.121C111.221 205.525 110.484 205.804 109.521 205.959C109.568 206.767 109.591 207.761 109.591 208.941C109.591 211.58 109.071 213.56 108.03 214.88C106.99 216.2 105.391 216.86 103.232 216.86C102.177 216.86 101.237 216.65 100.414 216.231C99.5912 215.796 98.9546 215.221 98.5043 214.507C98.054 213.793 97.8289 213.032 97.8289 212.225C97.8289 211.464 98.0385 210.866 98.4577 210.431C98.8925 209.996 99.3972 209.779 99.9717 209.779C100.515 209.779 100.911 209.888 101.16 210.105C101.423 210.307 101.656 210.602 101.858 210.99C102.029 211.285 102.184 211.503 102.324 211.642C102.479 211.782 102.697 211.852 102.976 211.852C103.489 211.852 103.815 211.596 103.954 211.083C104.11 210.571 104.187 209.701 104.187 208.475V207.497V206.076C102.805 206.014 101.726 205.781 100.95 205.377C100.189 204.973 99.8086 204.29 99.8086 203.327C99.8086 202.505 100.088 201.891 100.647 201.487C101.222 201.084 101.944 200.828 102.813 200.719C103.698 200.61 104.816 200.556 106.167 200.556C107.518 200.556 108.628 200.61 109.498 200.719C110.367 200.828 111.082 201.084 111.641 201.487C112.215 201.891 112.502 202.505 112.502 203.327ZM117.89 216.86C116.757 216.86 115.763 216.58 114.909 216.021C114.055 215.447 113.395 214.655 112.929 213.645C112.479 212.621 112.254 211.441 112.254 210.105C112.254 208.801 112.464 207.776 112.883 207.031C113.302 206.285 113.884 205.913 114.63 205.913C115.949 205.913 116.609 206.588 116.609 207.939C116.609 208.219 116.602 208.467 116.586 208.684C116.571 208.886 116.555 209.065 116.539 209.22C116.477 209.841 116.446 210.338 116.446 210.711C116.446 211.394 116.586 211.914 116.866 212.271C117.145 212.628 117.487 212.807 117.89 212.807C118.31 212.807 118.651 212.636 118.915 212.295C119.195 211.937 119.334 211.409 119.334 210.711C119.334 210.214 119.311 209.756 119.265 209.337C119.249 209.197 119.234 208.995 119.218 208.731C119.202 208.452 119.195 208.195 119.195 207.962C119.195 206.596 119.855 205.913 121.174 205.913C121.92 205.913 122.494 206.285 122.898 207.031C123.317 207.761 123.527 208.785 123.527 210.105C123.527 212.17 123.045 213.816 122.083 215.043C121.12 216.254 119.723 216.86 117.89 216.86ZM128.426 216.813C127.65 216.813 127.067 216.526 126.679 215.951C126.291 215.377 126.027 214.531 125.887 213.413C125.763 212.279 125.701 210.703 125.701 208.684C125.701 206.743 125.748 205.23 125.841 204.143C125.949 203.056 126.198 202.186 126.586 201.534C126.99 200.882 127.611 200.556 128.449 200.556C129.288 200.556 129.901 200.882 130.289 201.534C130.693 202.186 130.941 203.056 131.035 204.143C131.143 205.23 131.198 206.743 131.198 208.684C131.198 210.594 131.112 212.139 130.941 213.319C130.786 214.484 130.507 215.361 130.103 215.951C129.699 216.526 129.14 216.813 128.426 216.813ZM138.921 216.86C137.772 216.86 136.755 216.634 135.87 216.184C134.985 215.734 134.294 215.105 133.797 214.298C133.316 213.475 133.075 212.551 133.075 211.526C133.075 210.517 133.316 209.585 133.797 208.731C134.294 207.877 134.977 207.194 135.847 206.681C136.716 206.169 137.702 205.913 138.805 205.913C139.798 205.913 140.676 206.115 141.436 206.518C142.197 206.922 142.78 207.458 143.183 208.125C143.587 208.778 143.789 209.461 143.789 210.175C143.789 211.34 143.346 212.194 142.461 212.737C141.592 213.265 140.551 213.529 139.34 213.529C138.533 213.529 137.85 213.428 137.291 213.226C137.756 213.987 138.525 214.367 139.596 214.367C140.031 214.367 140.497 214.313 140.994 214.204C141.18 214.158 141.359 214.135 141.53 214.135C141.871 214.135 142.143 214.22 142.345 214.391C142.562 214.562 142.671 214.794 142.671 215.089C142.671 215.571 142.376 215.99 141.786 216.347C141.196 216.689 140.241 216.86 138.921 216.86ZM137.361 210.385C137.5 210.602 137.687 210.765 137.919 210.874C138.168 210.967 138.44 211.014 138.735 211.014C139.076 211.014 139.371 210.936 139.62 210.781C139.884 210.625 140.016 210.423 140.016 210.175C140.016 209.896 139.899 209.655 139.666 209.453C139.449 209.251 139.131 209.15 138.711 209.15C138.292 209.15 137.958 209.282 137.71 209.546C137.477 209.795 137.361 210.074 137.361 210.385ZM153.449 207.59C154.971 207.621 156.066 207.784 156.733 208.079C157.416 208.374 157.758 208.941 157.758 209.779C157.758 210.602 157.409 211.161 156.71 211.456C156.027 211.736 154.955 211.891 153.496 211.922L153.519 213.762C153.535 214.057 153.542 214.468 153.542 214.996C153.542 215.664 153.356 216.138 152.983 216.417C152.611 216.681 152.176 216.813 151.679 216.813C150.825 216.813 150.204 216.386 149.816 215.532C149.428 214.678 149.187 213.459 149.094 211.875C148.084 211.798 147.331 211.604 146.835 211.293C146.353 210.982 146.113 210.478 146.113 209.779C146.113 209.08 146.353 208.576 146.835 208.265C147.331 207.939 148.084 207.729 149.094 207.636C149.187 206.13 149.412 204.865 149.769 203.84C150.126 202.815 150.709 202.015 151.516 201.441C152.323 200.851 153.41 200.556 154.777 200.556C155.631 200.556 156.337 200.758 156.896 201.161C157.471 201.55 157.758 202.116 157.758 202.862C157.758 203.638 157.517 204.228 157.036 204.632C156.57 205.02 155.926 205.292 155.103 205.447C154.559 205.556 154.163 205.796 153.915 206.169C153.667 206.526 153.511 207 153.449 207.59ZM161.461 205.563C160.701 205.563 160.056 205.292 159.528 204.748C159 204.189 158.736 203.514 158.736 202.722C158.736 201.946 159 201.286 159.528 200.742C160.056 200.183 160.701 199.904 161.461 199.904C162.207 199.904 162.843 200.183 163.371 200.742C163.915 201.286 164.186 201.946 164.186 202.722C164.186 203.514 163.915 204.189 163.371 204.748C162.843 205.292 162.207 205.563 161.461 205.563ZM161.461 216.86C160.825 216.86 160.351 216.681 160.041 216.324C159.746 215.951 159.544 215.4 159.435 214.67C159.342 213.925 159.295 212.869 159.295 211.503C159.295 210.354 159.35 209.445 159.458 208.778C159.583 208.11 159.8 207.613 160.11 207.287C160.421 206.961 160.871 206.798 161.461 206.798C162.098 206.798 162.564 206.984 162.859 207.357C163.169 207.714 163.371 208.265 163.464 209.011C163.573 209.74 163.627 210.788 163.627 212.155C163.627 213.304 163.565 214.212 163.441 214.88C163.332 215.548 163.123 216.044 162.812 216.371C162.502 216.697 162.051 216.86 161.461 216.86ZM169.245 216.813C168.468 216.813 167.886 216.526 167.498 215.951C167.11 215.377 166.846 214.531 166.706 213.413C166.582 212.279 166.52 210.703 166.52 208.684C166.52 206.743 166.566 205.23 166.659 204.143C166.768 203.056 167.016 202.186 167.405 201.534C167.808 200.882 168.429 200.556 169.268 200.556C170.106 200.556 170.72 200.882 171.108 201.534C171.512 202.186 171.76 203.056 171.853 204.143C171.962 205.23 172.016 206.743 172.016 208.684C172.016 210.594 171.931 212.139 171.76 213.319C171.605 214.484 171.325 215.361 170.922 215.951C170.518 216.526 169.959 216.813 169.245 216.813ZM182.198 216.86C181.483 216.86 180.994 216.619 180.73 216.138C180.466 215.656 180.334 214.919 180.334 213.925C180.334 213.195 180.327 212.675 180.311 212.364C180.295 212.038 180.233 211.767 180.125 211.549C180.032 211.332 179.861 211.223 179.612 211.223C179.317 211.223 179.1 211.324 178.96 211.526C178.82 211.712 178.735 211.961 178.704 212.271C178.688 212.566 178.681 213.017 178.681 213.622C178.681 214.367 178.65 214.958 178.587 215.392C178.525 215.812 178.362 216.161 178.098 216.44C177.834 216.704 177.423 216.836 176.864 216.836C175.187 216.836 174.348 214.709 174.348 210.455C174.348 209.011 174.473 207.893 174.721 207.101C174.985 206.293 175.474 205.789 176.188 205.587C176.452 205.509 176.693 205.47 176.911 205.47C177.237 205.47 177.532 205.54 177.796 205.68C178.06 205.82 178.246 206.014 178.355 206.262C178.572 206.138 178.789 206.045 179.007 205.983C179.224 205.921 179.535 205.889 179.938 205.889C180.435 205.889 180.901 206.014 181.336 206.262C181.786 206.495 182.104 206.829 182.291 207.264C182.694 206.798 183.098 206.456 183.502 206.239C183.921 206.006 184.457 205.889 185.109 205.889C186.072 205.889 186.91 206.177 187.624 206.751C188.354 207.31 188.913 208.087 189.301 209.08C189.705 210.059 189.907 211.146 189.907 212.341C189.907 213.676 189.728 214.763 189.371 215.602C189.014 216.44 188.393 216.86 187.508 216.86C186.918 216.86 186.491 216.712 186.227 216.417C185.979 216.122 185.823 215.757 185.761 215.322C185.715 214.872 185.691 214.22 185.691 213.366C185.691 212.621 185.637 212.077 185.528 211.736C185.42 211.394 185.163 211.223 184.76 211.223C184.465 211.223 184.278 211.386 184.201 211.712C184.123 212.023 184.084 212.543 184.084 213.273C184.069 213.413 184.061 213.63 184.061 213.925C184.03 214.919 183.882 215.656 183.618 216.138C183.354 216.619 182.881 216.86 182.198 216.86Z" fill="#4A5A58"/>
</g>
<path d="M142.059 113.998C140.621 113.998 137.014 114.169 135.948 114.657C134.876 115.148 134.767 116.184 134.737 116.581C134.721 116.781 134.827 116.979 134.965 117.133C135.607 117.846 136.979 117.792 140.101 117.918C141.433 117.971 142.474 117.216 143.345 116.639C143.75 116.371 143.818 115.804 143.772 115.34C143.734 114.948 142.104 114.651 139.354 114.33C134.352 113.746 132.841 114.838 132.24 115.358C131.94 115.619 132.078 116.262 132.127 116.821C132.164 117.255 132.51 117.54 132.806 117.802C134.151 118.989 138.999 119.171 141.819 118.733C142.879 118.569 143.56 118.115 144.097 117.518C144.66 116.892 144.508 115.993 144.433 115.39C144.308 114.385 142.538 114.161 141.437 113.941C141.042 113.912 140.518 113.903 140.098 113.948C139.678 113.994 139.377 114.095 138.711 114.316" stroke="#E7F7F4" stroke-width="5" stroke-linecap="round"/>
<path d="M79.1828 115.489C77.4651 115.489 73.4403 115.588 72.4792 115.925C72.2557 116.003 72.1016 116.155 71.9951 116.324C71.7777 116.669 71.8259 117.136 71.9334 117.544C72.1489 118.362 74.4819 118.969 80.2383 119.341C81.9592 119.452 82.6203 118.722 82.9313 118.463C83.086 118.334 83.1881 118.159 83.2466 117.97C83.3051 117.781 83.3051 117.569 83.2002 117.356C82.731 116.4 81.3714 115.815 79.8609 115.056C78.6396 114.444 76.1116 114.657 74.5026 114.884C72.6859 115.141 71.7698 116.306 71.5952 116.664C71.5114 116.835 71.5644 117.035 71.6558 117.184C71.9079 117.439 72.245 117.672 72.6018 117.917C72.7872 118.038 72.9814 118.152 73.2769 118.321" stroke="#E7F7F4" stroke-width="5" stroke-linecap="round"/>
<defs>
<filter id="filter0_d_458_1769" x="0" y="0" width="288" height="286.561" filterUnits="userSpaceOnUse" color-interpolation-filters="sRGB">
<feFlood flood-opacity="0" result="BackgroundImageFix"/>
<feColorMatrix in="SourceAlpha" type="matrix" values="0 0 0 0 0 0 0 0 0 0 0 0 0 0 0 0 0 0 127 0" result="hardAlpha"/>
<feOffset dy="6"/>
<feGaussianBlur stdDeviation="3"/>
<feComposite in2="hardAlpha" operator="out"/>
<feColorMatrix type="matrix" values="0 0 0 0 0 0 0 0 0 0 0 0 0 0 0 0 0 0 0.25 0"/>
<feBlend mode="normal" in2="BackgroundImageFix" result="effect1_dropShadow_458_1769"/>
<feBlend mode="normal" in="SourceGraphic" in2="effect1_dropShadow_458_1769" result="shape"/>
</filter>
</defs>
</svg>
