<svg width="414" height="606" viewBox="0 0 414 606" fill="none" xmlns="http://www.w3.org/2000/svg">
<g filter="url(#filter0_d_285_1685)">
<path d="M187.498 433.651C187.601 433.651 167.784 433.651 136.396 433.51C117.245 433.425 108.878 429.354 102.403 426.269C95.9444 423.192 91.9785 411.129 89.0237 398.863C87.4129 392.176 87.6184 382.6 87.9002 373.718C88.3694 358.927 96.649 336.886 103.929 312.829C109.387 294.795 117.553 278.578 122.64 266.004C126.825 255.66 129.899 242.421 134.605 228.342C138.931 215.4 145.144 204.441 149.845 194.601C155.355 183.067 159.804 162.604 163.43 151.516C167.646 138.627 176.699 129.151 184.643 119.819C190.962 112.397 205.471 111.607 215.093 115.614C220.954 118.055 226.37 133.908 231.675 144.321C236.315 153.43 240.292 165.179 244.82 176.922C248.962 187.664 254.265 204.324 260.711 228.794C265.796 248.099 271.828 266.306 276.126 279.149C282.49 298.168 284.249 315.158 285.259 336.346C286.693 366.43 284.955 388.961 283.227 394.218C279.404 405.85 273.253 410.615 267.918 419.479C263.215 427.292 257.449 434.116 251.352 441.038C246.058 447.047 239.921 449.685 233.424 453.102C227.353 456.297 220.755 457.735 212.298 460.126C203.505 462.611 196.184 463.325 180.35 463.771C166.045 464.173 139.01 464.311 124.361 464.169C103.533 463.968 94.3174 455.487 86.8643 451.859C80.8013 448.908 74.9238 446.604 69.1401 440.495C66.4768 437.682 66.1867 428.684 65.4795 419.682C62.9502 387.489 70.9076 361.367 78.1014 337.956C83.8072 319.389 90.208 297.103 96.3921 279.325C103.78 258.087 109.221 238.647 118.158 215.318C125.975 194.913 132.627 179.163 147.9 153.842C154.9 142.238 160.752 135.224 167.264 130.084C173.303 125.317 179.189 125.13 184.91 123.199C186.361 122.758 187.785 122.173 190.566 121.867C193.347 121.562 197.441 121.554 203.638 125.391" stroke="#747C57" stroke-width="226.452" stroke-linecap="round"/>
<path d="M111.859 317.307C111.789 317.307 110.922 317.676 109.656 318.684C109.052 319.165 109.21 320.219 109.613 320.492C110.625 321.179 112.488 319.434 113.859 318.115C114.534 317.465 114.686 316.437 114.41 315.751C113.823 314.298 110.589 314.214 107.369 314.463C105.052 314.643 103.603 316.333 102.465 317.749C101.283 319.218 101.787 322.115 102.212 324.721C102.83 328.518 109.736 327.287 114.722 327.039C118.494 326.851 117.284 321.183 117.271 319.384C117.104 318.514 116.613 317.729 115.91 317.229C115.208 316.729 114.309 316.539 112.654 315.998" stroke="white" stroke-width="56.6129" stroke-linecap="round"/>
<path d="M296.204 315.577C296.135 315.586 295.32 316.059 294.188 317.215C293.648 317.767 293.935 318.793 294.368 319.015C295.456 319.572 297.09 317.61 298.288 316.132C298.878 315.404 298.903 314.365 298.544 313.718C297.783 312.349 294.562 312.664 291.398 313.308C289.121 313.772 287.891 315.628 286.936 317.173C285.944 318.776 286.802 321.589 287.544 324.123C288.626 327.815 295.327 325.743 300.245 324.882C303.964 324.231 302.066 318.755 301.831 316.972C301.558 316.128 300.974 315.41 300.215 315C299.456 314.591 298.541 314.513 296.832 314.18" stroke="white" stroke-width="56.6129" stroke-linecap="round"/>
<path d="M308.495 376.527C309.501 376.223 312.891 375.533 318.34 376.079C322.048 376.451 325.126 375.646 336.283 372.059C338.497 371.347 338.308 370.28 338.131 369.516C337.955 368.753 337.68 368.029 337.128 367.529C333.742 364.46 323.041 367.784 316.743 368.946C310.464 370.105 305.952 373.113 304.788 375.271C304.273 376.227 304.195 377.039 304.287 377.818C304.379 378.596 304.717 379.352 305.536 379.723C309.366 381.46 312.828 380.307 316.421 380.744C319.519 381.12 322.647 380.489 326.385 379.636C329.725 379.116 332.016 378.734 333.625 378.314C334.51 378.08 335.534 377.805 336.884 375.619" stroke="#E8F8B4" stroke-width="16.9839" stroke-linecap="round"/>
<path d="M86.4382 379.276C87.4893 379.276 90.9341 379.594 95.9925 381.692C99.4347 383.119 102.614 383.238 114.331 383.027C116.657 382.985 116.784 381.909 116.836 381.127C116.888 380.345 116.834 379.573 116.45 378.934C114.094 375.018 102.89 375.108 96.5246 374.401C90.1786 373.697 84.9902 375.272 83.2521 377.002C82.4825 377.768 82.1734 378.524 82.0368 379.295C81.9002 380.067 82.0048 380.888 82.6817 381.48C85.8468 384.249 89.4941 384.147 92.8076 385.602C95.6649 386.858 98.8414 387.158 102.667 387.422C106.014 387.889 108.319 388.184 109.98 388.247C110.895 388.279 111.954 388.312 113.878 386.609" stroke="#E8F8B4" stroke-width="16.9839" stroke-linecap="round"/>
<path d="M195.387 388.835C195.711 389.028 199.525 392.025 203.163 394.767C205.574 396.586 210.061 397.421 214.219 398.132C222.321 399.517 224.262 397.889 225.904 397.248C227.907 396.466 229.891 395.006 231.387 393.686C234.177 391.295 235.547 389.791 236.778 388.092C237.055 387.689 237.266 387.349 237.833 386.342" stroke="white" stroke-width="11.3226" stroke-linecap="round"/>
<path d="M325.205 314.219C325.163 314.224 324.346 314.277 322.974 314.626C322.343 314.787 322.059 315.476 321.932 316.137C321.805 316.797 321.899 317.553 322.123 318.157C322.348 318.76 322.702 319.187 323.154 319.467C323.607 319.748 324.148 319.868 324.565 319.642C326.557 318.563 326.267 315.985 326.242 314.776C326.23 314.197 325.794 313.736 325.315 313.421C324.323 312.767 323.02 312.591 321.969 312.445C321.481 312.522 321.083 312.903 320.832 313.381C320.581 313.859 320.49 314.422 320.149 315.867" stroke="black" stroke-width="28.3065" stroke-linecap="round"/>
<path d="M143.834 320.951C143.791 320.951 142.974 320.902 141.57 321.08C140.924 321.162 140.557 321.811 140.35 322.451C140.143 323.091 140.142 323.853 140.291 324.479C140.439 325.105 140.738 325.573 141.152 325.907C141.567 326.241 142.089 326.427 142.531 326.254C144.64 325.429 144.67 322.835 144.794 321.632C144.854 321.056 144.478 320.544 144.042 320.172C143.137 319.401 141.866 319.066 140.841 318.792C140.347 318.808 139.905 319.138 139.597 319.581C139.29 320.024 139.129 320.571 138.613 321.963" stroke="black" stroke-width="28.3065" stroke-linecap="round"/>
<path d="M141.395 316.677H141.457" stroke="black" stroke-width="28.3065" stroke-linecap="round"/>
<path d="M319.862 307.223C319.867 307.265 320.214 306.819 320.524 306.3C320.556 306.246 320.062 306.623 319.991 307.053C319.921 307.482 320.218 307.954 320.44 307.922C320.662 307.89 320.799 307.34 320.261 306.619" stroke="white" stroke-width="5.66129" stroke-linecap="round"/>
<path d="M139.011 313.586C139.011 313.627 139.411 313.228 139.782 312.751C139.821 312.701 139.285 313.015 139.161 313.433C139.038 313.85 139.275 314.355 139.499 314.351C139.723 314.346 139.928 313.817 139.482 313.035" stroke="white" stroke-width="5.66129" stroke-linecap="round"/>
</g>
<defs>
<filter id="filter0_d_285_1685" x="-62.2101" y="0" width="475.226" height="605.449" filterUnits="userSpaceOnUse" color-interpolation-filters="sRGB">
<feFlood flood-opacity="0" result="BackgroundImageFix"/>
<feColorMatrix in="SourceAlpha" type="matrix" values="0 0 0 0 0 0 0 0 0 0 0 0 0 0 0 0 0 0 127 0" result="hardAlpha"/>
<feOffset dy="14"/>
<feGaussianBlur stdDeviation="7"/>
<feComposite in2="hardAlpha" operator="out"/>
<feColorMatrix type="matrix" values="0 0 0 0 0 0 0 0 0 0 0 0 0 0 0 0 0 0 0.25 0"/>
<feBlend mode="normal" in2="BackgroundImageFix" result="effect1_dropShadow_285_1685"/>
<feBlend mode="normal" in="SourceGraphic" in2="effect1_dropShadow_285_1685" result="shape"/>
</filter>
</defs>
</svg>
