<svg width="290" height="289" viewBox="0 0 290 289" fill="none" xmlns="http://www.w3.org/2000/svg">
<g filter="url(#filter0_d_201_6487)">
<path d="M6.52051 137.5C6.52051 61.5608 68.5814 0 144.521 0C220.46 0 282.521 61.5608 282.521 137.5C282.521 213.439 220.46 275 144.521 275C68.5814 275 6.52051 213.439 6.52051 137.5Z" fill="#C1CB93"/>
<path d="M140.639 159.911C140.665 159.911 135.573 159.911 127.507 159.875C122.585 159.853 120.436 158.813 118.772 158.024C117.112 157.237 116.093 154.154 115.334 151.018C114.92 149.309 114.972 146.861 115.045 144.59C115.165 140.809 117.293 135.175 119.164 129.025C120.566 124.415 122.665 120.27 123.972 117.055C125.047 114.411 125.837 111.027 127.047 107.428C128.158 104.119 129.755 101.318 130.963 98.8025C132.379 95.8541 133.522 90.6232 134.454 87.7888C135.537 84.4938 137.863 82.0716 139.905 79.6861C141.529 77.7886 145.257 77.5868 147.73 78.6111C149.236 79.235 150.628 83.2876 151.991 85.9495C153.183 88.2779 154.205 91.2813 155.369 94.2832C156.433 97.0291 157.796 101.288 159.452 107.543C160.759 112.478 162.309 117.133 163.413 120.416C165.049 125.277 165.501 129.621 165.76 135.037C166.129 142.727 165.682 148.487 165.238 149.831C164.256 152.804 162.675 154.022 161.304 156.288C160.096 158.286 158.614 160.03 157.047 161.799C155.687 163.336 154.11 164.01 152.44 164.883C150.88 165.7 149.185 166.068 147.011 166.679C144.752 167.314 142.871 167.497 138.802 167.611C135.126 167.714 128.179 167.749 124.414 167.713C119.062 167.661 116.694 165.493 114.779 164.566C113.221 163.811 111.71 163.222 110.224 161.661C109.54 160.942 109.465 158.641 109.283 156.34C108.633 148.111 110.678 141.433 112.527 135.449C113.993 130.702 115.638 125.005 117.227 120.461C119.125 115.031 120.524 110.062 122.82 104.099C124.829 98.8823 126.538 94.8562 130.463 88.3834C132.262 85.4169 133.766 83.624 135.439 82.3101C136.991 81.0915 138.503 81.0435 139.974 80.55C140.346 80.4373 140.712 80.2877 141.427 80.2096C142.142 80.1315 143.194 80.1294 144.786 81.1102" stroke="#747C57" stroke-width="58.1914" stroke-linecap="round"/>
<path d="M121.201 130.17C121.183 130.17 120.96 130.264 120.635 130.522C120.48 130.645 120.52 130.914 120.624 130.984C120.884 131.16 121.362 130.714 121.715 130.376C121.888 130.211 121.927 129.948 121.856 129.772C121.706 129.401 120.874 129.379 120.047 129.443C119.452 129.489 119.079 129.921 118.787 130.283C118.483 130.659 118.613 131.399 118.722 132.065C118.881 133.036 120.655 132.721 121.937 132.658C122.906 132.61 122.595 131.161 122.592 130.701C122.549 130.479 122.422 130.278 122.242 130.15C122.061 130.022 121.83 129.974 121.405 129.835" stroke="white" stroke-width="14.5479" stroke-linecap="round"/>
<path d="M168.573 129.728C168.556 129.73 168.346 129.851 168.055 130.147C167.916 130.288 167.99 130.55 168.101 130.607C168.381 130.749 168.801 130.248 169.109 129.87C169.26 129.684 169.267 129.418 169.175 129.253C168.979 128.903 168.151 128.983 167.338 129.148C166.753 129.266 166.437 129.741 166.192 130.136C165.937 130.546 166.157 131.265 166.348 131.912C166.626 132.856 168.348 132.327 169.612 132.107C170.567 131.94 170.08 130.54 170.019 130.084C169.949 129.869 169.799 129.685 169.604 129.581C169.409 129.476 169.174 129.456 168.735 129.371" stroke="white" stroke-width="14.5479" stroke-linecap="round"/>
<path d="M171.731 145.309C171.99 145.232 172.861 145.055 174.261 145.195C175.214 145.29 176.005 145.084 178.872 144.167C179.441 143.985 179.392 143.712 179.347 143.517C179.301 143.322 179.231 143.137 179.089 143.009C178.219 142.225 175.469 143.074 173.85 143.372C172.237 143.668 171.078 144.437 170.778 144.988C170.646 145.233 170.626 145.44 170.65 145.639C170.673 145.838 170.76 146.031 170.971 146.126C171.955 146.57 172.844 146.276 173.768 146.387C174.564 146.483 175.368 146.322 176.328 146.104C177.187 145.971 177.775 145.873 178.189 145.766C178.416 145.706 178.679 145.636 179.026 145.077" stroke="#E8F8B4" stroke-width="4.36436" stroke-linecap="round"/>
<path d="M114.67 146.011C114.94 146.011 115.825 146.092 117.125 146.629C118.01 146.993 118.827 147.024 121.838 146.97C122.435 146.959 122.468 146.684 122.481 146.484C122.494 146.284 122.481 146.087 122.382 145.924C121.777 144.923 118.897 144.946 117.262 144.765C115.631 144.585 114.298 144.988 113.851 145.43C113.653 145.626 113.574 145.819 113.539 146.016C113.504 146.213 113.531 146.423 113.705 146.575C114.518 147.282 115.455 147.256 116.307 147.628C117.041 147.949 117.857 148.026 118.84 148.093C119.7 148.213 120.292 148.288 120.719 148.304C120.954 148.313 121.227 148.321 121.721 147.886" stroke="#E8F8B4" stroke-width="4.36436" stroke-linecap="round"/>
<path d="M142.666 148.454C142.749 148.504 143.729 149.27 144.664 149.971C145.284 150.436 146.437 150.649 147.505 150.831C149.587 151.185 150.086 150.769 150.508 150.605C151.023 150.405 151.532 150.032 151.917 149.694C152.634 149.083 152.986 148.699 153.302 148.264C153.373 148.161 153.428 148.075 153.574 147.817" stroke="white" stroke-width="2.90957" stroke-linecap="round"/>
<path d="M176.026 129.38C176.015 129.381 175.805 129.395 175.452 129.484C175.29 129.525 175.217 129.701 175.185 129.87C175.152 130.039 175.176 130.232 175.234 130.387C175.292 130.541 175.382 130.65 175.499 130.722C175.615 130.793 175.754 130.824 175.861 130.766C176.373 130.491 176.299 129.832 176.292 129.522C176.289 129.374 176.177 129.257 176.054 129.176C175.799 129.009 175.464 128.964 175.194 128.927C175.069 128.946 174.966 129.044 174.902 129.166C174.837 129.288 174.814 129.432 174.726 129.801" stroke="black" stroke-width="7.27393" stroke-linecap="round"/>
<path d="M129.419 131.102C129.408 131.102 129.198 131.09 128.837 131.135C128.671 131.156 128.577 131.322 128.523 131.486C128.47 131.649 128.47 131.844 128.508 132.004C128.546 132.164 128.623 132.284 128.73 132.369C128.836 132.454 128.97 132.502 129.084 132.458C129.626 132.247 129.634 131.584 129.666 131.276C129.681 131.129 129.584 130.998 129.472 130.903C129.24 130.706 128.913 130.62 128.65 130.55C128.523 130.554 128.409 130.639 128.33 130.752C128.251 130.865 128.21 131.005 128.077 131.361" stroke="black" stroke-width="7.27393" stroke-linecap="round"/>
<path d="M128.791 130.009H128.807" stroke="black" stroke-width="7.27393" stroke-linecap="round"/>
<path d="M174.653 127.593C174.654 127.604 174.743 127.49 174.823 127.357C174.831 127.344 174.704 127.44 174.686 127.55C174.668 127.66 174.744 127.78 174.801 127.772C174.858 127.764 174.894 127.623 174.755 127.439" stroke="white" stroke-width="1.45479" stroke-linecap="round"/>
<path d="M128.179 129.218C128.179 129.229 128.281 129.127 128.377 129.005C128.387 128.992 128.249 129.072 128.217 129.179C128.186 129.286 128.246 129.415 128.304 129.414C128.362 129.413 128.414 129.277 128.3 129.078" stroke="white" stroke-width="1.45479" stroke-linecap="round"/>
<path d="M100.78 225.748C99.8236 225.748 98.9036 225.618 98.0197 225.357C97.1503 225.082 96.4404 224.705 95.8898 224.227C95.3392 223.734 95.0639 223.176 95.0639 222.553C95.0639 221.959 95.245 221.488 95.6072 221.14C95.9695 220.793 96.4259 220.619 96.9765 220.619C97.3387 220.619 97.6502 220.67 97.911 220.771C98.1863 220.858 98.4834 220.988 98.8021 221.162C99.034 221.278 99.2296 221.372 99.389 221.445C99.5628 221.503 99.7439 221.532 99.9323 221.532C100.41 221.532 100.65 221.343 100.65 220.967C100.65 220.822 100.548 220.698 100.345 220.597C100.142 220.481 99.8019 220.329 99.3238 220.141C98.4689 219.807 97.7734 219.481 97.2373 219.163C96.4114 218.67 95.839 218.134 95.5203 217.554C95.216 216.975 95.0639 216.25 95.0639 215.381C95.0639 214.54 95.3319 213.751 95.868 213.012C96.4041 212.258 97.1358 211.657 98.0632 211.208C98.9905 210.759 100.005 210.534 101.106 210.534C102.178 210.534 103.156 210.701 104.04 211.034C104.938 211.353 105.641 211.802 106.148 212.382C106.67 212.947 106.931 213.577 106.931 214.272C106.931 215.069 106.692 215.671 106.213 216.076C105.75 216.468 105.228 216.663 104.649 216.663C104.17 216.663 103.808 216.634 103.562 216.576C103.33 216.518 103.098 216.439 102.866 216.337C102.678 216.265 102.519 216.214 102.388 216.185C102.258 216.142 102.077 216.12 101.845 216.12C101.657 216.12 101.475 216.185 101.302 216.315C101.142 216.431 101.062 216.598 101.062 216.815C101.062 216.975 101.157 217.112 101.345 217.228C101.533 217.33 101.751 217.424 101.997 217.511C102.243 217.598 102.417 217.663 102.519 217.706C103.866 218.199 104.859 218.764 105.496 219.402C106.134 220.025 106.453 220.836 106.453 221.836C106.453 223.068 105.953 224.031 104.953 224.727C103.968 225.408 102.577 225.748 100.78 225.748ZM113.683 225.726C112.611 225.726 111.661 225.516 110.836 225.096C110.01 224.676 109.365 224.089 108.901 223.336C108.452 222.568 108.227 221.706 108.227 220.749C108.227 219.807 108.452 218.938 108.901 218.141C109.365 217.344 110.002 216.707 110.814 216.228C111.625 215.75 112.545 215.511 113.574 215.511C114.501 215.511 115.32 215.7 116.03 216.076C116.74 216.453 117.283 216.953 117.66 217.576C118.037 218.185 118.225 218.822 118.225 219.489C118.225 220.575 117.812 221.372 116.986 221.879C116.175 222.372 115.204 222.618 114.074 222.618C113.32 222.618 112.683 222.524 112.161 222.336C112.596 223.046 113.313 223.401 114.313 223.401C114.719 223.401 115.153 223.35 115.617 223.249C115.791 223.205 115.958 223.183 116.117 223.183C116.436 223.183 116.689 223.263 116.878 223.422C117.08 223.582 117.182 223.799 117.182 224.075C117.182 224.524 116.907 224.915 116.356 225.248C115.805 225.567 114.914 225.726 113.683 225.726ZM112.227 219.684C112.357 219.887 112.531 220.039 112.748 220.141C112.98 220.228 113.234 220.271 113.509 220.271C113.828 220.271 114.103 220.199 114.335 220.054C114.581 219.909 114.704 219.72 114.704 219.489C114.704 219.228 114.596 219.003 114.378 218.815C114.175 218.626 113.878 218.532 113.487 218.532C113.096 218.532 112.784 218.655 112.553 218.902C112.335 219.134 112.227 219.394 112.227 219.684ZM133.582 225.705C133.234 225.705 132.908 225.661 132.604 225.574C132.314 225.487 131.974 225.292 131.582 224.987C131.133 224.625 130.626 224.017 130.061 223.162C129.496 222.292 129.01 221.358 128.605 220.358C128.199 219.344 127.996 218.431 127.996 217.619C127.996 217.011 128.17 216.511 128.518 216.12C128.88 215.714 129.3 215.511 129.778 215.511C130.358 215.511 130.851 215.736 131.256 216.185C131.676 216.62 132.024 217.163 132.3 217.815C132.589 218.453 132.915 219.315 133.278 220.401C133.321 220.532 133.365 220.677 133.408 220.836C133.466 220.981 133.524 221.133 133.582 221.293L133.799 220.662C134.205 219.503 134.553 218.59 134.842 217.924C135.132 217.243 135.494 216.67 135.929 216.207C136.364 215.729 136.871 215.497 137.451 215.511C137.914 215.526 138.305 215.7 138.624 216.033C138.957 216.366 139.124 216.852 139.124 217.489C139.124 218.358 138.936 219.271 138.559 220.228C138.182 221.184 137.74 222.053 137.233 222.836C136.726 223.604 136.291 224.169 135.929 224.531C135.61 224.893 135.234 225.183 134.799 225.4C134.379 225.603 133.973 225.705 133.582 225.705ZM143.151 215.185C142.441 215.185 141.84 214.932 141.347 214.425C140.854 213.903 140.608 213.273 140.608 212.534C140.608 211.809 140.854 211.193 141.347 210.686C141.84 210.165 142.441 209.904 143.151 209.904C143.846 209.904 144.44 210.165 144.933 210.686C145.44 211.193 145.694 211.809 145.694 212.534C145.694 213.273 145.44 213.903 144.933 214.425C144.44 214.932 143.846 215.185 143.151 215.185ZM143.151 225.726C142.557 225.726 142.115 225.56 141.825 225.226C141.55 224.879 141.361 224.364 141.26 223.683C141.173 222.988 141.13 222.003 141.13 220.727C141.13 219.655 141.18 218.808 141.282 218.185C141.398 217.562 141.6 217.098 141.89 216.794C142.18 216.489 142.6 216.337 143.151 216.337C143.745 216.337 144.18 216.511 144.455 216.859C144.745 217.192 144.933 217.706 145.02 218.402C145.121 219.083 145.172 220.061 145.172 221.336C145.172 222.408 145.114 223.256 144.998 223.879C144.897 224.502 144.701 224.966 144.411 225.27C144.122 225.574 143.701 225.726 143.151 225.726ZM152.619 225.726C151.591 225.726 150.678 225.48 149.881 224.987C149.098 224.48 148.497 223.828 148.077 223.031C147.657 222.22 147.447 221.358 147.447 220.445C147.447 219.373 147.664 218.467 148.099 217.728C148.548 216.975 149.12 216.417 149.816 216.055C150.526 215.692 151.286 215.511 152.098 215.511C152.909 215.511 153.634 215.685 154.271 216.033C154.242 215.729 154.184 215.403 154.097 215.055C154.025 214.707 153.974 214.49 153.945 214.403C153.829 213.954 153.742 213.577 153.684 213.273C153.626 212.968 153.597 212.664 153.597 212.36C153.597 211.751 153.778 211.288 154.141 210.969C154.503 210.65 154.938 210.491 155.445 210.491C156.256 210.491 156.915 210.896 157.423 211.708C157.93 212.519 158.292 213.526 158.509 214.729C158.741 215.931 158.857 217.149 158.857 218.38C158.857 220.046 158.473 221.691 157.705 223.314C156.952 224.922 155.256 225.726 152.619 225.726ZM152.75 222.292C153.141 222.292 153.481 222.147 153.771 221.858C154.061 221.553 154.206 221.198 154.206 220.793C154.206 220.387 154.061 220.032 153.771 219.728C153.481 219.423 153.141 219.271 152.75 219.271C152.358 219.271 152.011 219.423 151.706 219.728C151.417 220.032 151.272 220.387 151.272 220.793C151.272 221.198 151.417 221.553 151.706 221.858C152.011 222.147 152.358 222.292 152.75 222.292ZM166.065 225.726C164.993 225.726 164.044 225.516 163.218 225.096C162.392 224.676 161.748 224.089 161.284 223.336C160.835 222.568 160.61 221.706 160.61 220.749C160.61 219.807 160.835 218.938 161.284 218.141C161.748 217.344 162.385 216.707 163.196 216.228C164.008 215.75 164.928 215.511 165.957 215.511C166.884 215.511 167.703 215.7 168.413 216.076C169.123 216.453 169.666 216.953 170.043 217.576C170.419 218.185 170.608 218.822 170.608 219.489C170.608 220.575 170.195 221.372 169.369 221.879C168.558 222.372 167.587 222.618 166.457 222.618C165.703 222.618 165.066 222.524 164.544 222.336C164.979 223.046 165.696 223.401 166.696 223.401C167.101 223.401 167.536 223.35 168 223.249C168.174 223.205 168.34 223.183 168.5 223.183C168.818 223.183 169.072 223.263 169.26 223.422C169.463 223.582 169.565 223.799 169.565 224.075C169.565 224.524 169.289 224.915 168.739 225.248C168.188 225.567 167.297 225.726 166.065 225.726ZM164.609 219.684C164.74 219.887 164.913 220.039 165.131 220.141C165.363 220.228 165.616 220.271 165.892 220.271C166.21 220.271 166.486 220.199 166.717 220.054C166.964 219.909 167.087 219.72 167.087 219.489C167.087 219.228 166.978 219.003 166.761 218.815C166.558 218.626 166.261 218.532 165.87 218.532C165.479 218.532 165.167 218.655 164.935 218.902C164.718 219.134 164.609 219.394 164.609 219.684ZM174.889 225.726C173.962 225.726 173.339 225.183 173.02 224.096C172.716 223.01 172.564 221.51 172.564 219.597C172.564 218.728 172.6 218.003 172.673 217.424C172.76 216.83 172.955 216.33 173.259 215.924C173.578 215.504 174.064 215.294 174.716 215.294C175.121 215.294 175.476 215.388 175.781 215.576C176.099 215.765 176.302 216.033 176.389 216.381C176.708 216.091 177.121 215.874 177.628 215.729C178.135 215.584 178.678 215.511 179.258 215.511C179.722 215.511 180.193 215.627 180.671 215.859C181.163 216.091 181.569 216.41 181.888 216.815C182.221 217.207 182.388 217.634 182.388 218.098C182.388 218.561 182.221 218.974 181.888 219.336C181.569 219.684 181.142 219.858 180.606 219.858C180.432 219.858 180.265 219.836 180.106 219.793C179.961 219.749 179.83 219.706 179.714 219.662C179.425 219.547 179.193 219.489 179.019 219.489C178.454 219.489 177.954 219.713 177.519 220.162C177.099 220.597 176.889 221.162 176.889 221.858C176.889 222.626 176.86 223.263 176.802 223.77C176.744 224.277 176.57 224.734 176.28 225.139C175.991 225.531 175.527 225.726 174.889 225.726ZM188.933 225.726C187.861 225.726 186.912 225.516 186.086 225.096C185.26 224.676 184.615 224.089 184.151 223.336C183.702 222.568 183.478 221.706 183.478 220.749C183.478 219.807 183.702 218.938 184.151 218.141C184.615 217.344 185.253 216.707 186.064 216.228C186.875 215.75 187.796 215.511 188.824 215.511C189.752 215.511 190.57 215.7 191.28 216.076C191.99 216.453 192.534 216.953 192.91 217.576C193.287 218.185 193.475 218.822 193.475 219.489C193.475 220.575 193.062 221.372 192.237 221.879C191.425 222.372 190.454 222.618 189.324 222.618C188.571 222.618 187.933 222.524 187.412 222.336C187.846 223.046 188.563 223.401 189.563 223.401C189.969 223.401 190.404 223.35 190.867 223.249C191.041 223.205 191.208 223.183 191.367 223.183C191.686 223.183 191.939 223.263 192.128 223.422C192.331 223.582 192.432 223.799 192.432 224.075C192.432 224.524 192.157 224.915 191.606 225.248C191.056 225.567 190.165 225.726 188.933 225.726ZM187.477 219.684C187.607 219.887 187.781 220.039 187.998 220.141C188.23 220.228 188.484 220.271 188.759 220.271C189.078 220.271 189.353 220.199 189.585 220.054C189.831 219.909 189.954 219.72 189.954 219.489C189.954 219.228 189.846 219.003 189.628 218.815C189.426 218.626 189.129 218.532 188.737 218.532C188.346 218.532 188.035 218.655 187.803 218.902C187.585 219.134 187.477 219.394 187.477 219.684Z" fill="#555C40"/>
</g>
<defs>
<filter id="filter0_d_201_6487" x="0.000266075" y="0" width="289.04" height="288.04" filterUnits="userSpaceOnUse" color-interpolation-filters="sRGB">
<feFlood flood-opacity="0" result="BackgroundImageFix"/>
<feColorMatrix in="SourceAlpha" type="matrix" values="0 0 0 0 0 0 0 0 0 0 0 0 0 0 0 0 0 0 127 0" result="hardAlpha"/>
<feOffset dy="6.52024"/>
<feGaussianBlur stdDeviation="3.26012"/>
<feComposite in2="hardAlpha" operator="out"/>
<feColorMatrix type="matrix" values="0 0 0 0 0 0 0 0 0 0 0 0 0 0 0 0 0 0 0.25 0"/>
<feBlend mode="normal" in2="BackgroundImageFix" result="effect1_dropShadow_201_6487"/>
<feBlend mode="normal" in="SourceGraphic" in2="effect1_dropShadow_201_6487" result="shape"/>
</filter>
</defs>
</svg>
