<svg width="73" height="61" viewBox="0 0 73 61" fill="none" xmlns="http://www.w3.org/2000/svg">
<path fill-rule="evenodd" clip-rule="evenodd" d="M0 19.9167C0 8.66667 9.875 0 21.4583 0C27.4292 0 32.6875 2.8 36.4583 6.425C40.2292 2.8 45.4833 0 51.4583 0C63.0417 0 72.9167 8.66667 72.9167 19.9167C72.9167 27.625 69.6292 34.4 65.075 40.1333C60.5333 45.85 54.5833 50.7042 48.8917 54.65C46.7125 56.1583 44.5167 57.5458 42.5 58.5708C40.6125 59.5333 38.4375 60.4167 36.4583 60.4167C34.4792 60.4167 32.3083 59.5333 30.4167 58.5708C28.2057 57.4022 26.0721 56.0925 24.0292 54.65C18.3333 50.7042 12.3875 45.85 7.84167 40.1333C3.2875 34.4 0 27.625 0 19.9167ZM21.4583 6.25C12.7917 6.25 6.25 12.625 6.25 19.9167C6.25 25.7625 8.73334 31.2083 12.7333 36.2417C16.7417 41.2833 22.1375 45.7375 27.5875 49.5125C29.65 50.9417 31.5875 52.1542 33.2542 53.0042C35.0375 53.9125 36.0708 54.1667 36.4583 54.1667C36.8458 54.1667 37.8792 53.9125 39.6667 53C41.6309 51.9646 43.524 50.7995 45.3333 49.5125C50.7792 45.7375 56.175 41.2875 60.1833 36.2417C64.1833 31.2083 66.6667 25.7625 66.6667 19.9167C66.6667 12.625 60.125 6.25 51.4583 6.25C46.4833 6.25 41.8333 9.22084 38.9375 12.9958C38.6457 13.3761 38.2703 13.6841 37.8404 13.8961C37.4105 14.1081 36.9377 14.2184 36.4583 14.2184C35.979 14.2184 35.5061 14.1081 35.0762 13.8961C34.6463 13.6841 34.271 13.3761 33.9792 12.9958C31.0833 9.22084 26.4375 6.25 21.4583 6.25Z" fill="#8A2151"/>
</svg>
