<svg width="415" height="602" viewBox="0 0 415 602" fill="none" xmlns="http://www.w3.org/2000/svg">
<g filter="url(#filter0_d_285_1686)">
<path d="M197.913 434.892C198.013 434.892 178.776 434.892 148.307 434.749C129.716 434.662 121.594 430.498 115.309 427.342C109.039 424.195 105.189 411.857 102.321 399.312C100.757 392.473 100.956 382.678 101.23 373.593C101.685 358.465 109.723 335.923 116.79 311.317C122.088 292.872 130.015 276.285 134.953 263.424C139.016 252.845 142 239.304 146.568 224.904C150.768 211.667 156.799 200.459 161.362 190.394C166.71 178.597 171.029 157.668 174.549 146.328C178.642 133.144 187.43 123.453 195.142 113.908C201.276 106.316 215.359 105.509 224.7 109.607C230.389 112.103 235.647 128.318 240.797 138.969C245.301 148.285 249.162 160.301 253.557 172.312C257.578 183.299 262.726 200.339 268.983 225.367C273.92 245.111 279.775 263.734 283.947 276.869C290.125 296.322 291.832 313.699 292.813 335.37C294.205 366.14 292.517 389.184 290.84 394.561C287.129 406.458 281.158 411.331 275.979 420.397C271.414 428.389 265.817 435.369 259.898 442.448C254.759 448.594 248.801 451.292 242.495 454.787C236.601 458.054 230.196 459.525 221.987 461.971C213.451 464.513 206.344 465.243 190.974 465.699C177.088 466.111 150.844 466.252 136.624 466.107C116.405 465.9 107.459 457.226 100.224 453.516C94.3388 450.498 88.6333 448.141 83.0189 441.893C80.4336 439.016 80.1519 429.812 79.4654 420.606C77.0102 387.678 84.7347 360.961 91.718 337.017C97.2568 318.026 103.47 295.233 109.473 277.049C116.645 255.327 121.927 235.444 130.602 211.584C138.19 190.713 144.647 174.605 159.474 148.707C166.269 136.837 171.95 129.664 178.271 124.407C184.134 119.531 189.847 119.339 195.401 117.365C196.809 116.914 198.191 116.315 200.891 116.003C203.59 115.691 207.565 115.682 213.58 119.606" stroke="#B186A4" stroke-width="214.328" stroke-linecap="round"/>
<path d="M128.709 144.931C128.643 144.931 127.822 145.28 126.624 146.234C126.052 146.689 126.202 147.687 126.583 147.946C127.54 148.596 129.304 146.943 130.601 145.695C131.24 145.081 131.385 144.107 131.123 143.458C130.567 142.083 127.506 142.003 124.459 142.239C122.266 142.409 120.895 144.009 119.817 145.349C118.699 146.74 119.176 149.481 119.578 151.947C120.163 155.541 126.699 154.377 131.418 154.142C134.988 153.964 133.843 148.599 133.831 146.897C133.673 146.073 133.208 145.33 132.543 144.857C131.878 144.384 131.027 144.204 129.461 143.692" stroke="white" stroke-width="53.5821" stroke-linecap="round"/>
<path d="M303.184 143.295C303.119 143.304 302.347 143.752 301.276 144.846C300.764 145.368 301.036 146.34 301.446 146.549C302.476 147.077 304.023 145.22 305.157 143.821C305.715 143.132 305.738 142.148 305.398 141.536C304.678 140.24 301.63 140.538 298.635 141.148C296.48 141.587 295.316 143.343 294.412 144.806C293.473 146.324 294.285 148.986 294.987 151.384C296.011 154.878 302.354 152.917 307.008 152.102C310.529 151.486 308.731 146.303 308.509 144.616C308.251 143.817 307.698 143.137 306.98 142.75C306.262 142.362 305.396 142.288 303.778 141.973" stroke="white" stroke-width="53.5821" stroke-linecap="round"/>
<path d="M314.818 200.983C315.771 200.695 318.979 200.042 324.136 200.559C327.645 200.911 330.559 200.149 341.118 196.754C343.214 196.08 343.035 195.07 342.868 194.348C342.701 193.625 342.441 192.94 341.918 192.466C338.713 189.562 328.585 192.708 322.624 193.808C316.682 194.905 312.411 197.751 311.31 199.794C310.822 200.698 310.748 201.468 310.835 202.204C310.923 202.941 311.242 203.656 312.017 204.008C315.642 205.651 318.919 204.561 322.32 204.974C325.252 205.33 328.212 204.733 331.75 203.926C334.912 203.433 337.08 203.071 338.603 202.674C339.44 202.453 340.41 202.193 341.687 200.123" stroke="#D2BCCC" stroke-width="16.0746" stroke-linecap="round"/>
<path d="M104.648 203.58C105.643 203.58 108.903 203.882 113.691 205.867C116.949 207.217 119.958 207.33 131.048 207.13C133.249 207.091 133.369 206.073 133.418 205.332C133.467 204.592 133.416 203.862 133.053 203.257C130.823 199.55 120.219 199.636 114.194 198.967C108.188 198.3 103.277 199.791 101.632 201.428C100.904 202.153 100.611 202.868 100.482 203.599C100.353 204.329 100.452 205.106 101.093 205.667C104.088 208.287 107.54 208.19 110.676 209.568C113.381 210.756 116.387 211.04 120.008 211.29C123.176 211.732 125.357 212.012 126.929 212.071C127.795 212.102 128.798 212.133 130.619 210.521" stroke="#D2BCCC" stroke-width="16.0746" stroke-linecap="round"/>
<path d="M207.764 212.626C208.071 212.809 211.681 215.645 215.124 218.241C217.406 219.962 221.653 220.753 225.589 221.426C233.256 222.737 235.094 221.196 236.648 220.589C238.543 219.848 240.421 218.467 241.837 217.217C244.478 214.954 245.774 213.531 246.939 211.923C247.202 211.541 247.402 211.22 247.939 210.266" stroke="white" stroke-width="10.7164" stroke-linecap="round"/>
<path d="M330.633 142.004C330.592 142.009 329.82 142.059 328.521 142.39C327.924 142.542 327.655 143.193 327.535 143.819C327.415 144.444 327.503 145.16 327.716 145.731C327.929 146.302 328.263 146.706 328.692 146.971C329.12 147.237 329.632 147.35 330.027 147.137C331.912 146.116 331.638 143.676 331.614 142.531C331.603 141.983 331.19 141.547 330.737 141.248C329.797 140.63 328.565 140.463 327.57 140.325C327.108 140.398 326.731 140.759 326.494 141.211C326.256 141.664 326.17 142.196 325.847 143.563" stroke="black" stroke-width="26.791" stroke-linecap="round"/>
<path d="M158.972 148.379C158.931 148.379 158.158 148.333 156.828 148.501C156.217 148.579 155.87 149.192 155.674 149.798C155.478 150.404 155.477 151.125 155.618 151.718C155.759 152.311 156.041 152.753 156.433 153.069C156.826 153.385 157.32 153.561 157.738 153.398C159.734 152.617 159.763 150.162 159.881 149.023C159.937 148.478 159.581 147.994 159.168 147.642C158.312 146.912 157.109 146.595 156.139 146.336C155.671 146.35 155.253 146.663 154.962 147.082C154.671 147.502 154.519 148.02 154.03 149.337" stroke="black" stroke-width="26.791" stroke-linecap="round"/>
<path d="M156.662 144.334H156.719" stroke="black" stroke-width="26.791" stroke-linecap="round"/>
<path d="M325.575 135.388C325.58 135.427 325.909 135.005 326.202 134.514C326.233 134.462 325.765 134.82 325.698 135.226C325.631 135.633 325.912 136.08 326.122 136.049C326.332 136.019 326.463 135.498 325.953 134.816" stroke="white" stroke-width="5.35821" stroke-linecap="round"/>
<path d="M154.407 141.408C154.407 141.447 154.786 141.069 155.137 140.618C155.174 140.57 154.666 140.868 154.549 141.263C154.432 141.658 154.657 142.136 154.869 142.131C155.081 142.127 155.275 141.626 154.853 140.887" stroke="white" stroke-width="5.35821" stroke-linecap="round"/>
</g>
<defs>
<filter id="filter0_d_285_1686" x="-42.1506" y="0" width="456.643" height="601.326" filterUnits="userSpaceOnUse" color-interpolation-filters="sRGB">
<feFlood flood-opacity="0" result="BackgroundImageFix"/>
<feColorMatrix in="SourceAlpha" type="matrix" values="0 0 0 0 0 0 0 0 0 0 0 0 0 0 0 0 0 0 127 0" result="hardAlpha"/>
<feOffset dy="14"/>
<feGaussianBlur stdDeviation="7"/>
<feComposite in2="hardAlpha" operator="out"/>
<feColorMatrix type="matrix" values="0 0 0 0 0 0 0 0 0 0 0 0 0 0 0 0 0 0 0.25 0"/>
<feBlend mode="normal" in2="BackgroundImageFix" result="effect1_dropShadow_285_1686"/>
<feBlend mode="normal" in="SourceGraphic" in2="effect1_dropShadow_285_1686" result="shape"/>
</filter>
</defs>
</svg>
