<svg width="290" height="289" viewBox="0 0 290 289" fill="none" xmlns="http://www.w3.org/2000/svg">
<g filter="url(#filter0_d_201_6590)">
<path d="M6.9873 137.349C6.9873 61.4933 69.1315 0 144.987 0C220.843 0 282.987 61.4933 282.987 137.349C282.987 213.205 220.843 274.698 144.987 274.698C69.1315 274.698 6.9873 213.205 6.9873 137.349Z" fill="#EFE5FA"/>
<path d="M145.217 147.454C145.244 147.454 140.064 147.454 131.861 147.416C126.855 147.392 124.668 146.281 122.976 145.439C121.288 144.599 120.251 141.307 119.479 137.959C119.058 136.134 119.112 133.521 119.185 131.096C119.308 127.059 121.472 121.044 123.375 114.478C124.801 109.556 126.936 105.13 128.265 101.698C129.359 98.8751 130.162 95.2616 131.392 91.4192C132.523 87.8868 134.147 84.8959 135.376 82.2102C136.816 79.0622 137.978 73.4774 138.926 70.4512C140.028 66.9332 142.394 64.3472 144.471 61.8002C146.122 59.7743 149.914 59.5589 152.429 60.6524C153.961 61.3185 155.376 65.6454 156.763 68.4875C157.976 70.9734 159.015 74.1801 160.199 77.3851C161.281 80.3168 162.667 84.8639 164.352 91.5425C165.681 96.8113 167.257 101.781 168.381 105.286C170.044 110.477 170.504 115.114 170.768 120.896C171.143 129.107 170.688 135.257 170.237 136.692C169.238 139.866 167.63 141.167 166.235 143.586C165.006 145.718 163.499 147.581 161.906 149.47C160.522 151.11 158.918 151.83 157.22 152.763C155.633 153.635 153.909 154.027 151.698 154.68C149.4 155.358 147.487 155.553 143.348 155.674C139.61 155.784 132.544 155.822 128.715 155.783C123.271 155.728 120.863 153.414 118.915 152.424C117.33 151.618 115.794 150.989 114.282 149.322C113.586 148.554 113.51 146.098 113.326 143.641C112.664 134.855 114.744 127.725 116.624 121.336C118.116 116.268 119.789 110.186 121.405 105.334C123.336 99.5373 124.758 94.2316 127.094 87.8646C129.137 82.2954 130.875 77.9968 134.867 71.086C136.697 67.9188 138.226 66.0046 139.928 64.6017C141.507 63.3007 143.045 63.2495 144.54 62.7226C144.919 62.6022 145.292 62.4425 146.018 62.3592C146.745 62.2758 147.815 62.2735 149.435 63.3207" stroke="#B186A4" stroke-width="57.7064" stroke-linecap="round"/>
<path d="M126.584 70.078C126.567 70.078 126.346 70.1713 126.023 70.4258C125.869 70.5473 125.91 70.8135 126.012 70.8825C126.27 71.056 126.745 70.6151 127.094 70.2819C127.266 70.118 127.305 69.8581 127.234 69.6849C127.085 69.318 126.261 69.2967 125.44 69.3598C124.85 69.4051 124.481 69.832 124.191 70.1895C123.889 70.5606 124.018 71.2923 124.126 71.9504C124.284 72.9093 126.043 72.5986 127.314 72.5359C128.275 72.4884 127.967 71.0568 127.964 70.6026C127.921 70.3828 127.796 70.1845 127.617 70.0583C127.438 69.9321 127.209 69.884 126.787 69.7473" stroke="white" stroke-width="14.4266" stroke-linecap="round"/>
<path d="M173.562 69.6415C173.544 69.6436 173.336 69.7632 173.048 70.0552C172.91 70.1945 172.983 70.4538 173.094 70.5097C173.371 70.6505 173.788 70.1549 174.093 69.7816C174.243 69.5979 174.25 69.3353 174.158 69.172C173.964 68.8261 173.143 68.9057 172.337 69.0685C171.757 69.1856 171.443 69.6543 171.2 70.0445C170.947 70.4495 171.166 71.1599 171.355 71.7998C171.631 72.7322 173.338 72.209 174.591 71.9915C175.539 71.8271 175.055 70.4441 174.996 69.9937C174.926 69.7807 174.777 69.5992 174.584 69.4959C174.391 69.3925 174.157 69.3727 173.722 69.2886" stroke="white" stroke-width="14.4266" stroke-linecap="round"/>
<path d="M176.693 85.0358C176.95 84.9591 177.814 84.7848 179.202 84.9227C180.147 85.0166 180.931 84.8133 183.774 83.9073C184.339 83.7274 184.29 83.458 184.246 83.2652C184.201 83.0723 184.131 82.8896 183.99 82.7632C183.127 81.9882 180.4 82.8277 178.795 83.1212C177.195 83.4139 176.045 84.1735 175.749 84.7186C175.617 84.9599 175.598 85.1652 175.621 85.3618C175.645 85.5584 175.731 85.7492 175.939 85.843C176.915 86.2816 177.798 85.9905 178.713 86.1007C179.503 86.1957 180.3 86.0365 181.252 85.8211C182.103 85.6897 182.687 85.5931 183.097 85.4871C183.323 85.4281 183.584 85.3586 183.928 84.8065" stroke="#D2BCCC" stroke-width="4.32798" stroke-linecap="round"/>
<path d="M120.106 85.7281C120.373 85.7281 121.251 85.8086 122.54 86.3383C123.417 86.6988 124.228 86.7288 127.214 86.6756C127.806 86.665 127.839 86.3933 127.852 86.1958C127.865 85.9983 127.851 85.8033 127.753 85.6419C127.153 84.6529 124.298 84.6757 122.676 84.4971C121.059 84.3191 119.737 84.7171 119.294 85.1539C119.098 85.3474 119.019 85.5382 118.984 85.7331C118.949 85.9281 118.976 86.1354 119.148 86.2849C119.955 86.9843 120.884 86.9583 121.729 87.326C122.457 87.6431 123.266 87.7189 124.241 87.7855C125.094 87.9034 125.681 87.9782 126.105 87.994C126.338 88.0021 126.608 88.0104 127.098 87.5803" stroke="#D2BCCC" stroke-width="4.32798" stroke-linecap="round"/>
<path d="M147.869 88.1422C147.952 88.1911 148.924 88.9479 149.851 89.6406C150.465 90.0999 151.609 90.3108 152.668 90.4904C154.733 90.8403 155.228 90.429 155.646 90.2671C156.156 90.0695 156.662 89.7009 157.043 89.3675C157.754 88.7635 158.103 88.3839 158.417 87.9547C158.487 87.8528 158.541 87.767 158.686 87.5126" stroke="white" stroke-width="2.88532" stroke-linecap="round"/>
<path d="M180.951 69.2971C180.94 69.2984 180.732 69.3116 180.382 69.4C180.221 69.4406 180.149 69.6145 180.117 69.7814C180.084 69.9483 180.108 70.1392 180.165 70.2915C180.222 70.4439 180.313 70.5518 180.428 70.6226C180.543 70.6934 180.681 70.7237 180.787 70.6667C181.295 70.3943 181.221 69.7432 181.215 69.4378C181.212 69.2915 181.101 69.1751 180.979 69.0954C180.726 68.9303 180.394 68.8859 180.126 68.8491C180.001 68.8684 179.9 68.9648 179.836 69.0855C179.772 69.2062 179.749 69.3483 179.662 69.7132" stroke="black" stroke-width="7.2133" stroke-linecap="round"/>
<path d="M134.732 70.9978C134.721 70.9978 134.513 70.9856 134.155 71.0305C133.99 71.0512 133.897 71.2149 133.844 71.3766C133.791 71.5383 133.791 71.7307 133.829 71.8888C133.867 72.047 133.943 72.1651 134.048 72.2495C134.154 72.3338 134.287 72.3808 134.4 72.3371C134.937 72.1288 134.945 71.4736 134.977 71.1698C134.992 71.0242 134.896 70.8952 134.785 70.8012C134.554 70.6064 134.23 70.5218 133.969 70.4526C133.843 70.4566 133.731 70.5399 133.652 70.6518C133.574 70.7638 133.533 70.902 133.401 71.2535" stroke="black" stroke-width="7.2133" stroke-linecap="round"/>
<path d="M134.11 69.9187H134.127" stroke="black" stroke-width="7.2133" stroke-linecap="round"/>
<path d="M179.589 67.5313C179.59 67.5417 179.679 67.4292 179.758 67.2981C179.766 67.2844 179.64 67.3798 179.622 67.4883C179.604 67.5967 179.68 67.7159 179.736 67.7078C179.793 67.6997 179.828 67.5607 179.691 67.3787" stroke="white" stroke-width="1.44266" stroke-linecap="round"/>
<path d="M133.503 69.1379C133.503 69.1484 133.605 69.0476 133.699 68.9271C133.709 68.9145 133.573 68.9938 133.541 69.0992C133.51 69.2047 133.57 69.3322 133.627 69.331C133.684 69.3299 133.736 69.1962 133.623 68.9989" stroke="white" stroke-width="1.44266" stroke-linecap="round"/>
<path d="M84.9311 214.786C85.8472 214.786 86.6003 214.833 87.1903 214.926C87.7959 215.003 88.285 215.19 88.6577 215.485C89.0459 215.764 89.24 216.191 89.24 216.766C89.24 217.589 88.9217 218.132 88.285 218.396C87.6639 218.66 86.7556 218.792 85.56 218.792L83.6268 218.769L82.1595 218.792C82.2216 219.382 82.2526 219.848 82.2526 220.189C82.2526 221.913 81.5694 222.775 80.203 222.775C79.0695 222.775 78.1767 222.146 77.5245 220.888C76.8879 219.631 76.5696 217.666 76.5696 214.996C76.5696 213.35 76.9112 211.882 77.5944 210.594C78.2931 209.305 79.2403 208.303 80.4359 207.589C81.6315 206.859 82.9436 206.494 84.3721 206.494C86.1422 206.494 87.4854 206.797 88.4015 207.403C89.3331 208.008 89.799 208.854 89.799 209.941C89.799 210.702 89.6126 211.285 89.24 211.688C88.8828 212.076 88.3782 212.34 87.726 212.48C87.0894 212.604 86.2432 212.666 85.1873 212.666C84.3333 212.666 83.5957 212.837 82.9746 213.179C82.3691 213.52 82.0352 213.994 81.9731 214.6L81.9498 214.809C82.1362 214.794 82.4157 214.786 82.7883 214.786H83.6268H84.9311ZM97.9547 222.821C96.8367 222.837 95.8352 222.604 94.9501 222.123C94.0806 221.641 93.3974 220.981 92.9005 220.143C92.4191 219.289 92.1629 218.342 92.1319 217.301C92.1164 216.261 92.357 215.329 92.8539 214.506C93.3508 213.683 94.0418 213.031 94.9268 212.55C95.8274 212.069 96.8367 211.828 97.9547 211.828C99.0416 211.828 100.02 212.061 100.889 212.527C101.774 212.993 102.473 213.645 102.986 214.483C103.498 215.322 103.77 216.261 103.801 217.301C103.816 218.311 103.576 219.235 103.079 220.073C102.582 220.896 101.883 221.556 100.983 222.053C100.097 222.55 99.0882 222.806 97.9547 222.821ZM98.0245 219.421C98.4438 219.421 98.8087 219.258 99.1192 218.932C99.4298 218.606 99.5851 218.225 99.5851 217.791C99.5851 217.356 99.4298 216.983 99.1192 216.673C98.8087 216.346 98.4438 216.183 98.0245 216.183C97.6053 216.183 97.2404 216.346 96.9299 216.673C96.6193 216.983 96.464 217.356 96.464 217.791C96.464 218.225 96.6193 218.606 96.9299 218.932C97.2404 219.258 97.6053 219.421 98.0245 219.421ZM108.389 222.798C107.396 222.798 106.728 222.216 106.386 221.051C106.06 219.887 105.897 218.28 105.897 216.23C105.897 215.298 105.936 214.522 106.014 213.901C106.107 213.264 106.317 212.729 106.643 212.294C106.984 211.843 107.504 211.618 108.203 211.618C108.638 211.618 109.018 211.719 109.344 211.921C109.686 212.123 109.903 212.41 109.997 212.783C110.338 212.472 110.781 212.239 111.324 212.084C111.868 211.929 112.45 211.851 113.071 211.851C113.568 211.851 114.073 211.975 114.585 212.224C115.113 212.472 115.548 212.814 115.889 213.249C116.246 213.668 116.425 214.126 116.425 214.623C116.425 215.12 116.246 215.562 115.889 215.951C115.548 216.323 115.09 216.509 114.515 216.509C114.329 216.509 114.15 216.486 113.979 216.44C113.824 216.393 113.684 216.346 113.56 216.3C113.25 216.176 113.001 216.114 112.815 216.114C112.209 216.114 111.674 216.354 111.208 216.836C110.757 217.301 110.532 217.907 110.532 218.652C110.532 219.475 110.501 220.158 110.439 220.702C110.377 221.245 110.191 221.734 109.88 222.169C109.57 222.588 109.073 222.798 108.389 222.798ZM123.136 222.798C122.034 222.798 121.056 222.534 120.202 222.006C119.363 221.463 118.719 220.764 118.268 219.91C117.818 219.04 117.593 218.117 117.593 217.138C117.593 215.989 117.826 215.019 118.292 214.227C118.773 213.42 119.386 212.822 120.132 212.434C120.893 212.045 121.708 211.851 122.577 211.851C123.447 211.851 124.223 212.038 124.906 212.41C124.875 212.084 124.813 211.735 124.72 211.362C124.642 210.989 124.588 210.757 124.557 210.663C124.433 210.182 124.34 209.778 124.277 209.452C124.215 209.126 124.184 208.8 124.184 208.474C124.184 207.822 124.378 207.325 124.767 206.983C125.155 206.642 125.621 206.471 126.164 206.471C127.034 206.471 127.74 206.906 128.284 207.775C128.827 208.645 129.215 209.724 129.448 211.013C129.697 212.302 129.821 213.606 129.821 214.926C129.821 216.711 129.409 218.474 128.586 220.213C127.779 221.936 125.962 222.798 123.136 222.798ZM123.276 219.118C123.695 219.118 124.06 218.963 124.371 218.652C124.681 218.326 124.836 217.946 124.836 217.511C124.836 217.076 124.681 216.696 124.371 216.37C124.06 216.044 123.695 215.881 123.276 215.881C122.857 215.881 122.484 216.044 122.158 216.37C121.847 216.696 121.692 217.076 121.692 217.511C121.692 217.946 121.847 218.326 122.158 218.652C122.484 218.963 122.857 219.118 123.276 219.118ZM134.425 211.502C133.664 211.502 133.019 211.23 132.491 210.687C131.964 210.128 131.7 209.452 131.7 208.66C131.7 207.884 131.964 207.224 132.491 206.681C133.019 206.122 133.664 205.842 134.425 205.842C135.17 205.842 135.807 206.122 136.334 206.681C136.878 207.224 137.15 207.884 137.15 208.66C137.15 209.452 136.878 210.128 136.334 210.687C135.807 211.23 135.17 211.502 134.425 211.502ZM134.425 222.798C133.788 222.798 133.314 222.62 133.004 222.262C132.709 221.89 132.507 221.339 132.398 220.609C132.305 219.863 132.259 218.808 132.259 217.441C132.259 216.292 132.313 215.384 132.422 214.716C132.546 214.048 132.763 213.552 133.074 213.225C133.384 212.899 133.835 212.736 134.425 212.736C135.061 212.736 135.527 212.923 135.822 213.295C136.133 213.652 136.334 214.204 136.428 214.949C136.536 215.679 136.591 216.727 136.591 218.093C136.591 219.242 136.529 220.151 136.404 220.818C136.296 221.486 136.086 221.983 135.775 222.309C135.465 222.635 135.015 222.798 134.425 222.798ZM153.174 222.798C152.071 222.798 151.093 222.534 150.239 222.006C149.4 221.463 148.756 220.764 148.306 219.91C147.855 219.04 147.63 218.117 147.63 217.138C147.63 215.989 147.863 215.019 148.329 214.227C148.81 213.42 149.424 212.822 150.169 212.434C150.93 212.045 151.745 211.851 152.615 211.851C153.484 211.851 154.261 212.038 154.944 212.41C154.913 212.084 154.851 211.735 154.757 211.362C154.68 210.989 154.625 210.757 154.594 210.663C154.47 210.182 154.377 209.778 154.315 209.452C154.253 209.126 154.222 208.8 154.222 208.474C154.222 207.822 154.416 207.325 154.804 206.983C155.192 206.642 155.658 206.471 156.201 206.471C157.071 206.471 157.777 206.906 158.321 207.775C158.864 208.645 159.253 209.724 159.486 211.013C159.734 212.302 159.858 213.606 159.858 214.926C159.858 216.711 159.447 218.474 158.624 220.213C157.816 221.936 156 222.798 153.174 222.798ZM153.313 219.118C153.733 219.118 154.097 218.963 154.408 218.652C154.719 218.326 154.874 217.946 154.874 217.511C154.874 217.076 154.719 216.696 154.408 216.37C154.097 216.044 153.733 215.881 153.313 215.881C152.894 215.881 152.521 216.044 152.195 216.37C151.885 216.696 151.73 217.076 151.73 217.511C151.73 217.946 151.885 218.326 152.195 218.652C152.521 218.963 152.894 219.118 153.313 219.118ZM167.373 222.798C166.24 222.798 165.246 222.519 164.392 221.96C163.538 221.385 162.878 220.593 162.412 219.584C161.962 218.559 161.737 217.379 161.737 216.044C161.737 214.739 161.947 213.715 162.366 212.969C162.785 212.224 163.367 211.851 164.113 211.851C165.432 211.851 166.092 212.527 166.092 213.878C166.092 214.157 166.085 214.406 166.069 214.623C166.054 214.825 166.038 215.003 166.022 215.159C165.96 215.78 165.929 216.277 165.929 216.649C165.929 217.332 166.069 217.853 166.349 218.21C166.628 218.567 166.97 218.745 167.373 218.745C167.793 218.745 168.134 218.575 168.398 218.233C168.678 217.876 168.817 217.348 168.817 216.649C168.817 216.152 168.794 215.694 168.748 215.275C168.732 215.135 168.716 214.933 168.701 214.669C168.685 214.39 168.678 214.134 168.678 213.901C168.678 212.534 169.338 211.851 170.657 211.851C171.403 211.851 171.977 212.224 172.381 212.969C172.8 213.699 173.01 214.724 173.01 216.044C173.01 218.109 172.528 219.755 171.566 220.981C170.603 222.193 169.206 222.798 167.373 222.798ZM188.031 222.798C186.664 222.798 185.577 222.573 184.77 222.123C183.962 221.672 183.559 221.09 183.559 220.376C183.559 219.91 183.714 219.553 184.025 219.304C184.351 219.04 184.762 218.908 185.259 218.908C185.538 218.908 185.764 218.947 185.934 219.025C186.105 219.103 186.276 219.211 186.447 219.351C186.571 219.46 186.672 219.537 186.75 219.584C186.843 219.631 186.951 219.654 187.076 219.654C187.402 219.654 187.565 219.537 187.565 219.304C187.565 219.087 187.479 218.924 187.309 218.815C187.138 218.691 186.843 218.544 186.424 218.373C186.035 218.218 185.779 218.109 185.655 218.047C184.941 217.705 184.413 217.301 184.071 216.836C183.73 216.37 183.559 215.873 183.559 215.345C183.559 214.755 183.768 214.196 184.188 213.668C184.622 213.125 185.228 212.69 186.004 212.364C186.796 212.022 187.705 211.851 188.729 211.851C189.614 211.851 190.414 211.975 191.128 212.224C191.858 212.472 192.433 212.814 192.852 213.249C193.271 213.668 193.481 214.134 193.481 214.646C193.481 215.128 193.325 215.492 193.015 215.741C192.72 215.989 192.316 216.114 191.804 216.114C191.602 216.114 191.439 216.098 191.315 216.067C191.206 216.02 191.058 215.95 190.872 215.857C190.763 215.795 190.647 215.741 190.523 215.694C190.414 215.648 190.29 215.624 190.15 215.624C190.026 215.624 189.917 215.671 189.824 215.764C189.731 215.842 189.684 215.943 189.684 216.067C189.684 216.3 189.855 216.471 190.197 216.579C191.097 216.874 191.819 217.247 192.363 217.697C192.922 218.148 193.201 218.769 193.201 219.561C193.201 220.57 192.728 221.362 191.78 221.936C190.849 222.511 189.599 222.798 188.031 222.798ZM199.993 222.798C198.781 222.798 197.788 222.526 197.011 221.983C196.235 221.424 195.847 220.624 195.847 219.584C195.847 218.683 196.243 217.969 197.035 217.441C197.827 216.913 198.813 216.649 199.993 216.649C200.427 216.649 200.831 216.688 201.204 216.766C201.592 216.828 201.856 216.905 201.996 216.999C201.996 216.61 201.833 216.292 201.507 216.044C201.18 215.78 200.684 215.648 200.016 215.648C199.721 215.648 199.48 215.671 199.294 215.718C199.108 215.764 198.906 215.834 198.688 215.927C198.471 216.02 198.269 216.09 198.083 216.137C197.912 216.183 197.679 216.207 197.384 216.207C196.887 216.207 196.499 216.082 196.219 215.834C195.94 215.57 195.8 215.174 195.8 214.646C195.8 214.041 196.018 213.528 196.452 213.109C196.903 212.69 197.462 212.379 198.129 212.177C198.797 211.96 199.465 211.851 200.132 211.851C201.452 211.851 202.555 212.1 203.44 212.597C204.34 213.078 205 213.722 205.419 214.53C205.854 215.337 206.072 216.23 206.072 217.208C206.072 217.736 206.025 218.225 205.932 218.676C205.854 219.126 205.746 219.475 205.606 219.724C205.823 219.91 205.986 220.127 206.095 220.376C206.219 220.624 206.281 220.88 206.281 221.144C206.281 221.595 206.126 221.983 205.815 222.309C205.52 222.635 205.124 222.798 204.628 222.798C204.255 222.798 203.952 222.744 203.719 222.635C203.486 222.526 203.238 222.356 202.974 222.123C202.586 222.356 202.159 222.526 201.693 222.635C201.243 222.744 200.676 222.798 199.993 222.798ZM200.458 220.446C200.785 220.446 201.041 220.376 201.227 220.236C201.429 220.096 201.53 219.926 201.53 219.724C201.53 219.522 201.429 219.351 201.227 219.211C201.041 219.072 200.785 219.002 200.458 219.002C200.132 219.002 199.868 219.072 199.667 219.211C199.48 219.351 199.387 219.522 199.387 219.724C199.387 219.926 199.48 220.096 199.667 220.236C199.868 220.376 200.132 220.446 200.458 220.446ZM200.808 211.316C200.109 211.316 199.496 211.059 198.968 210.547C198.44 210.019 198.176 209.398 198.176 208.684C198.176 208.233 198.292 207.806 198.525 207.403C198.774 206.999 199.1 206.681 199.504 206.448C199.923 206.199 200.358 206.075 200.808 206.075C201.258 206.075 201.685 206.199 202.089 206.448C202.508 206.681 202.834 206.999 203.067 207.403C203.315 207.806 203.44 208.233 203.44 208.684C203.44 209.398 203.176 210.019 202.648 210.547C202.12 211.059 201.507 211.316 200.808 211.316ZM200.808 209.452C200.994 209.452 201.157 209.382 201.297 209.243C201.437 209.087 201.507 208.917 201.507 208.73C201.507 208.544 201.437 208.381 201.297 208.241C201.157 208.086 200.994 208.008 200.808 208.008C200.621 208.008 200.451 208.086 200.295 208.241C200.156 208.381 200.086 208.544 200.086 208.73C200.086 208.917 200.156 209.087 200.295 209.243C200.451 209.382 200.621 209.452 200.808 209.452ZM213.082 221.96C212.601 222.441 212.034 222.682 211.382 222.682C210.73 222.682 210.163 222.441 209.682 221.96C209.2 221.478 208.96 220.912 208.96 220.259C208.96 219.607 209.2 219.04 209.682 218.559C210.163 218.078 210.73 217.837 211.382 217.837C212.034 217.837 212.601 218.078 213.082 218.559C213.564 219.04 213.804 219.607 213.804 220.259C213.804 220.912 213.564 221.478 213.082 221.96ZM220.252 221.96C219.77 222.441 219.203 222.682 218.551 222.682C217.899 222.682 217.332 222.441 216.851 221.96C216.37 221.478 216.129 220.912 216.129 220.259C216.129 219.607 216.37 219.04 216.851 218.559C217.332 218.078 217.899 217.837 218.551 217.837C219.203 217.837 219.77 218.078 220.252 218.559C220.733 219.04 220.974 219.607 220.974 220.259C220.974 220.912 220.733 221.478 220.252 221.96Z" fill="#674A5F"/>
</g>
<defs>
<filter id="filter0_d_201_6590" x="-3.71933e-05" y="0" width="289.975" height="288.673" filterUnits="userSpaceOnUse" color-interpolation-filters="sRGB">
<feFlood flood-opacity="0" result="BackgroundImageFix"/>
<feColorMatrix in="SourceAlpha" type="matrix" values="0 0 0 0 0 0 0 0 0 0 0 0 0 0 0 0 0 0 127 0" result="hardAlpha"/>
<feOffset dy="6.98734"/>
<feGaussianBlur stdDeviation="3.49367"/>
<feComposite in2="hardAlpha" operator="out"/>
<feColorMatrix type="matrix" values="0 0 0 0 0 0 0 0 0 0 0 0 0 0 0 0 0 0 0.25 0"/>
<feBlend mode="normal" in2="BackgroundImageFix" result="effect1_dropShadow_201_6590"/>
<feBlend mode="normal" in="SourceGraphic" in2="effect1_dropShadow_201_6590" result="shape"/>
</filter>
</defs>
</svg>
