<svg width="308" height="81" viewBox="0 0 308 81" fill="none" xmlns="http://www.w3.org/2000/svg">
<path d="M9.02081 20.0304V9.55295H10.2431C14.4002 9.55295 16.1573 11.1307 16.1573 14.7054C16.1573 18.28 14.8522 20.0304 10.5487 20.0304H9.02081ZM9.02081 38.9945V26.7544H10.9689C14.9222 26.7544 17.5833 28.437 17.5833 32.7204C17.5833 36.6771 16.7111 38.9945 11.2872 38.9945H9.02081ZM26.7123 33.2812C26.7123 27.8823 24.1658 24.9239 19.1239 23.2352C23.7902 21.8485 25.1908 17.639 25.1908 14.0644C25.1908 7.77795 21.3711 2.57005 13.4453 2.57005H0V45.9712H14.2092C23.8157 45.9712 26.7059 39.4321 26.7059 33.2812H26.7123ZM52.4951 0L51.1264 3.26649C49.0154 2.48534 46.7719 2.09441 44.512 2.11397C35.5549 2.11397 28.9341 7.51293 28.9341 17.8794V30.7173C28.9341 36.3751 30.8821 40.5106 34.0652 43.0869L32.0535 47.8017H36.1978L37.3756 45.1022C39.6548 46.0146 42.1034 46.4635 44.5693 46.4211C53.5265 46.4211 60.1472 41.2687 60.1472 30.6495V17.8239C60.1472 11.9751 58.0019 7.72248 54.5005 5.06614L56.6459 0.0184896L52.4951 0ZM50.4834 14.4342C50.5376 14.9932 50.5567 15.5559 50.5407 16.1167V32.4677C50.5407 37.7434 48.4081 39.2472 44.512 39.2472C43.0201 39.3714 41.5348 38.9442 40.3549 38.0515L50.4834 14.4342ZM38.5597 32.6156V16.0736C38.5597 10.9828 40.6987 9.29409 44.5884 9.29409C45.8394 9.243 47.0798 9.53574 48.1662 10.1384L38.5597 32.6156ZM72.7968 20.055V9.60225H75.4833C79.9396 9.60225 81.9767 11.1122 81.9767 14.4342C81.9767 17.7562 80.5762 20.0304 75.4833 20.0304L72.7968 20.055ZM83.5046 25.7683C87.649 24.2645 90.7047 19.7469 90.7047 14.6746C90.7047 8.3881 86.885 2.61319 78.2462 2.61319H63.7314V46.0144H72.7968V27.1242H74.7448L81.4865 45.9712H91.8315L83.5046 25.7683ZM102.839 45.9651V17.9595L113.298 45.9712H124.503V2.57005H116.144V30.514L105.563 2.57005H94.4034V45.9712L102.839 45.9651ZM150.527 38.7356H138.342V26.9331H149.56V19.7777H138.33V9.8118H149.878V2.57005H129.016V45.9712H150.432L150.527 38.7356ZM163.393 20.055V9.5776H164.609C168.766 9.5776 170.511 11.1554 170.511 14.73C170.511 18.3047 169.237 20.0735 164.915 20.0735L163.393 20.055ZM163.393 39.0253V26.7544H165.341C169.295 26.7544 171.956 28.437 171.956 32.7204C171.956 36.6771 171.084 38.9945 165.66 38.9945L163.393 39.0253ZM181.04 33.3059C181.04 27.9069 178.494 24.9548 173.452 23.2599C178.124 21.8732 179.531 17.6637 179.531 14.0891C179.531 7.8026 175.712 2.5947 167.792 2.5947H154.353V45.9959H168.563C178.163 45.9959 181.015 39.4567 181.015 33.3059H181.04ZM184.268 45.9959H193.543V2.57005H184.268V45.9959ZM222.414 9.8118V2.57005H198.732V45.9712H208.013V26.9948H219.473V19.7777H208.013V9.8118H222.414ZM249.667 9.8118V2.57005H225.979V45.9712H235.273V26.9948H246.732V19.7777H235.273V9.8118H249.667ZM274.648 38.7788H262.482V26.964H273.737V19.7777H262.514V9.8118H274.068V2.57005H253.207V45.9712H274.616L274.648 38.7788ZM286.26 46.0082V17.9595L296.77 45.9712H308V2.57005H299.635V30.514L289.048 2.57005H277.926V45.9712L286.26 46.0082ZM4.61545 76.214C3.97595 76.2161 3.3373 76.1687 2.70561 76.0723C2.18677 75.9946 1.67429 75.8812 1.17137 75.7333C0.850975 75.6421 0.541531 75.5182 0.248279 75.3635L0.738472 73.3111C1.04723 73.4788 1.37127 73.6187 1.70612 73.7302C2.12183 73.8732 2.54709 73.9885 2.97935 74.0754C3.44717 74.1633 3.92245 74.2087 4.399 74.211C5.09457 74.253 5.78859 74.1079 6.40433 73.7919C6.63398 73.6422 6.8182 73.436 6.93795 73.1943C7.0577 72.9527 7.10864 72.6845 7.08551 72.4175C7.09845 72.0309 6.97744 71.6512 6.74174 71.3389C6.4424 70.9998 6.08223 70.7159 5.67859 70.5007C5.20113 70.2357 4.60272 69.9337 3.87698 69.6009C3.24959 69.3076 2.65268 68.9567 2.09446 68.5532C1.55636 68.161 1.09499 67.6788 0.732106 67.1295C0.398925 66.5704 0.213549 65.9403 0.192447 65.2952C0.171346 64.6501 0.315173 64.0099 0.611149 63.4315C0.887439 62.954 1.281 62.5497 1.75705 62.2544C2.25937 61.9427 2.81254 61.7156 3.39315 61.5826C4.80162 61.2897 6.26068 61.3129 7.65846 61.6504C8.12192 61.7663 8.56882 61.9382 8.98898 62.1619L8.50516 64.1465C8.10746 63.9041 7.67964 63.7115 7.23193 63.5733C6.61492 63.3835 5.96922 63.296 5.32209 63.3144C4.87344 63.3088 4.42665 63.3712 3.99793 63.4993C3.63828 63.5936 3.31095 63.7787 3.04938 64.0355C2.92921 64.1563 2.83564 64.2994 2.77435 64.4562C2.71307 64.613 2.68535 64.7802 2.69288 64.9477C2.68014 65.3206 2.77945 65.6891 2.97935 66.0078C3.21744 66.3467 3.53321 66.6272 3.90244 66.8275C4.32261 67.0802 4.87009 67.376 5.55127 67.7211C6.08602 67.9738 6.59532 68.245 7.09187 68.5285C7.56782 68.8028 8.01549 69.1206 8.42876 69.4776C8.81436 69.8129 9.12989 70.2167 9.35822 70.6671C9.5944 71.1435 9.71218 71.6674 9.70199 72.1956C9.73016 72.9829 9.50794 73.7595 9.06538 74.4205C8.62428 75.0227 8.0115 75.4875 7.30196 75.7579C6.44597 76.0789 5.53317 76.2339 4.61545 76.214ZM16.6538 76.214C15.9424 76.2579 15.2299 76.1467 14.5689 75.8886C13.9078 75.6304 13.315 75.2319 12.8341 74.7225C11.8818 73.5507 11.4062 72.0816 11.4972 70.5932C11.479 69.6151 11.6833 68.6451 12.0957 67.752C12.4751 66.9441 13.0846 66.2578 13.8527 65.7736C14.7073 65.2648 15.6954 65.0058 16.6984 65.0278C17.2486 65.0125 17.7974 65.0875 18.3217 65.2497C18.8192 65.4129 19.2781 65.6706 19.6714 66.0078C20.0827 66.3731 20.4065 66.8212 20.6199 67.3205C20.8688 67.922 20.9942 68.5649 20.9891 69.2126V70.3097C20.9878 70.5977 20.9558 70.8847 20.8937 71.1664H12.9487L13.1524 69.681H18.5891C18.6245 69.194 18.5902 68.7045 18.4873 68.2265C18.4126 67.819 18.2051 67.4454 17.8952 67.1603C17.5253 66.868 17.0535 66.7246 16.5774 66.7597C16.0949 66.7505 15.622 66.8909 15.2278 67.1603C14.7773 67.5123 14.4577 67.997 14.3174 68.5408C14.0819 69.4129 13.9928 70.3158 14.0501 71.2157C14.0516 71.8611 14.2178 72.4963 14.5339 73.0646C14.8019 73.5005 15.2051 73.8435 15.6862 74.0446C16.1986 74.2479 16.7493 74.349 17.3032 74.3404C17.6316 74.3373 17.9589 74.3108 18.2835 74.2603C18.6483 74.2116 19.0093 74.1413 19.3658 74.0507C19.6408 73.9885 19.9069 73.8911 20.1552 73.7611L20.6263 75.1724C20.3174 75.398 19.9736 75.5748 19.6077 75.6963C19.1449 75.8535 18.67 75.9749 18.188 76.0599C17.6826 76.1567 17.1695 76.2085 16.6538 76.214ZM36.9427 65.1634L29.5389 72.6763L29.7171 72.1216L29.7617 73.9706V76.0291H27.2152V60.1959H29.7617V68.0601L29.6471 70.7473L29.1187 70.359L33.9188 65.1634H36.9427ZM30.8694 70.8274L32.6073 69.1756L37.3819 76.0353H34.4663L30.8694 70.8274ZM43.1051 76.214C42.2827 76.2381 41.4657 76.0778 40.7178 75.7456C40.0865 75.4514 39.5399 75.0111 39.1263 74.4637C38.7141 73.9073 38.4159 73.2797 38.2477 72.6147C38.0625 71.8891 37.9748 71.1433 37.9867 70.396C37.9699 69.3726 38.2195 68.3615 38.7125 67.4561C39.1523 66.6858 39.8165 66.0578 40.6223 65.6503C41.4582 65.2329 42.3874 65.0212 43.3279 65.034C44.3995 64.9799 45.4604 65.2631 46.3518 65.8414C47.1034 66.3767 47.6695 67.1203 47.9752 67.9738C48.3126 68.8928 48.4749 69.8641 48.4527 70.8397C48.4687 71.8669 48.2192 72.8818 47.7269 73.7919C47.29 74.5658 46.6252 75.1965 45.8171 75.6039C44.9797 76.0229 44.0475 76.2326 43.1051 76.214ZM43.1751 74.4575C43.5641 74.4865 43.9538 74.4117 44.3017 74.2411C44.6497 74.0704 44.9427 73.8106 45.1486 73.4899C45.6248 72.648 45.8455 71.693 45.7852 70.7349C45.793 70.0686 45.7029 69.4046 45.5179 68.7627C45.3783 68.2265 45.095 67.7354 44.6966 67.339C44.5031 67.1593 44.2745 67.0188 44.0241 66.9257C43.7738 66.8325 43.5068 66.7887 43.2388 66.7967C42.8546 66.7669 42.4692 66.8369 42.1223 66.9994C41.7754 67.1619 41.4796 67.411 41.2653 67.7211C40.7867 68.5464 40.5655 69.4884 40.6287 70.4329C40.6195 71.1071 40.7074 71.7791 40.8897 72.4298C41.0348 72.987 41.3289 73.4967 41.7427 73.909C41.9317 74.0882 42.1558 74.229 42.4018 74.3232C42.6477 74.4174 42.9107 74.463 43.1751 74.4575ZM50.8145 76.0599V65.1819H53.0299L53.1891 66.6672L53.3928 67.3945V76.0599H50.8145ZM53.2527 68.3621L53.1063 66.6672C53.257 66.3749 53.4747 66.1198 53.7429 65.9215C54.09 65.6509 54.4761 65.4308 54.8888 65.2682C55.3233 65.0956 55.788 65.0056 56.2575 65.0032C56.4696 64.9927 56.6821 64.9927 56.8942 65.0032C57.0342 65.0106 57.1717 65.0488 57.2952 65.1141V67.4869C57.1521 67.4124 57.0004 67.3544 56.8432 67.3144C56.5288 67.2406 56.2052 67.2094 55.8819 67.2219C55.4853 67.2149 55.0905 67.2776 54.7169 67.4068C54.4034 67.5099 54.1074 67.6574 53.8384 67.8444C53.6258 67.9972 53.4291 68.171 53.2527 68.3621ZM62.6046 76.214C62.0897 76.2263 61.5779 76.1339 61.1022 75.9428C60.6785 75.7528 60.3364 75.4259 60.1345 75.0183C59.8836 74.4485 59.7682 73.8314 59.7971 73.2125V66.9507H58.3711V65.6133C58.874 65.4777 59.256 65.3545 59.5361 65.2497C59.6818 65.1975 59.8142 65.1154 59.9241 65.009C60.034 64.9026 60.1188 64.7745 60.1727 64.6334C60.23 64.4855 60.2873 64.3129 60.3573 64.1157C60.4274 63.9184 60.5101 63.6966 60.5929 63.4562L60.8603 62.6858H62.4072V65.1511H65.5203V66.9384H62.4072V71.9861C62.3919 72.4976 62.4263 73.0091 62.5091 73.5145C62.5173 73.6379 62.5549 73.7577 62.619 73.8646C62.683 73.9716 62.7718 74.0627 62.8783 74.1308C63.1285 74.2288 63.3978 74.2732 63.6677 74.2603C63.8816 74.2584 64.0942 74.2381 64.3043 74.1986C64.5362 74.1567 64.7657 74.1032 64.9919 74.0384C65.1682 73.9872 65.3388 73.9194 65.5012 73.835L65.8959 75.2525C65.6438 75.4387 65.3675 75.5921 65.0746 75.7086C64.7003 75.8609 64.312 75.9804 63.916 76.0661C63.486 76.163 63.0461 76.2126 62.6046 76.214ZM68.7606 76.0599V66.9631H67.15V65.5455L68.7606 65.1634V64.1773C68.739 63.4875 68.867 62.8009 69.1362 62.1619C69.3604 61.6644 69.7029 61.2251 70.1357 60.88C70.5326 60.5652 70.9919 60.3323 71.4853 60.1959C71.9493 60.0683 72.429 60.002 72.9114 59.9987C73.2524 59.9959 73.5931 60.0207 73.9299 60.0726C74.1451 60.0991 74.3577 60.1404 74.5665 60.1959V62.0448C74.3592 61.979 74.1461 61.9315 73.9299 61.9031C73.6029 61.8612 73.2731 61.8427 72.9432 61.8476C72.7285 61.8425 72.5155 61.8848 72.3202 61.9713C72.125 62.0578 71.9527 62.1862 71.8164 62.3468C71.4896 62.7861 71.334 63.3232 71.3771 63.863V65.1449H74.0636V66.9446H71.3771V76.0414L68.7606 76.0599ZM77.4886 63.3638C77.0832 63.3717 76.6897 63.2308 76.3873 62.9693C76.2337 62.8408 76.1122 62.6804 76.0317 62.5C75.9512 62.3197 75.9139 62.124 75.9225 61.9277C75.9206 61.635 76.0117 61.3484 76.1835 61.108C76.3459 60.8677 76.5636 60.6674 76.8201 60.5225C77.0799 60.3777 77.374 60.3013 77.6732 60.3006C77.8763 60.2808 78.0814 60.3037 78.2744 60.3679C78.4674 60.4321 78.6438 60.5359 78.7914 60.6724C78.939 60.8089 79.0544 60.9747 79.1295 61.1584C79.2046 61.3421 79.2377 61.5394 79.2265 61.7367C79.2324 61.955 79.1887 62.1719 79.0985 62.3721C79.0083 62.5724 78.8738 62.751 78.7045 62.8953C78.3767 63.1973 77.9411 63.3651 77.4886 63.3638ZM76.3363 76.0599V65.1819H78.8828V76.0599H76.3363ZM82.3969 76.0599V60.1527H84.9943V76.0599H82.3969ZM88.4129 76.0599V65.1819H90.762V66.3344C91.0891 66.1071 91.4315 65.9012 91.7869 65.7181C92.2125 65.5068 92.6581 65.3355 93.1175 65.2065C93.589 65.0687 94.0768 64.99 94.5689 64.9723C95.2382 64.9222 95.909 65.0478 96.5106 65.336C97.0288 65.6394 97.4157 66.1146 97.5992 66.6734C97.8571 67.4912 97.9729 68.3455 97.943 69.2003V76.0291H95.3965V69.4345C95.4082 68.9596 95.3569 68.4853 95.2437 68.0231C95.2093 67.8638 95.1426 67.7126 95.0476 67.5782C94.9525 67.4439 94.831 67.3291 94.6899 67.2404C94.3265 67.0617 93.9174 66.9889 93.5122 67.0309C93.1031 67.053 92.6997 67.134 92.3153 67.2712C91.8544 67.4259 91.4241 67.6552 91.0421 67.9492V76.0291L88.4129 76.0599ZM97.8157 67.9985L97.2936 66.433C97.6059 66.1943 97.943 65.9878 98.2995 65.8167C98.7525 65.585 99.228 65.3972 99.7191 65.2559C100.242 65.105 100.784 65.0241 101.33 65.0155C102.004 64.9792 102.676 65.1085 103.284 65.3914C103.819 65.6799 104.225 66.1496 104.424 66.7104C104.704 67.5221 104.831 68.3757 104.799 69.2311V76.0723H102.221V69.4776C102.232 69.0011 102.183 68.5251 102.075 68.0601C102.007 67.7423 101.812 67.4633 101.533 67.2835C101.172 67.1049 100.765 67.032 100.362 67.074C99.9241 67.093 99.4931 67.1869 99.0889 67.3513C98.6374 67.5129 98.2094 67.7305 97.8157 67.9985ZM111.7 76.0599V65.1819H114.024V66.3344C114.351 66.1076 114.694 65.9017 115.049 65.7181C115.476 65.506 115.924 65.3347 116.386 65.2065C116.855 65.0684 117.341 64.9897 117.831 64.9723C118.489 64.9278 119.148 65.0533 119.741 65.336C120.259 65.6397 120.645 66.1148 120.829 66.6734C121.087 67.4919 121.203 68.3455 121.173 69.2003V76.0291H118.627V69.4345C118.638 68.9596 118.587 68.4853 118.474 68.0231C118.439 67.8638 118.373 67.7126 118.278 67.5782C118.183 67.4439 118.061 67.3291 117.92 67.2404C117.559 67.0617 117.152 66.9889 116.749 67.0309C116.337 67.0523 115.932 67.1333 115.545 67.2712C115.073 67.4227 114.632 67.6521 114.24 67.9492V76.0291L111.7 76.0599ZM121.103 67.9985L120.581 66.433C120.895 66.1934 121.234 65.9868 121.593 65.8167C122.046 65.5838 122.521 65.3959 123.013 65.2559C123.536 65.1043 124.078 65.0234 124.623 65.0155C125.295 64.9792 125.965 65.1085 126.572 65.3914C127.094 65.6817 127.49 66.1461 127.686 66.698C127.966 67.5097 128.093 68.3633 128.061 69.2188V76.0599H125.477V69.4653C125.486 68.9892 125.439 68.5136 125.336 68.0478C125.268 67.7302 125.074 67.4512 124.795 67.2712C124.432 67.0932 124.023 67.0204 123.618 67.0617C123.18 67.081 122.749 67.1749 122.344 67.339C121.903 67.5068 121.486 67.7284 121.103 67.9985ZM135.796 76.214C135.085 76.2567 134.373 76.1449 133.712 75.8868C133.051 75.6288 132.458 75.231 131.976 74.7225C131.024 73.5507 130.548 72.0816 130.639 70.5932C130.625 69.6154 130.829 68.6462 131.238 67.752C131.618 66.9426 132.23 66.256 133.001 65.7736C133.854 65.2657 134.84 65.0068 135.841 65.0278C136.391 65.0125 136.94 65.0875 137.464 65.2497C137.964 65.4112 138.425 65.6688 138.82 66.0078C139.229 66.3736 139.551 66.8217 139.762 67.3205C140.014 67.9214 140.141 68.5643 140.138 69.2126V70.3097C140.135 70.5973 140.105 70.884 140.049 71.1664H132.091L132.288 69.681H137.725C137.759 69.1942 137.727 68.7052 137.629 68.2265C137.553 67.8184 137.343 67.4448 137.031 67.1603C136.661 66.868 136.189 66.7246 135.713 66.7597C135.231 66.7511 134.758 66.8914 134.364 67.1603C133.915 67.5129 133.598 67.9976 133.46 68.5408C133.218 69.412 133.128 70.3159 133.192 71.2157C133.191 71.8615 133.357 72.4973 133.676 73.0646C133.942 73.5021 134.346 73.8456 134.828 74.0446C135.341 74.2491 135.891 74.3498 136.445 74.3404C136.774 74.3373 137.101 74.3102 137.426 74.2603C137.788 74.2114 138.148 74.1414 138.502 74.0507C138.777 73.9897 139.043 73.8923 139.291 73.7611L139.768 75.1724C139.457 75.398 139.111 75.5748 138.744 75.6963C138.281 75.8541 137.806 75.9755 137.324 76.0599C136.82 76.1567 136.309 76.2085 135.796 76.214ZM146.453 76.214C145.658 76.2237 144.876 76.0138 144.199 75.6088C143.523 75.2039 142.98 74.6206 142.633 73.9275C142.182 73.0151 141.963 72.0111 141.997 70.9999C141.97 69.916 142.215 68.8419 142.71 67.869C143.149 67.0016 143.836 66.2744 144.69 65.7736C145.592 65.2614 146.623 65.0032 147.669 65.0278C148.257 65.0124 148.844 65.0894 149.407 65.2559C149.722 65.3393 150.021 65.4726 150.292 65.6503L149.496 67.2342C149.272 67.0641 149.007 66.9518 148.726 66.9076C148.345 66.8417 147.96 66.8107 147.573 66.8151C147.051 66.8122 146.539 66.9649 146.109 67.2527C145.64 67.591 145.278 68.0501 145.065 68.5778C144.783 69.2721 144.647 70.0138 144.664 70.7596C144.567 71.6947 144.791 72.6347 145.301 73.4344C145.526 73.7121 145.817 73.9328 146.15 74.0777C146.483 74.2226 146.846 74.2874 147.211 74.2664C147.672 74.2732 148.13 74.185 148.554 74.0076C148.889 73.8763 149.205 73.7044 149.496 73.496L149.878 74.7287C149.719 74.8889 149.502 75.0861 149.241 75.345C148.916 75.6043 148.551 75.8123 148.159 75.9613C147.613 76.1523 147.033 76.2382 146.453 76.214ZM149.636 76.0599V74.6424L149.483 74.5499V66.9507L149.566 66.8953L149.483 64.5348V60.1527H152.03V76.0599H149.636ZM162.699 76.214C161.926 76.222 161.164 76.026 160.497 75.647C159.794 75.2328 159.232 74.6286 158.88 73.909C158.428 72.9966 158.21 71.9926 158.243 70.9815C158.218 69.8982 158.46 68.8248 158.95 67.8506C159.391 66.9845 160.078 66.2578 160.93 65.7551C161.834 65.2435 162.868 64.9853 163.915 65.0093C164.503 64.9939 165.09 65.071 165.653 65.2374C165.969 65.3208 166.268 65.4541 166.538 65.6318L165.742 67.2157C165.516 67.0446 165.249 66.9322 164.966 66.8891C164.588 66.8232 164.204 66.7923 163.82 66.7967C163.297 66.7935 162.786 66.9463 162.356 67.2342C161.884 67.5704 161.522 68.0302 161.312 68.5593C161.03 69.2536 160.893 69.9953 160.91 70.7411C160.816 71.676 161.04 72.6152 161.547 73.4159C161.773 73.6927 162.065 73.9128 162.397 74.0576C162.729 74.2024 163.093 74.2677 163.457 74.2479C163.918 74.2541 164.376 74.1659 164.8 73.9891C165.135 73.8578 165.452 73.6859 165.742 73.4776L166.124 74.7102C165.965 74.8704 165.742 75.0677 165.488 75.3265C165.161 75.587 164.794 75.7951 164.399 75.9428C163.856 76.1405 163.279 76.2326 162.699 76.214ZM165.882 76.0599V74.6424L165.73 74.5499V66.9507L165.812 66.8953L165.73 64.5348V60.1527H168.276V76.0599H165.882ZM176.068 76.214C175.357 76.2562 174.645 76.1442 173.984 75.8861C173.323 75.6281 172.73 75.2306 172.249 74.7225C171.296 73.5507 170.821 72.0816 170.912 70.5932C170.905 69.6123 171.123 68.6422 171.548 67.752C171.926 66.9429 172.536 66.2561 173.305 65.7736C174.16 65.2648 175.148 65.0058 176.151 65.0278C176.699 65.0128 177.246 65.0878 177.768 65.2497C178.268 65.4112 178.729 65.6688 179.124 66.0078C179.533 66.3736 179.855 66.8217 180.066 67.3205C180.318 67.9214 180.445 68.5643 180.442 69.2126V70.3097C180.442 70.5975 180.412 70.8847 180.353 71.1664H172.331L172.529 69.681H177.978C178.019 69.1943 177.986 68.7044 177.883 68.2265C177.808 67.819 177.601 67.4453 177.291 67.1603C176.918 66.8724 176.448 66.7295 175.973 66.7597C175.49 66.7492 175.017 66.8897 174.623 67.1603C174.173 67.5122 173.853 67.997 173.713 68.5408C173.471 69.412 173.381 70.3159 173.445 71.2157C173.444 71.8615 173.61 72.4973 173.929 73.0646C174.195 73.5021 174.599 73.8456 175.081 74.0446C175.594 74.2479 176.144 74.349 176.698 74.3404C177.027 74.3373 177.354 74.3102 177.679 74.2603C178.044 74.211 178.405 74.1413 178.761 74.0507C179.035 73.9903 179.298 73.8923 179.544 73.7611L180.022 75.1724C179.712 75.3965 179.368 75.5732 179.003 75.6963C178.54 75.8535 178.065 75.9749 177.583 76.0599C177.084 76.1555 176.577 76.2072 176.068 76.214ZM186.311 80.7439V78.7409C186.479 78.7908 186.652 78.8235 186.827 78.8395C187.002 78.8654 187.178 78.8796 187.355 78.8827C187.707 78.8722 188.054 78.8013 188.38 78.6731C188.827 78.4913 189.212 78.1899 189.488 77.8041C189.912 77.1978 190.191 76.507 190.303 75.7826L190.443 76.0599H189.354L185.363 65.1634H188.119L190.335 71.9429L191.264 75.0923H190.71L191.538 71.9429L193.397 65.1634H196.16L192.467 76.3742C192.146 77.4632 191.607 78.4808 190.882 79.3696C190.361 79.9965 189.662 80.4615 188.87 80.707C188.664 80.7735 188.45 80.821 188.234 80.8487C188.024 80.8863 187.811 80.9073 187.597 80.9104C187.455 80.9171 187.313 80.9171 187.171 80.9104L186.636 80.8487C186.523 80.829 186.414 80.7938 186.311 80.7439ZM197.93 76.0599V65.1819H200.26V66.3529C200.589 66.1266 200.934 65.9207 201.291 65.7366C201.722 65.5263 202.172 65.3531 202.634 65.2189C203.111 65.0759 203.606 64.9951 204.105 64.9785C204.58 64.9226 205.062 64.9754 205.512 65.1328C205.962 65.2902 206.367 65.5476 206.696 65.8845C207.23 66.5175 207.498 67.6311 207.498 69.2249V76.0353H204.9V69.4407C204.954 68.7854 204.827 68.128 204.531 67.5362C204.283 67.1541 203.774 66.9877 202.991 67.0247C202.73 67.0386 202.472 67.0779 202.22 67.1418C201.918 67.2231 201.622 67.3261 201.335 67.4499C201.033 67.5879 200.747 67.7574 200.482 67.9553V76.0353L197.93 76.0599ZM214.965 80.9905C213.69 81.0571 212.421 80.7729 211.305 80.1708C210.89 79.9152 210.554 79.5571 210.33 79.1334C210.106 78.7098 210.003 78.236 210.032 77.761C210.023 77.385 210.127 77.0147 210.331 76.6947C210.524 76.3822 210.782 76.1116 211.088 75.8997C211.377 75.6858 211.699 75.5194 212.043 75.4066L213.616 75.5977L213.17 75.9736C212.991 76.1251 212.842 76.3068 212.731 76.5098C212.595 76.7844 212.532 77.0872 212.546 77.3912C212.537 77.761 212.623 78.1271 212.794 78.4574C212.971 78.7748 213.254 79.025 213.597 79.1662C214.069 79.3583 214.58 79.4467 215.093 79.425C215.617 79.4299 216.139 79.3677 216.646 79.2401C217.063 79.1483 217.451 78.9625 217.779 78.6978C217.916 78.5848 218.025 78.4438 218.099 78.285C218.173 78.1262 218.209 77.9535 218.206 77.7795C218.216 77.4572 218.143 77.1376 217.996 76.8488C217.829 76.5564 217.553 76.3362 217.225 76.2325C216.688 76.0698 216.126 75.9989 215.564 76.0229H214.201C213.858 76.0229 213.565 76.0229 213.291 75.986C213.051 75.9644 212.813 75.9274 212.578 75.875C212.489 75.8551 212.405 75.8196 212.33 75.7703C212.253 75.7235 212.169 75.6882 212.081 75.6655C211.657 75.5497 211.29 75.292 211.044 74.9382C210.856 74.6394 210.756 74.296 210.757 73.946C210.77 73.6748 210.839 73.4079 210.961 73.1632C211.104 72.876 211.298 72.6153 211.534 72.3928C211.812 72.1302 212.13 71.9099 212.476 71.7395L214.023 72.0662C213.774 72.1721 213.556 72.3349 213.386 72.5407C213.214 72.7324 213.117 72.9769 213.113 73.231C213.094 73.3715 213.112 73.5142 213.164 73.6464C213.216 73.7787 213.301 73.8964 213.412 73.9891C213.727 74.1501 214.082 74.2207 214.437 74.1925H216.455C217.175 74.174 217.894 74.2609 218.588 74.4513C219.062 74.5845 219.498 74.823 219.861 75.1478C220.154 75.4159 220.373 75.7505 220.497 76.1216C220.617 76.48 220.677 76.8544 220.676 77.2309C220.685 77.7919 220.528 78.3437 220.224 78.821C219.91 79.3029 219.485 79.7079 218.982 80.0044C218.419 80.3365 217.804 80.5799 217.162 80.7255C216.443 80.8998 215.706 80.9888 214.965 80.9905ZM214.863 72.362C214.061 72.3741 213.265 72.2229 212.527 71.9183C211.877 71.6606 211.313 71.234 210.897 70.6856C210.499 70.1333 210.292 69.4731 210.305 68.7997C210.275 68.0647 210.482 67.3389 210.897 66.7227C211.301 66.1629 211.868 65.7334 212.527 65.4901C213.282 65.2066 214.085 65.0623 214.895 65.0648C215.706 65.0412 216.514 65.1667 217.276 65.4346C217.942 65.6688 218.523 66.084 218.95 66.6302C219.389 67.2308 219.612 67.9537 219.587 68.6887C219.623 69.3934 219.425 70.0908 219.023 70.6793C218.622 71.2679 218.036 71.717 217.353 71.9614C216.557 72.2486 215.711 72.3805 214.863 72.3497V72.362ZM214.902 70.8274C215.463 70.8563 216.018 70.7046 216.48 70.396C216.703 70.1818 216.873 69.921 216.975 69.6336C217.078 69.3462 217.111 69.0398 217.072 68.7381C217.118 68.1684 216.935 67.6037 216.563 67.1603C216.357 66.9692 216.112 66.8226 215.843 66.7302C215.574 66.6378 215.288 66.6016 215.003 66.6241C214.627 66.6203 214.253 66.6765 213.896 66.7905C213.568 66.9034 213.29 67.1207 213.106 67.4068C212.884 67.846 212.785 68.3342 212.82 68.8223C212.854 69.3103 213.021 69.7808 213.304 70.1864C213.496 70.4109 213.742 70.5865 214.021 70.6982C214.299 70.8099 214.602 70.8542 214.902 70.8274ZM218.288 67.0124L217.703 65.9954C217.947 65.7507 218.239 65.5558 218.562 65.4223C219.015 65.2122 219.512 65.1067 220.014 65.1141H221.204V67.0124H218.288ZM222.49 75.3943L222.815 73.5823C223.013 73.7093 223.227 73.8128 223.451 73.8905C223.828 74.0366 224.215 74.1537 224.61 74.2418C225.067 74.347 225.535 74.4028 226.004 74.4082C226.504 74.4468 227.004 74.3418 227.443 74.1062C227.594 74.0159 227.719 73.8886 227.804 73.7373C227.889 73.5859 227.931 73.4156 227.927 73.2433C227.928 73.1137 227.902 72.9851 227.851 72.8654C227.799 72.7457 227.723 72.6373 227.628 72.5469C227.388 72.3224 227.11 72.139 226.806 72.0045C226.463 71.8381 226.068 71.6656 225.635 71.4807C225.046 71.2426 224.485 70.9452 223.961 70.5932C223.521 70.3028 223.154 69.9218 222.885 69.4776C222.626 69.0127 222.501 68.4892 222.522 67.9615C222.511 67.3642 222.721 66.7828 223.114 66.3221C223.521 65.8703 224.047 65.5337 224.635 65.3483C225.32 65.1258 226.039 65.0174 226.762 65.0278C227.418 65.0153 228.073 65.0878 228.71 65.2435C229.088 65.3261 229.455 65.4502 229.805 65.6133L229.474 67.4623C229.294 67.3362 229.097 67.2345 228.888 67.1603C228.601 67.0458 228.302 66.9611 227.997 66.9076C227.661 66.846 227.32 66.8151 226.978 66.8151C226.456 66.7849 225.934 66.878 225.457 67.0863C225.306 67.1531 225.179 67.2598 225.089 67.394C224.999 67.5282 224.95 67.6843 224.947 67.8444C224.932 68.0352 224.969 68.2266 225.055 68.3989C225.141 68.5711 225.273 68.718 225.438 68.8243C225.841 69.0801 226.267 69.3008 226.711 69.4838C227.364 69.7741 228.002 70.097 228.621 70.4514C229.115 70.7274 229.548 71.0962 229.894 71.5361C230.212 71.9731 230.376 72.4988 230.359 73.0338C230.388 73.488 230.301 73.9422 230.105 74.356C229.91 74.7699 229.612 75.1308 229.238 75.4066C228.339 75.9897 227.269 76.2731 226.189 76.214C225.664 76.2177 225.14 76.1764 224.623 76.0907C224.174 76.0212 223.731 75.9181 223.299 75.7826C223.012 75.6889 222.74 75.5583 222.49 75.3943ZM236.215 76.214C235.699 76.2257 235.185 76.1333 234.707 75.9428C234.285 75.7526 233.945 75.4256 233.745 75.0183C233.489 74.45 233.371 73.8321 233.402 73.2125V66.9507H231.982V65.6133C232.479 65.4777 232.867 65.3545 233.141 65.2497C233.286 65.1975 233.419 65.1154 233.529 65.009C233.638 64.9026 233.723 64.7745 233.777 64.6334C233.833 64.4855 233.896 64.3129 233.968 64.1157L234.197 63.4562L234.465 62.6858H236.012V65.1511H239.093V66.9384H235.98V71.9861C235.965 72.4976 235.999 73.0091 236.082 73.5145C236.091 73.6382 236.13 73.7582 236.195 73.865C236.261 73.9719 236.35 74.0628 236.457 74.1308C236.705 74.2288 236.972 74.2732 237.24 74.2603C237.454 74.2584 237.667 74.2381 237.877 74.1986C238.109 74.1567 238.338 74.1032 238.565 74.0384C238.742 73.9885 238.912 73.9207 239.074 73.835L239.469 75.2525C239.219 75.4387 238.945 75.592 238.654 75.7086C238.277 75.8608 237.887 75.9804 237.489 76.0661C237.071 76.1605 236.644 76.2101 236.215 76.214ZM246.096 76.214C245.384 76.2567 244.672 76.1449 244.011 75.8868C243.351 75.6288 242.758 75.231 242.276 74.7225C241.324 73.5507 240.848 72.0816 240.939 70.5932C240.921 69.6151 241.125 68.645 241.538 67.752C241.918 66.9426 242.53 66.256 243.301 65.7736C244.153 65.2646 245.139 65.0055 246.14 65.0278C246.69 65.0125 247.239 65.0875 247.764 65.2497C248.264 65.4112 248.725 65.6688 249.12 66.0078C249.529 66.3736 249.85 66.8217 250.062 67.3205C250.313 67.9214 250.441 68.5643 250.437 69.2126V70.3097C250.435 70.5973 250.405 70.884 250.348 71.1664H242.403L242.607 69.681H248.044C248.078 69.1942 248.046 68.7052 247.948 68.2265C247.871 67.8184 247.662 67.4448 247.35 67.1603C246.98 66.868 246.508 66.7246 246.032 66.7597C245.55 66.7511 245.077 66.8914 244.682 67.1603C244.234 67.5129 243.916 67.9976 243.778 68.5408C243.538 69.4122 243.445 70.3156 243.505 71.2157C243.508 71.8617 243.676 72.4969 243.995 73.0646C244.259 73.5016 244.66 73.8451 245.141 74.0446C245.654 74.2479 246.204 74.3484 246.758 74.3404C247.086 74.3375 247.414 74.3107 247.738 74.2603C248.103 74.2121 248.464 74.1421 248.82 74.0507C249.096 73.9884 249.361 73.891 249.61 73.7611L250.087 75.1724C249.775 75.3968 249.43 75.573 249.062 75.6963C248.599 75.8541 248.125 75.9755 247.643 76.0599C247.133 76.1579 246.615 76.2091 246.096 76.214Z" fill="#5E2779"/>
</svg>
