<svg width="158" height="42" viewBox="0 0 158 42" fill="none" xmlns="http://www.w3.org/2000/svg">
<path d="M4.61741 10.3861V4.95338H5.24306C7.37091 4.95338 8.27028 5.77148 8.27028 7.62501C8.27028 9.47853 7.60227 10.3861 5.39947 10.3861H4.61741ZM4.61741 20.2194V13.8727H5.61454C7.63812 13.8727 9.0002 14.7451 9.0002 16.9661C9.0002 19.0178 8.55378 20.2194 5.77747 20.2194H4.61741ZM13.673 17.2569C13.673 14.4575 12.3696 12.9235 9.78878 12.0479C12.1773 11.3289 12.8942 9.14617 12.8942 7.29265C12.8942 4.03301 10.9391 1.33262 6.88213 1.33262H0V23.8369H7.27316C12.1904 23.8369 13.6698 20.4463 13.6698 17.2569H13.673ZM26.8703 0L26.1697 1.69374C25.0891 1.2887 23.9407 1.08599 22.784 1.09613C18.1992 1.09613 14.8103 3.89559 14.8103 9.27081V15.9275C14.8103 18.8612 15.8074 21.0055 17.4367 22.3413L16.407 24.7861H18.5283L19.1311 23.3863C20.2978 23.8594 21.5511 24.0922 22.8133 24.0702C27.3982 24.0702 30.7871 21.3986 30.7871 15.8924V9.24204C30.7871 6.2093 29.6889 4.00425 27.8967 2.62689L28.9949 0.00958718L26.8703 0ZM25.8406 7.4844C25.8683 7.77425 25.878 8.06602 25.8699 8.35683V16.8351C25.8699 19.5706 24.7783 20.3504 22.784 20.3504C22.0203 20.4148 21.2601 20.1933 20.6562 19.7304L25.8406 7.4844ZM19.7372 16.9118V8.33446C19.7372 5.69479 20.8321 4.81916 22.8231 4.81916C23.4635 4.79267 24.0984 4.94446 24.6544 5.25697L19.7372 16.9118ZM37.2619 10.3989V4.97894H38.637C40.918 4.97894 41.9608 5.7619 41.9608 7.4844C41.9608 9.20689 41.2439 10.3861 38.637 10.3861L37.2619 10.3989ZM42.7428 13.3613C44.8642 12.5816 46.4283 10.2391 46.4283 7.60903C46.4283 4.34939 44.4731 1.35499 40.0512 1.35499H32.6217V23.8593H37.2619V14.0644H38.259L41.7099 23.8369H47.0051L42.7428 13.3613ZM52.6391 23.8337V9.31235L57.993 23.8369H63.7281V1.33262H59.4496V15.822L54.0338 1.33262H48.3215V23.8369L52.6391 23.8337ZM77.0492 20.0851H70.8123V13.9653H76.5539V10.2551H70.8057V5.0876H76.7168V1.33262H66.0384V23.8369H77.0003L77.0492 20.0851ZM83.6348 10.3989V4.96616H84.2572C86.385 4.96616 87.2779 5.78427 87.2779 7.63779C87.2779 9.49131 86.6262 10.4085 84.4136 10.4085L83.6348 10.3989ZM83.6348 20.2353V13.8727H84.6319C86.6555 13.8727 88.0176 14.7451 88.0176 16.9661C88.0176 19.0178 87.5711 20.2194 84.7948 20.2194L83.6348 20.2353ZM92.6676 17.2697C92.6676 14.4703 91.3641 12.9395 88.7833 12.0607C91.1751 11.3416 91.8953 9.15896 91.8953 7.30543C91.8953 4.04579 89.9401 1.3454 85.8865 1.3454H79.0076V23.8497H86.2807C91.1947 23.8497 92.6545 20.459 92.6545 17.2697H92.6676ZM94.3197 23.8497H99.0674V1.33262H94.3197V23.8497ZM113.845 5.0876V1.33262H101.723V23.8369H106.474V13.9973H112.34V10.2551H106.474V5.0876H113.845ZM127.795 5.0876V1.33262H115.67V23.8369H120.427V13.9973H126.293V10.2551H120.427V5.0876H127.795ZM140.582 20.1075H134.355V13.9813H140.116V10.2551H134.371V5.0876H140.285V1.33262H129.607V23.8369H140.565L140.582 20.1075ZM146.525 23.8561V9.31235L151.905 23.8369H157.653V1.33262H153.372V15.822L147.953 1.33262H142.26V23.8369L146.525 23.8561ZM2.36247 39.5184C2.03514 39.5195 1.70824 39.4949 1.3849 39.4449C1.11932 39.4046 0.857007 39.3458 0.599579 39.2691C0.435582 39.2218 0.277189 39.1576 0.127085 39.0774L0.377996 38.0132C0.536037 38.1001 0.701899 38.1727 0.8733 38.2305C1.08609 38.3046 1.30376 38.3644 1.52502 38.4095C1.76447 38.455 2.00775 38.4786 2.25168 38.4798C2.60772 38.5015 2.96296 38.4263 3.27813 38.2624C3.39568 38.1849 3.48998 38.0779 3.55127 37.9526C3.61257 37.8273 3.63864 37.6883 3.6268 37.5498C3.63342 37.3494 3.57148 37.1525 3.45084 36.9906C3.29762 36.8147 3.11326 36.6675 2.90666 36.5559C2.66226 36.4185 2.35596 36.2619 1.98448 36.0894C1.66334 35.9373 1.35781 35.7553 1.07207 35.5461C0.796641 35.3427 0.560484 35.0927 0.374737 34.8079C0.204195 34.518 0.109307 34.1913 0.0985064 33.8568C0.0877053 33.5223 0.161325 33.1903 0.312824 32.8904C0.454246 32.6428 0.655698 32.4332 0.899369 32.28C1.15648 32.1184 1.43963 32.0007 1.73682 31.9317C2.45777 31.7798 3.2046 31.7919 3.92007 31.9669C4.1573 32.0269 4.38605 32.1161 4.60112 32.2321L4.35347 33.2611C4.1499 33.1355 3.93092 33.0356 3.70175 32.9639C3.38593 32.8655 3.05542 32.8201 2.72417 32.8297C2.49453 32.8268 2.26583 32.8591 2.04639 32.9256C1.8623 32.9745 1.69475 33.0704 1.56086 33.2036C1.49935 33.2662 1.45145 33.3404 1.42008 33.4217C1.38872 33.503 1.37453 33.5897 1.37838 33.6766C1.37186 33.8699 1.4227 34.061 1.52502 34.2262C1.64689 34.402 1.80851 34.5474 1.99751 34.6513C2.21258 34.7823 2.49282 34.9357 2.84148 35.1147C3.1152 35.2457 3.37589 35.3863 3.63006 35.5333C3.87368 35.6755 4.10283 35.8403 4.31436 36.0254C4.51174 36.1993 4.67324 36.4087 4.79012 36.6422C4.91101 36.8892 4.97129 37.1609 4.96608 37.4348C4.9805 37.843 4.86675 38.2457 4.64022 38.5884C4.41444 38.9007 4.10078 39.1417 3.73759 39.2819C3.29945 39.4483 2.83222 39.5287 2.36247 39.5184ZM8.52445 39.5184C8.16032 39.5411 7.79563 39.4835 7.45725 39.3496C7.11887 39.2158 6.81543 39.0092 6.5693 38.745C6.08185 38.1374 5.8384 37.3756 5.885 36.6039C5.87568 36.0967 5.98026 35.5937 6.19131 35.1306C6.38552 34.7118 6.69751 34.3559 7.09068 34.1048C7.52809 33.841 8.03389 33.7067 8.54726 33.7181C8.82888 33.7102 9.10983 33.7491 9.3782 33.8332C9.63286 33.9178 9.86772 34.0514 10.069 34.2262C10.2796 34.4157 10.4453 34.648 10.5545 34.9069C10.682 35.2188 10.7462 35.5522 10.7435 35.888V36.4569C10.7429 36.6062 10.7265 36.755 10.6947 36.9011H6.62796L6.73223 36.1309H9.51506C9.53316 35.8783 9.51562 35.6246 9.46292 35.3767C9.4247 35.1654 9.3185 34.9717 9.15988 34.8238C8.97053 34.6723 8.72904 34.5979 8.48535 34.6161C8.23838 34.6114 7.99633 34.6841 7.79453 34.8238C7.56394 35.0064 7.40034 35.2577 7.32855 35.5397C7.20798 35.9919 7.16236 36.4601 7.19169 36.9266C7.19249 37.2613 7.27756 37.5907 7.43934 37.8854C7.57651 38.1114 7.78291 38.2892 8.02915 38.3935C8.29146 38.4989 8.57333 38.5513 8.85683 38.5469C9.02497 38.5453 9.19246 38.5315 9.35865 38.5053C9.54537 38.4801 9.73013 38.4436 9.91261 38.3967C10.0534 38.3644 10.1896 38.3139 10.3167 38.2465L10.5578 38.9783C10.3997 39.0952 10.2238 39.1869 10.0364 39.2499C9.79953 39.3314 9.55644 39.3944 9.30977 39.4385C9.05104 39.4887 8.7884 39.5155 8.52445 39.5184ZM18.9096 33.7884L15.1198 37.684L15.2111 37.3964L15.2339 38.3551V39.4225H13.9304V31.2127H15.2339V35.2904L15.1752 36.6838L14.9048 36.4824L17.3617 33.7884H18.9096ZM15.8009 36.7253L16.6905 35.8689L19.1344 39.4257H17.642L15.8009 36.7253ZM22.0639 39.5184C21.6429 39.5308 21.2247 39.4477 20.8419 39.2755C20.5188 39.1229 20.239 38.8946 20.0272 38.6108C19.8163 38.3223 19.6636 37.9969 19.5776 37.6521C19.4828 37.2758 19.4379 36.8891 19.444 36.5016C19.4354 35.971 19.5631 35.4467 19.8154 34.9772C20.0406 34.5778 20.3805 34.2522 20.793 34.0409C21.2209 33.8245 21.6965 33.7147 22.1779 33.7213C22.7264 33.6933 23.2694 33.8401 23.7257 34.14C24.1105 34.4175 24.4002 34.8031 24.5567 35.2457C24.7294 35.7222 24.8125 36.2258 24.8011 36.7317C24.8093 37.2643 24.6816 37.7905 24.4296 38.2624C24.2059 38.6638 23.8657 38.9908 23.452 39.202C23.0234 39.4193 22.5462 39.528 22.0639 39.5184ZM22.0997 38.6076C22.2988 38.6227 22.4983 38.5838 22.6764 38.4954C22.8545 38.4069 23.0044 38.2722 23.1099 38.1059C23.3536 37.6693 23.4666 37.1741 23.4357 36.6774C23.4397 36.3319 23.3936 35.9875 23.2989 35.6547C23.2274 35.3767 23.0824 35.122 22.8785 34.9165C22.7794 34.8233 22.6624 34.7505 22.5343 34.7022C22.4062 34.6539 22.2695 34.6312 22.1323 34.6353C21.9357 34.6199 21.7384 34.6561 21.5608 34.7404C21.3832 34.8247 21.2318 34.9539 21.1221 35.1147C20.8771 35.5426 20.7639 36.031 20.7963 36.5208C20.7916 36.8703 20.8365 37.2188 20.9299 37.5562C21.0042 37.8451 21.1547 38.1094 21.3665 38.3232C21.4633 38.4161 21.5779 38.4891 21.7038 38.5379C21.8298 38.5868 21.9643 38.6105 22.0997 38.6076ZM26.01 39.4385V33.798H27.144L27.2255 34.5682L27.3297 34.9453V39.4385H26.01ZM27.258 35.447L27.1831 34.5682C27.2602 34.4166 27.3717 34.2843 27.509 34.1815C27.6866 34.0412 27.8842 33.9271 28.0955 33.8428C28.3179 33.7533 28.5557 33.7066 28.7961 33.7053C28.9046 33.6999 29.0134 33.6999 29.122 33.7053C29.1936 33.7092 29.264 33.729 29.3272 33.7629V34.9932C29.254 34.9546 29.1763 34.9245 29.0959 34.9037C28.9349 34.8655 28.7693 34.8493 28.6038 34.8558C28.4008 34.8522 28.1988 34.8847 28.0075 34.9517C27.847 35.0051 27.6955 35.0816 27.5578 35.1786C27.449 35.2578 27.3483 35.3479 27.258 35.447ZM32.0449 39.5184C31.7814 39.5247 31.5194 39.4768 31.2759 39.3778C31.059 39.2792 30.8839 39.1097 30.7806 38.8984C30.6521 38.6029 30.5931 38.2829 30.6079 37.9621V34.7152H29.8779V34.0217C30.1354 33.9514 30.3309 33.8875 30.4743 33.8332C30.5489 33.8061 30.6166 33.7635 30.6729 33.7084C30.7291 33.6532 30.7725 33.5868 30.8001 33.5136C30.8294 33.4369 30.8588 33.3474 30.8946 33.2452C30.9305 33.1429 30.9728 33.0278 31.0152 32.9032L31.152 32.5037H31.9439V33.782H33.5373V34.7088H31.9439V37.3261C31.9361 37.5913 31.9537 37.8566 31.996 38.1186C32.0002 38.1826 32.0195 38.2447 32.0523 38.3002C32.0851 38.3556 32.1305 38.4029 32.185 38.4382C32.3131 38.489 32.4509 38.512 32.5891 38.5053C32.6986 38.5044 32.8074 38.4938 32.9149 38.4734C33.0336 38.4516 33.1511 38.4239 33.2669 38.3903C33.3571 38.3638 33.4445 38.3286 33.5276 38.2848L33.7296 39.0198C33.6005 39.1163 33.4591 39.1959 33.3092 39.2563C33.1176 39.3353 32.9188 39.3973 32.7162 39.4417C32.4961 39.4919 32.2709 39.5176 32.0449 39.5184ZM35.1959 39.4385V34.7216H34.3715V33.9866L35.1959 33.7884V33.2771C35.1849 32.9194 35.2504 32.5634 35.3882 32.2321C35.503 31.9741 35.6782 31.7463 35.8998 31.5674C36.103 31.4042 36.3381 31.2834 36.5906 31.2127C36.8281 31.1465 37.0737 31.1121 37.3205 31.1104C37.4951 31.109 37.6695 31.1218 37.8419 31.1488C37.9521 31.1625 38.0609 31.1839 38.1678 31.2127V32.1714C38.0617 32.1372 37.9526 32.1126 37.8419 32.0979C37.6745 32.0762 37.5057 32.0666 37.3368 32.0691C37.227 32.0665 37.1179 32.0884 37.018 32.1333C36.918 32.1781 36.8298 32.2447 36.7601 32.328C36.5928 32.5558 36.5132 32.8343 36.5352 33.1141V33.7788H37.9103V34.712H36.5352V39.4289L35.1959 39.4385ZM39.6635 32.8553C39.4559 32.8594 39.2545 32.7864 39.0997 32.6508C39.0211 32.5841 38.9589 32.5009 38.9177 32.4074C38.8765 32.3139 38.8574 32.2125 38.8619 32.1107C38.8609 31.9589 38.9075 31.8103 38.9955 31.6856C39.0785 31.561 39.19 31.4571 39.3213 31.382C39.4543 31.3069 39.6048 31.2673 39.758 31.267C39.8619 31.2567 39.9669 31.2686 40.0657 31.3019C40.1645 31.3351 40.2548 31.389 40.3303 31.4598C40.4059 31.5305 40.4649 31.6165 40.5034 31.7117C40.5418 31.807 40.5588 31.9093 40.5531 32.0116C40.556 32.1248 40.5337 32.2373 40.4875 32.3411C40.4413 32.4449 40.3725 32.5375 40.2859 32.6124C40.118 32.769 39.8951 32.856 39.6635 32.8553ZM39.0737 39.4385V33.798H40.3771V39.4385H39.0737ZM42.1758 39.4385V31.1903H43.5053V39.4385H42.1758ZM45.2552 39.4385V33.798H46.4576V34.3956C46.625 34.2778 46.8003 34.171 46.9822 34.076C47.2001 33.9665 47.4281 33.8777 47.6633 33.8108C47.9046 33.7393 48.1543 33.6985 48.4062 33.6894C48.7488 33.6633 49.0922 33.7285 49.4001 33.8779C49.6654 34.0352 49.8634 34.2817 49.9573 34.5714C50.0893 34.9955 50.1486 35.4384 50.1333 35.8816V39.4225H48.8299V36.0031C48.8358 35.7569 48.8096 35.5109 48.7517 35.2713C48.734 35.1886 48.6999 35.1102 48.6512 35.0406C48.6026 34.9709 48.5404 34.9114 48.4682 34.8654C48.2822 34.7727 48.0728 34.735 47.8653 34.7567C47.6559 34.7682 47.4495 34.8102 47.2527 34.8814C47.0168 34.9616 46.7965 35.0805 46.601 35.2329V39.4225L45.2552 39.4385ZM50.0681 35.2585L49.8009 34.4468C49.9608 34.323 50.1333 34.2159 50.3158 34.1272C50.5477 34.007 50.7911 33.9096 51.0424 33.8364C51.3102 33.7581 51.5875 33.7162 51.8669 33.7117C52.2118 33.6929 52.5559 33.76 52.8672 33.9067C53.1411 34.0562 53.3488 34.2998 53.4505 34.5906C53.5942 35.0114 53.6591 35.454 53.6428 35.8976V39.4449H52.3231V36.0254C52.3286 35.7784 52.3035 35.5315 52.2481 35.2904C52.2135 35.1257 52.1139 34.981 51.9711 34.8878C51.7863 34.7951 51.5779 34.7574 51.3716 34.7791C51.1474 34.789 50.9267 34.8376 50.7198 34.9229C50.4887 35.0067 50.2697 35.1195 50.0681 35.2585ZM57.1751 39.4385V33.798H58.3645V34.3956C58.5321 34.278 58.7073 34.1712 58.8891 34.076C59.1079 33.9661 59.3371 33.8773 59.5734 33.8108C59.8136 33.7392 60.0622 33.6983 60.3131 33.6894C60.6502 33.6663 60.9876 33.7313 61.2907 33.8779C61.5558 34.0354 61.7538 34.2818 61.8479 34.5714C61.9799 34.9958 62.0392 35.4384 62.0239 35.8816V39.4225H60.7204V36.0031C60.7264 35.7569 60.7001 35.5109 60.6422 35.2713C60.6246 35.1886 60.5905 35.1102 60.5418 35.0406C60.4931 34.9709 60.4309 34.9114 60.3587 34.8654C60.1739 34.7727 59.9655 34.735 59.7591 34.7567C59.5487 34.7678 59.341 34.8099 59.1433 34.8814C58.9016 34.9599 58.6756 35.0789 58.4753 35.2329V39.4225L57.1751 39.4385ZM61.988 35.2585L61.7208 34.4468C61.8814 34.3225 62.0551 34.2154 62.2389 34.1272C62.4705 34.0064 62.714 33.909 62.9656 33.8364C63.2332 33.7578 63.5107 33.7159 63.79 33.7117C64.1339 33.6929 64.4769 33.76 64.7871 33.9067C65.0547 34.0572 65.2574 34.298 65.3574 34.5842C65.5008 35.005 65.5659 35.4477 65.5496 35.8912V39.4385H64.2267V36.019C64.2315 35.7722 64.2075 35.5255 64.155 35.284C64.1201 35.1194 64.0207 34.9747 63.878 34.8814C63.6919 34.789 63.4826 34.7513 63.2752 34.7727C63.051 34.7827 62.8304 34.8314 62.6234 34.9165C62.3977 35.0035 62.1841 35.1184 61.988 35.2585ZM69.5088 39.5184C69.1448 39.5405 68.7803 39.4825 68.442 39.3487C68.1037 39.2149 67.8002 39.0086 67.5537 38.745C67.0662 38.1374 66.8228 37.3756 66.8694 36.6039C66.8619 36.0969 66.9664 35.5943 67.1757 35.1306C67.3702 34.711 67.6835 34.3549 68.0783 34.1048C68.5147 33.8415 69.0193 33.7072 69.5316 33.7181C69.8132 33.7102 70.0942 33.7491 70.3626 33.8332C70.6187 33.9169 70.8546 34.0505 71.0566 34.2262C71.2661 34.416 71.4307 34.6483 71.5389 34.9069C71.6676 35.2185 71.7328 35.5518 71.7312 35.888V36.4569C71.7299 36.606 71.7146 36.7547 71.6856 36.9011H67.6123L67.7133 36.1309H70.4962C70.5137 35.8785 70.4972 35.6249 70.4473 35.3767C70.4079 35.1651 70.3006 34.9714 70.141 34.8238C69.9516 34.6723 69.7102 34.5979 69.4665 34.6161C69.2195 34.6117 68.9776 34.6844 68.7756 34.8238C68.546 35.0067 68.3836 35.258 68.3129 35.5397C68.1894 35.9914 68.1432 36.4601 68.1761 36.9266C68.1753 37.2615 68.2605 37.5912 68.4237 37.8854C68.5599 38.1122 68.7666 38.2903 69.0135 38.3935C69.2758 38.4995 69.5575 38.5517 69.8412 38.5469C70.0093 38.5453 70.1768 38.5312 70.343 38.5053C70.5286 38.48 70.7125 38.4437 70.8937 38.3967C71.0348 38.365 71.1707 38.3145 71.2978 38.2465L71.5422 38.9783C71.3829 39.0953 71.2059 39.1869 71.0175 39.2499C70.7806 39.3317 70.5379 39.3947 70.2909 39.4385C70.0331 39.4887 69.7715 39.5155 69.5088 39.5184ZM74.9637 39.5184C74.5566 39.5234 74.1565 39.4146 73.8102 39.2046C73.4639 38.9946 73.1858 38.6922 73.0085 38.3328C72.7775 37.8597 72.6657 37.3391 72.6827 36.8148C72.6693 36.2527 72.7945 35.6958 73.0476 35.1914C73.2726 34.7416 73.6243 34.3645 74.0611 34.1048C74.5228 33.8393 75.051 33.7053 75.5861 33.7181C75.8872 33.7101 76.1876 33.7501 76.4757 33.8364C76.6371 33.8797 76.7901 33.9488 76.9286 34.0409L76.5213 34.8622C76.4065 34.774 76.2709 34.7157 76.127 34.6928C75.9324 34.6587 75.7349 34.6426 75.5372 34.6449C75.2696 34.6433 75.0079 34.7226 74.7877 34.8718C74.5475 35.0472 74.3623 35.2853 74.2533 35.5589C74.109 35.9189 74.0392 36.3034 74.048 36.6902C73.9984 37.175 74.1129 37.6624 74.3739 38.0771C74.4892 38.2211 74.6383 38.3355 74.8086 38.4107C74.9788 38.4858 75.1651 38.5194 75.3515 38.5085C75.5878 38.512 75.8221 38.4663 76.039 38.3743C76.2106 38.3062 76.3726 38.2171 76.5213 38.1091L76.7168 38.7482C76.6353 38.8313 76.5246 38.9336 76.3909 39.0678C76.2246 39.2022 76.0376 39.3101 75.837 39.3873C75.5574 39.4864 75.2607 39.5309 74.9637 39.5184ZM76.593 39.4385V38.7035L76.5148 38.6555V34.7152L76.5571 34.6864L76.5148 33.4625V31.1903H77.8182V39.4385H76.593ZM83.2796 39.5184C82.8835 39.5225 82.4938 39.4209 82.1521 39.2244C81.7925 39.0096 81.5048 38.6963 81.3244 38.3232C81.0934 37.8501 80.9816 37.3295 80.9986 36.8052C80.9856 36.2435 81.1096 35.687 81.3603 35.1818C81.5863 34.7327 81.9377 34.3559 82.3737 34.0952C82.8368 33.83 83.3659 33.6961 83.902 33.7085C84.2031 33.7006 84.5035 33.7405 84.7916 33.8268C84.953 33.8701 85.106 33.9392 85.2445 34.0313L84.8372 34.8526C84.7215 34.7639 84.5847 34.7056 84.4397 34.6832C84.2461 34.6491 84.0497 34.633 83.8531 34.6353C83.5854 34.6337 83.3238 34.7129 83.1036 34.8622C82.8623 35.0365 82.6769 35.2749 82.5692 35.5493C82.4249 35.9093 82.3551 36.2938 82.3639 36.6806C82.3157 37.1653 82.4301 37.6523 82.6898 38.0675C82.8055 38.211 82.9548 38.3251 83.1249 38.4002C83.295 38.4753 83.4811 38.5092 83.6674 38.4989C83.9036 38.5021 84.1379 38.4564 84.3549 38.3647C84.5265 38.2966 84.6885 38.2075 84.8372 38.0995L85.0327 38.7386C84.9512 38.8217 84.8372 38.924 84.7068 39.0582C84.5397 39.1933 84.3516 39.3012 84.1496 39.3778C83.8719 39.4802 83.5762 39.528 83.2796 39.5184ZM84.9089 39.4385V38.7035L84.8307 38.6555V34.7152L84.873 34.6864L84.8307 33.4625V31.1903H86.1341V39.4385H84.9089ZM90.1226 39.5184C89.7586 39.5402 89.3942 39.4822 89.0559 39.3484C88.7177 39.2146 88.4142 39.0084 88.1675 38.745C87.68 38.1374 87.4366 37.3756 87.4832 36.6039C87.48 36.0953 87.5912 35.5922 87.809 35.1306C88.0022 34.7111 88.3144 34.355 88.7084 34.1048C89.1458 33.841 89.6516 33.7067 90.165 33.7181C90.4455 33.7103 90.7254 33.7492 90.9927 33.8332C91.2488 33.9169 91.4847 34.0505 91.6867 34.2262C91.8961 34.416 92.0608 34.6483 92.169 34.9069C92.2977 35.2185 92.3629 35.5518 92.3613 35.888V36.4569C92.3616 36.6061 92.3463 36.755 92.3156 36.9011H88.2098L88.3108 36.1309H91.1002C91.121 35.8785 91.1045 35.6245 91.0513 35.3767C91.0132 35.1654 90.907 34.9716 90.7483 34.8238C90.5577 34.6746 90.3171 34.6005 90.0737 34.6161C89.8267 34.6107 89.5844 34.6835 89.3829 34.8238C89.1523 35.0063 88.9886 35.2577 88.9169 35.5397C88.7934 35.9914 88.7472 36.4601 88.7801 36.9266C88.7793 37.2615 88.8645 37.5912 89.0277 37.8854C89.1639 38.1122 89.3706 38.2903 89.6175 38.3935C89.8799 38.4989 90.1614 38.5513 90.4452 38.5469C90.6134 38.5453 90.7808 38.5312 90.947 38.5053C91.1338 38.4798 91.3185 38.4436 91.501 38.3967C91.6411 38.3654 91.776 38.3145 91.9018 38.2465L92.1462 38.9783C91.9876 39.0945 91.8118 39.1861 91.6248 39.2499C91.3879 39.3314 91.1448 39.3944 90.8982 39.4385C90.6427 39.488 90.383 39.5149 90.1226 39.5184ZM95.3657 41.8672V40.8286C95.4517 40.8545 95.54 40.8714 95.6296 40.8798C95.7192 40.8932 95.8095 40.9005 95.9001 40.9021C96.0801 40.8967 96.2578 40.8599 96.4247 40.7935C96.6536 40.6992 96.8502 40.5429 96.9917 40.3429C97.209 40.0285 97.3515 39.6703 97.4088 39.2947L97.4805 39.4385H96.9233L94.8801 33.7884H96.2911L97.4251 37.3037L97.9009 38.9367H97.6173L98.041 37.3037L98.9925 33.7884H100.407L98.5167 39.6015C98.3522 40.1661 98.0765 40.6937 97.7053 41.1546C97.4388 41.4797 97.0807 41.7208 96.6756 41.8481C96.5697 41.8826 96.4606 41.9072 96.3498 41.9216C96.2422 41.9411 96.1331 41.9519 96.0239 41.9535C95.9512 41.957 95.8783 41.957 95.8056 41.9535L95.5319 41.9216C95.4741 41.9114 95.4181 41.8931 95.3657 41.8672ZM101.313 39.4385V33.798H102.505V34.4052C102.674 34.2878 102.85 34.1811 103.033 34.0856C103.254 33.9766 103.484 33.8868 103.721 33.8172C103.965 33.7431 104.218 33.7012 104.473 33.6926C104.717 33.6636 104.963 33.691 105.194 33.7726C105.424 33.8542 105.632 33.9877 105.8 34.1623C106.073 34.4905 106.21 35.068 106.21 35.8944V39.4257H104.881V36.0063C104.908 35.6665 104.843 35.3256 104.692 35.0188C104.565 34.8207 104.304 34.7344 103.903 34.7535C103.77 34.7608 103.638 34.7811 103.509 34.8143C103.354 34.8564 103.203 34.9098 103.056 34.974C102.901 35.0456 102.755 35.1335 102.619 35.2361V39.4257L101.313 39.4385ZM110.033 41.9951C109.38 42.0296 108.73 41.8822 108.159 41.57C107.947 41.4375 107.774 41.2518 107.66 41.0321C107.545 40.8125 107.493 40.5668 107.507 40.3205C107.503 40.1256 107.556 39.9336 107.66 39.7676C107.759 39.6056 107.891 39.4653 108.048 39.3554C108.196 39.2445 108.361 39.1582 108.537 39.0997L109.342 39.1988L109.114 39.3937C109.022 39.4723 108.946 39.5665 108.889 39.6718C108.819 39.8141 108.787 39.9711 108.794 40.1288C108.79 40.3205 108.833 40.5103 108.921 40.6816C109.012 40.8462 109.157 40.9759 109.332 41.0491C109.574 41.1488 109.835 41.1946 110.098 41.1833C110.366 41.1859 110.633 41.1536 110.893 41.0875C111.106 41.0399 111.305 40.9435 111.473 40.8062C111.543 40.7477 111.599 40.6746 111.637 40.5922C111.674 40.5099 111.693 40.4203 111.691 40.3301C111.696 40.163 111.659 39.9973 111.584 39.8475C111.498 39.6959 111.357 39.5817 111.189 39.528C110.914 39.4436 110.627 39.4068 110.339 39.4193H109.642C109.466 39.4193 109.316 39.4193 109.176 39.4001C109.053 39.389 108.931 39.3697 108.811 39.3426C108.765 39.3323 108.722 39.3139 108.684 39.2883C108.644 39.264 108.601 39.2457 108.556 39.234C108.339 39.1739 108.151 39.0403 108.025 38.8569C107.929 38.7019 107.878 38.5238 107.879 38.3423C107.885 38.2017 107.921 38.0634 107.983 37.9365C108.056 37.7876 108.155 37.6524 108.276 37.537C108.419 37.4008 108.581 37.2866 108.758 37.1983L109.55 37.3676C109.423 37.4226 109.311 37.507 109.224 37.6137C109.136 37.7131 109.087 37.8399 109.084 37.9716C109.075 38.0445 109.084 38.1185 109.111 38.187C109.137 38.2556 109.181 38.3166 109.237 38.3647C109.399 38.4482 109.581 38.4848 109.762 38.4702H110.795C111.164 38.4606 111.532 38.5056 111.887 38.6044C112.129 38.6734 112.353 38.7971 112.538 38.9655C112.688 39.1045 112.8 39.2781 112.864 39.4704C112.925 39.6563 112.956 39.8504 112.956 40.0457C112.96 40.3365 112.88 40.6227 112.724 40.8702C112.563 41.12 112.346 41.33 112.089 41.4837C111.8 41.656 111.486 41.7822 111.157 41.8576C110.789 41.948 110.412 41.9942 110.033 41.9951ZM109.98 37.521C109.57 37.5273 109.162 37.4489 108.785 37.2909C108.452 37.1573 108.163 36.9361 107.95 36.6518C107.747 36.3654 107.64 36.0231 107.647 35.6739C107.632 35.2928 107.738 34.9164 107.95 34.597C108.157 34.3067 108.447 34.084 108.785 33.9578C109.171 33.8108 109.582 33.736 109.997 33.7373C110.412 33.7251 110.825 33.7901 111.215 33.929C111.556 34.0505 111.854 34.2658 112.072 34.549C112.297 34.8604 112.411 35.2353 112.398 35.6164C112.417 35.9818 112.315 36.3434 112.11 36.6485C111.904 36.9537 111.604 37.1866 111.255 37.3133C110.848 37.4622 110.414 37.5306 109.98 37.5147V37.521ZM110 36.7253C110.287 36.7403 110.571 36.6617 110.808 36.5016C110.922 36.3906 111.009 36.2553 111.061 36.1063C111.114 35.9573 111.131 35.7984 111.111 35.642C111.134 35.3466 111.041 35.0538 110.85 34.8238C110.745 34.7248 110.619 34.6488 110.482 34.6008C110.344 34.5529 110.198 34.5342 110.052 34.5458C109.86 34.5439 109.668 34.573 109.485 34.6321C109.317 34.6906 109.175 34.8033 109.081 34.9517C108.967 35.1794 108.917 35.4326 108.934 35.6856C108.952 35.9386 109.038 36.1826 109.182 36.3929C109.281 36.5093 109.407 36.6004 109.549 36.6583C109.692 36.7162 109.846 36.7392 110 36.7253ZM111.734 34.7472L111.434 34.2199C111.559 34.0929 111.708 33.9919 111.874 33.9227C112.105 33.8137 112.36 33.759 112.617 33.7629H113.226V34.7472H111.734ZM113.884 39.0933L114.05 38.1538C114.152 38.2196 114.262 38.2733 114.376 38.3136C114.569 38.3893 114.767 38.45 114.969 38.4957C115.203 38.5503 115.443 38.5792 115.683 38.582C115.939 38.6021 116.195 38.5476 116.419 38.4254C116.497 38.3786 116.561 38.3126 116.604 38.2341C116.648 38.1556 116.669 38.0673 116.667 37.978C116.668 37.9108 116.655 37.8441 116.628 37.7821C116.602 37.72 116.563 37.6638 116.514 37.6169C116.391 37.5005 116.249 37.4054 116.094 37.3357C115.918 37.2494 115.716 37.1599 115.494 37.0641C115.193 36.9406 114.905 36.7864 114.637 36.6039C114.412 36.4533 114.224 36.2558 114.086 36.0254C113.954 35.7843 113.89 35.5129 113.9 35.2393C113.895 34.9296 114.002 34.6281 114.204 34.3892C114.412 34.155 114.681 33.9805 114.982 33.8843C115.333 33.7689 115.701 33.7127 116.071 33.7181C116.407 33.7116 116.742 33.7492 117.068 33.83C117.261 33.8728 117.45 33.9371 117.628 34.0217L117.459 34.9804C117.367 34.915 117.266 34.8624 117.159 34.8238C117.012 34.7645 116.859 34.7206 116.703 34.6928C116.531 34.6609 116.356 34.6449 116.181 34.6449C115.914 34.6292 115.647 34.6775 115.403 34.7855C115.326 34.8201 115.26 34.8754 115.214 34.945C115.168 35.0146 115.143 35.0956 115.142 35.1786C115.134 35.2775 115.153 35.3768 115.197 35.4661C115.241 35.5554 115.309 35.6316 115.393 35.6867C115.6 35.8193 115.818 35.9337 116.045 36.0286C116.379 36.1792 116.705 36.3466 117.022 36.5304C117.275 36.6735 117.497 36.8647 117.674 37.0928C117.837 37.3194 117.921 37.592 117.912 37.8694C117.927 38.1049 117.882 38.3404 117.782 38.555C117.682 38.7696 117.53 38.9567 117.338 39.0997C116.878 39.4021 116.33 39.549 115.777 39.5184C115.509 39.5203 115.241 39.4989 114.976 39.4545C114.746 39.4184 114.519 39.365 114.298 39.2947C114.151 39.2461 114.012 39.1784 113.884 39.0933ZM120.91 39.5184C120.645 39.5244 120.382 39.4765 120.137 39.3778C119.921 39.2791 119.747 39.1096 119.645 38.8984C119.514 38.6037 119.454 38.2833 119.469 37.9621V34.7152H118.743V34.0217C118.997 33.9514 119.196 33.8875 119.336 33.8332C119.41 33.8061 119.478 33.7635 119.534 33.7084C119.591 33.6532 119.634 33.5868 119.662 33.5136C119.69 33.4369 119.723 33.3474 119.759 33.2452L119.877 32.9032L120.014 32.5037H120.805V33.782H122.383V34.7088H120.789V37.3261C120.781 37.5913 120.799 37.8566 120.841 38.1186C120.846 38.1828 120.866 38.245 120.899 38.3004C120.933 38.3558 120.979 38.403 121.034 38.4382C121.16 38.489 121.297 38.512 121.434 38.5053C121.544 38.5044 121.653 38.4938 121.76 38.4734C121.879 38.4516 121.996 38.4239 122.112 38.3903C122.203 38.3644 122.29 38.3292 122.373 38.2848L122.575 39.0198C122.447 39.1164 122.307 39.1959 122.158 39.2563C121.965 39.3352 121.765 39.3973 121.561 39.4417C121.348 39.4906 121.129 39.5164 120.91 39.5184ZM125.967 39.5184C125.603 39.5405 125.238 39.4825 124.9 39.3487C124.562 39.2149 124.258 39.0086 124.012 38.745C123.524 38.1374 123.281 37.3756 123.328 36.6039C123.318 36.0967 123.423 35.5937 123.634 35.1306C123.828 34.711 124.142 34.3549 124.536 34.1048C124.973 33.8409 125.477 33.7066 125.99 33.7181C126.271 33.7102 126.552 33.7491 126.821 33.8332C127.077 33.9169 127.313 34.0505 127.515 34.2262C127.724 34.416 127.889 34.6483 127.997 34.9069C128.126 35.2185 128.191 35.5518 128.189 35.888V36.4569C128.188 36.606 128.173 36.7547 128.144 36.9011H124.077L124.181 36.1309H126.964C126.982 35.8785 126.965 35.6249 126.915 35.3767C126.876 35.1651 126.769 34.9714 126.609 34.8238C126.42 34.6723 126.178 34.5979 125.934 34.6161C125.688 34.6117 125.446 34.6844 125.244 34.8238C125.014 35.0067 124.852 35.258 124.781 35.5397C124.658 35.9915 124.61 36.4599 124.641 36.9266C124.642 37.2616 124.729 37.591 124.892 37.8854C125.027 38.1119 125.232 38.2901 125.478 38.3935C125.741 38.4989 126.022 38.551 126.306 38.5469C126.474 38.5453 126.642 38.5315 126.808 38.5053C126.994 38.4803 127.18 38.444 127.362 38.3967C127.503 38.3644 127.638 38.3139 127.766 38.2465L128.01 38.9783C127.85 39.0946 127.674 39.186 127.486 39.2499C127.249 39.3317 127.006 39.3947 126.759 39.4385C126.498 39.4893 126.233 39.5158 125.967 39.5184Z" fill="white"/>
</svg>
