<svg width="138" height="117" viewBox="0 0 138 117" fill="none" xmlns="http://www.w3.org/2000/svg">
<g filter="url(#filter0_d_201_5456)">
<path d="M72.5116 75.3242C72.545 75.3242 66.114 75.3242 55.9278 75.3039C49.7126 75.2915 46.9974 74.6999 44.8961 74.2517C42.8001 73.8046 41.513 72.0518 40.5541 70.2697C40.0314 69.2981 40.0981 67.9066 40.1895 66.616C40.3418 64.4669 43.0287 61.2645 45.3914 57.7689C47.1625 55.1486 49.8126 52.7924 51.4636 50.9653C52.8216 49.4624 53.8193 47.5387 55.3465 45.4931C56.7505 43.6126 58.7667 42.0203 60.2922 40.5905C62.0803 38.9146 63.5241 35.9414 64.701 34.3304C66.0691 32.4575 69.007 31.0808 71.5852 29.7248C73.6359 28.6463 78.3442 28.5316 81.4668 29.1138C83.3688 29.4684 85.1267 31.7719 86.8482 33.2849C88.3541 34.6084 89.6446 36.3155 91.1141 38.0218C92.4584 39.5825 94.1793 42.0033 96.2711 45.5588C97.9214 48.3637 99.879 51.0093 101.274 52.8753C103.339 55.6387 103.91 58.1073 104.238 61.1859C104.703 65.5572 104.139 68.8309 103.578 69.5948C102.338 71.2848 100.341 71.9772 98.6099 73.2651C97.0837 74.4004 95.2127 75.3919 93.2339 76.3976C91.5158 77.2708 89.5241 77.654 87.4159 78.1506C85.4455 78.6147 83.3043 78.8237 80.5598 79.171C77.7062 79.5322 75.3304 79.6359 70.1918 79.7007C65.5497 79.7592 56.7761 79.7792 52.022 79.7586C45.2628 79.7293 42.2721 78.4971 39.8533 77.97C37.8857 77.5412 35.9783 77.2064 34.1014 76.3188C33.2371 75.9101 33.1429 74.6025 32.9134 73.2947C32.0926 68.6169 34.675 64.8214 37.0096 61.42C38.8613 58.7221 40.9385 55.484 42.9454 52.9008C45.3428 49.8149 47.1088 46.9904 50.009 43.6007C52.5457 40.6359 54.7044 38.3474 59.661 34.6684C61.9326 32.9822 63.832 31.9632 65.9452 31.2163C67.9051 30.5237 69.815 30.4964 71.6719 30.2159C72.1425 30.1518 72.6047 30.0668 73.5072 30.0224C74.4097 29.978 75.7384 29.9768 77.7494 30.5343" stroke="#B1D4CD" stroke-width="57.5331" stroke-linecap="round"/>
</g>
<g filter="url(#filter1_d_201_5456)">
<path d="M54.7959 47.0803C54.8954 52.2625 55.1497 63.9364 55.8448 68.225C56.3368 71.2608 57.3063 72.7594 58.0186 73.5744C58.7334 74.3921 60.1581 74.2941 62.0006 73.8473C65.1438 73.0849 71.4235 67.9988 78.9838 62.139C84.5091 57.8564 85.3973 55.7015 85.528 54.6744C85.8666 52.0149 78.5773 50.5159 73.3831 47.3431C69.1303 44.7452 66.1067 44.5564 63.6555 43.5394C60.7966 42.3533 59.1587 42.189 58.2314 42.4609C54.2255 43.6353 57.6336 53.3063 57.7921 59.7875C57.8305 61.3556 58.0836 62.263 58.3888 62.9102C58.6941 63.5574 59.1044 63.9142 59.5727 63.9104C61.7771 63.8929 63.2656 60.9063 66.3741 59.2061C71.8075 56.2344 74.9928 55.6301 76.7733 54.713C78.6275 53.7579 72.2359 53.6272 69.2374 53.3556C66.4624 53.1043 64.8217 51.3649 63.8128 50.5778C63.322 50.195 62.8898 49.8267 62.6851 50.482C61.2508 55.0749 63.6945 57.8728 64.4562 61.1299C64.6659 62.0266 64.9418 62.8796 65.2975 63.466C65.6531 64.0525 66.098 64.3423 66.5614 64.3683C67.4933 64.1479 68.4737 63.3084 69.159 62.1634C69.3466 61.604 69.2092 61.0888 69.0676 60.5579" stroke="#8A2151" stroke-width="10" stroke-linecap="round" shape-rendering="crispEdges"/>
</g>
<defs>
<filter id="filter0_d_201_5456" x="0" y="0" width="137.177" height="116.533" filterUnits="userSpaceOnUse" color-interpolation-filters="sRGB">
<feFlood flood-opacity="0" result="BackgroundImageFix"/>
<feColorMatrix in="SourceAlpha" type="matrix" values="0 0 0 0 0 0 0 0 0 0 0 0 0 0 0 0 0 0 127 0" result="hardAlpha"/>
<feOffset dy="4"/>
<feGaussianBlur stdDeviation="2"/>
<feComposite in2="hardAlpha" operator="out"/>
<feColorMatrix type="matrix" values="0 0 0 0 0 0 0 0 0 0 0 0 0 0 0 0 0 0 0.25 0"/>
<feBlend mode="normal" in2="BackgroundImageFix" result="effect1_dropShadow_201_5456"/>
<feBlend mode="normal" in="SourceGraphic" in2="effect1_dropShadow_201_5456" result="shape"/>
</filter>
<filter id="filter1_d_201_5456" x="45.7959" y="37.3485" width="48.7471" height="49.8387" filterUnits="userSpaceOnUse" color-interpolation-filters="sRGB">
<feFlood flood-opacity="0" result="BackgroundImageFix"/>
<feColorMatrix in="SourceAlpha" type="matrix" values="0 0 0 0 0 0 0 0 0 0 0 0 0 0 0 0 0 0 127 0" result="hardAlpha"/>
<feOffset dy="4"/>
<feGaussianBlur stdDeviation="2"/>
<feComposite in2="hardAlpha" operator="out"/>
<feColorMatrix type="matrix" values="0 0 0 0 0 0 0 0 0 0 0 0 0 0 0 0 0 0 0.25 0"/>
<feBlend mode="normal" in2="BackgroundImageFix" result="effect1_dropShadow_201_5456"/>
<feBlend mode="normal" in="SourceGraphic" in2="effect1_dropShadow_201_5456" result="shape"/>
</filter>
</defs>
</svg>
