<svg width="72" height="60" viewBox="0 0 72 60" fill="none" xmlns="http://www.w3.org/2000/svg">
<g filter="url(#filter0_d_280_626)">
<path d="M37.7079 36.3834C37.7241 36.3834 34.6103 36.3834 29.6783 36.3742C26.669 36.3686 25.3543 36.1018 24.3369 35.8997C23.322 35.698 22.6989 34.9076 22.2346 34.1038C21.9815 33.6657 22.0138 33.0382 22.058 32.4561C22.1318 31.4869 23.4328 30.0427 24.5767 28.4663C25.4343 27.2846 26.7174 26.2219 27.5168 25.3979C28.1743 24.7202 28.6574 23.8526 29.3969 22.9301C30.0766 22.082 31.0529 21.3639 31.7915 20.7191C32.6573 19.9633 33.3563 18.6225 33.9262 17.8959C34.5886 17.0513 36.0111 16.4304 37.2594 15.8189C38.2523 15.3325 40.532 15.2808 42.0439 15.5434C42.9649 15.7033 43.816 16.7421 44.6496 17.4245C45.3787 18.0213 46.0035 18.7912 46.715 19.5607C47.3659 20.2646 48.1991 21.3563 49.212 22.9597C50.0111 24.2247 50.9589 25.4178 51.6341 26.2593C52.6342 27.5056 52.9105 28.6189 53.0692 30.0073C53.2946 31.9786 53.0215 33.455 52.75 33.7995C52.1493 34.5617 51.1827 34.8739 50.3444 35.4547C49.6054 35.9667 48.6995 36.4139 47.7414 36.8674C46.9095 37.2612 45.9452 37.434 44.9244 37.658C43.9704 37.8673 42.9336 37.9615 41.6048 38.1182C40.2231 38.2811 39.0728 38.3278 36.5847 38.357C34.3371 38.3834 30.089 38.3925 27.7872 38.3832C24.5145 38.37 23.0664 37.8142 21.8953 37.5765C20.9426 37.3831 20.019 37.2322 19.1103 36.8319C18.6918 36.6476 18.6462 36.0579 18.5351 35.4681C18.1376 33.3585 19.388 31.6468 20.5184 30.1128C21.4149 28.8961 22.4207 27.4358 23.3924 26.2708C24.5532 24.8792 25.4083 23.6053 26.8125 22.0767C28.0407 20.7396 29.086 19.7075 31.4859 18.0483C32.5858 17.2879 33.5054 16.8284 34.5286 16.4915C35.4775 16.1792 36.4023 16.1669 37.3014 16.0404C37.5293 16.0115 37.7531 15.9731 38.19 15.9531C38.627 15.9331 39.2703 15.9326 40.244 16.184" stroke="#741A43" stroke-width="30.7735" stroke-linecap="round"/>
<path d="M24.8276 18.4217C24.8181 18.4217 24.7002 18.4718 24.5282 18.6088C24.4462 18.6742 24.4677 18.8174 24.5223 18.8545C24.6598 18.9479 24.913 18.7106 25.0993 18.5314C25.191 18.4432 25.2118 18.3034 25.1742 18.2102C25.0945 18.0127 24.6549 18.0013 24.2174 18.0352C23.9026 18.0596 23.7057 18.2893 23.551 18.4817C23.3904 18.6814 23.4589 19.075 23.5166 19.4291C23.6006 19.9451 24.539 19.7779 25.2166 19.7442C25.7292 19.7186 25.5648 18.9483 25.563 18.704C25.5403 18.5857 25.4736 18.479 25.3781 18.4111C25.2827 18.3432 25.1605 18.3173 24.9357 18.2438" stroke="white" stroke-width="7.69338" stroke-linecap="round"/>
<path d="M49.879 18.1867C49.8696 18.1879 49.7588 18.2522 49.605 18.4093C49.5316 18.4843 49.5706 18.6238 49.6294 18.6539C49.7773 18.7296 49.9994 18.463 50.1622 18.2621C50.2423 18.1633 50.2457 18.022 50.1969 17.9341C50.0934 17.748 49.6559 17.7908 49.2258 17.8784C48.9164 17.9414 48.7493 18.1936 48.6195 18.4035C48.4847 18.6215 48.6012 19.0037 48.7021 19.348C48.8491 19.8497 49.7597 19.5682 50.428 19.4512C50.9335 19.3627 50.6755 18.6185 50.6436 18.3762C50.6065 18.2616 50.5271 18.164 50.424 18.1084C50.3209 18.0527 50.1965 18.0421 49.9643 17.9968" stroke="white" stroke-width="7.69338" stroke-linecap="round"/>
<path d="M29.1728 18.9171C29.167 18.9171 29.056 18.9105 28.8651 18.9347C28.7774 18.9458 28.7276 19.0339 28.6994 19.1209C28.6712 19.2079 28.6711 19.3114 28.6913 19.3965C28.7115 19.4816 28.7521 19.5452 28.8084 19.5905C28.8648 19.6359 28.9357 19.6612 28.9957 19.6377C29.2824 19.5256 29.2865 19.1731 29.3034 19.0096C29.3114 18.9313 29.2604 18.8618 29.2011 18.8113C29.0781 18.7065 28.9055 18.661 28.7662 18.6237C28.699 18.6258 28.6389 18.6706 28.5971 18.7309C28.5553 18.7912 28.5335 18.8655 28.4634 19.0546" stroke="black" stroke-width="3.84669" stroke-linecap="round"/>
<path d="M53.8202 18.0021C53.8144 18.0028 53.7034 18.0099 53.517 18.0575C53.4312 18.0793 53.3927 18.1729 53.3754 18.2627C53.3582 18.3525 53.3708 18.4552 53.4014 18.5372C53.4319 18.6192 53.48 18.6772 53.5415 18.7153C53.603 18.7534 53.6765 18.7698 53.7332 18.7391C54.0038 18.5925 53.9645 18.2422 53.9611 18.0778C53.9595 17.9991 53.9002 17.9365 53.8351 17.8936C53.7002 17.8048 53.5233 17.7809 53.3805 17.7611C53.314 17.7715 53.26 17.8233 53.2259 17.8883C53.1918 17.9532 53.1794 18.0297 53.133 18.226" stroke="black" stroke-width="3.84669" stroke-linecap="round"/>
<path d="M28.8413 18.3363H28.8498" stroke="black" stroke-width="3.84669" stroke-linecap="round"/>
<path d="M28.5175 17.9159C28.5175 17.9216 28.5718 17.8673 28.6222 17.8025C28.6275 17.7957 28.5546 17.8384 28.5378 17.8951C28.5211 17.9518 28.5532 18.0205 28.5837 18.0198C28.6142 18.0192 28.642 17.9473 28.5814 17.8411" stroke="white" stroke-width="0.769338" stroke-linecap="round"/>
<path d="M53.094 17.0514C53.0947 17.057 53.1419 16.9965 53.184 16.926C53.1884 16.9186 53.1213 16.9699 53.1117 17.0283C53.102 17.0866 53.1424 17.1508 53.1726 17.1464C53.2027 17.142 53.2214 17.0672 53.1482 16.9693" stroke="white" stroke-width="0.769338" stroke-linecap="round"/>
<path d="M36.1785 28.1419C36.2226 28.1682 36.7409 28.5754 37.2352 28.9482C37.5629 29.1953 38.1726 29.3088 38.7377 29.4054C39.8387 29.5936 40.1025 29.3724 40.3257 29.2852C40.5978 29.1789 40.8674 28.9806 41.0707 28.8012C41.4499 28.4762 41.636 28.2719 41.8033 28.041C41.841 27.9862 41.8697 27.94 41.9468 27.8032" stroke="white" stroke-width="1.53868" stroke-linecap="round"/>
<path d="M21.3729 26.8432C21.5157 26.8432 21.9839 26.8865 22.6713 27.1715C23.1391 27.3655 23.5711 27.3816 25.1634 27.353C25.4795 27.3473 25.4968 27.2011 25.5038 27.0948C25.5108 26.9886 25.5035 26.8837 25.4513 26.7968C25.1312 26.2646 23.6086 26.2769 22.7436 26.1808C21.8812 26.0851 21.1761 26.2992 20.9399 26.5343C20.8353 26.6383 20.7933 26.741 20.7748 26.8459C20.7562 26.9508 20.7704 27.0623 20.8624 27.1428C21.2925 27.5191 21.7882 27.5051 22.2385 27.703C22.6268 27.8736 23.0584 27.9144 23.5783 27.9502C24.0332 28.0137 24.3463 28.0539 24.5721 28.0624C24.6964 28.0668 24.8404 28.0712 25.1019 27.8398" stroke="#C4A1B9" stroke-width="2.30801" stroke-linecap="round"/>
<path d="M51.5495 26.4697C51.6863 26.4284 52.1469 26.3346 52.8874 26.4088C53.3912 26.4594 53.8095 26.35 55.3257 25.8625C55.6266 25.7657 55.6009 25.6208 55.5769 25.517C55.5529 25.4132 55.5156 25.3149 55.4405 25.2469C54.9804 24.8299 53.5262 25.2816 52.6703 25.4395C51.8171 25.597 51.204 26.0057 51.0457 26.299C50.9757 26.4289 50.9651 26.5393 50.9777 26.6451C50.9902 26.7509 51.0361 26.8535 51.1474 26.904C51.6679 27.14 52.1383 26.9834 52.6266 27.0427C53.0476 27.0938 53.4727 27.0081 53.9807 26.8922C54.4345 26.8216 54.7459 26.7696 54.9645 26.7125C55.0848 26.6808 55.224 26.6434 55.4074 26.3463" stroke="#C4A1B9" stroke-width="2.30801" stroke-linecap="round"/>
</g>
<defs>
<filter id="filter0_d_280_626" x="3.98159e-05" y="0" width="71.6169" height="59.9282" filterUnits="userSpaceOnUse" color-interpolation-filters="sRGB">
<feFlood flood-opacity="0" result="BackgroundImageFix"/>
<feColorMatrix in="SourceAlpha" type="matrix" values="0 0 0 0 0 0 0 0 0 0 0 0 0 0 0 0 0 0 127 0" result="hardAlpha"/>
<feOffset dy="3.07735"/>
<feGaussianBlur stdDeviation="1.53868"/>
<feComposite in2="hardAlpha" operator="out"/>
<feColorMatrix type="matrix" values="0 0 0 0 0 0 0 0 0 0 0 0 0 0 0 0 0 0 0.25 0"/>
<feBlend mode="normal" in2="BackgroundImageFix" result="effect1_dropShadow_280_626"/>
<feBlend mode="normal" in="SourceGraphic" in2="effect1_dropShadow_280_626" result="shape"/>
</filter>
</defs>
</svg>
