<svg width="290" height="289" viewBox="0 0 290 289" fill="none" xmlns="http://www.w3.org/2000/svg">
<g filter="url(#filter0_d_201_6340)">
<path d="M6.9873 137.28C6.9873 61.4626 69.1694 0 144.987 0C220.805 0 282.987 61.4626 282.987 137.28C282.987 213.098 220.805 274.561 144.987 274.561C69.1694 274.561 6.9873 213.098 6.9873 137.28Z" fill="#F3B1C7"/>
<path d="M146.689 146.668C146.728 146.668 139.239 146.668 127.376 146.644C120.138 146.63 116.976 145.941 114.529 145.419C112.088 144.898 110.59 142.857 109.473 140.782C108.864 139.65 108.942 138.03 109.048 136.527C109.226 134.024 112.355 130.295 115.106 126.224C117.169 123.172 120.255 120.428 122.178 118.301C123.759 116.551 124.921 114.31 126.699 111.928C128.334 109.738 130.682 107.884 132.459 106.219C134.541 104.267 136.223 100.805 137.593 98.9285C139.186 96.7474 142.608 95.1441 145.61 93.565C147.998 92.309 153.481 92.1755 157.118 92.8535C159.333 93.2664 161.38 95.949 163.385 97.711C165.139 99.2522 166.641 101.24 168.353 103.227C169.918 105.045 171.922 107.864 174.358 112.005C176.28 115.271 178.56 118.352 180.184 120.525C182.589 123.743 183.254 126.618 183.636 130.203C184.178 135.294 183.521 139.106 182.868 139.996C181.423 141.964 179.098 142.77 177.082 144.27C175.305 145.592 173.126 146.747 170.821 147.918C168.821 148.935 166.501 149.381 164.046 149.96C161.751 150.5 159.258 150.743 156.062 151.148C152.739 151.569 149.972 151.689 143.988 151.765C138.582 151.833 128.364 151.856 122.828 151.832C114.956 151.798 111.473 150.363 108.657 149.749C106.365 149.25 104.144 148.86 101.958 147.826C100.952 147.35 100.842 145.828 100.575 144.305C99.6189 138.857 102.626 134.437 105.345 130.476C107.501 127.334 109.92 123.563 112.258 120.555C115.05 116.961 117.106 113.672 120.483 109.724C123.438 106.272 125.952 103.607 131.724 99.322C134.369 97.3584 136.581 96.1717 139.042 95.3019C141.325 94.4953 143.549 94.4636 145.711 94.1369C146.259 94.0623 146.798 93.9633 147.849 93.9116C148.9 93.8599 150.447 93.8585 152.789 94.5077" stroke="#741A43" stroke-width="67.0006" stroke-linecap="round"/>
<path d="M115.71 100.286C115.688 100.286 115.404 100.415 114.99 100.769C114.793 100.938 114.845 101.308 114.976 101.404C115.307 101.645 115.916 101.032 116.364 100.569C116.585 100.341 116.634 99.9804 116.544 99.7397C116.352 99.2299 115.295 99.2004 114.243 99.288C113.486 99.351 113.012 99.9441 112.64 100.441C112.254 100.956 112.418 101.973 112.557 102.887C112.759 104.22 115.016 103.788 116.646 103.701C117.879 103.635 117.483 101.646 117.479 101.015C117.425 100.709 117.264 100.434 117.034 100.259C116.805 100.083 116.511 100.016 115.97 99.8265" stroke="white" stroke-width="16.7502" stroke-linecap="round"/>
<path d="M181.27 97.9786C180.777 97.9786 179.591 98.1774 179.183 98.6379C178.787 99.0842 178.944 99.9015 179.035 100.592C179.08 100.938 179.306 101.231 179.548 101.439C179.791 101.647 180.088 101.751 180.365 101.705C180.931 101.613 181.338 100.999 181.702 100.434C182.093 99.8289 182.2 98.9956 182.105 98.274C181.946 97.0697 180.058 97.5124 179.306 97.6335C178.641 98.7343 178.399 99.7313 178.487 100.475C178.575 100.81 178.752 101.061 179.537 101.14" stroke="white" stroke-width="16.7502" stroke-linecap="round"/>
<path d="M188.777 98.4086C188.763 98.4086 188.574 98.5519 188.275 98.9031C187.956 99.2775 188.073 99.8498 188.164 100.212C188.211 100.396 188.408 100.517 188.627 100.587C188.845 100.658 189.118 100.658 189.335 100.598C189.552 100.538 189.705 100.417 189.826 100.233C190.084 99.8396 190.111 98.9789 190.009 97.978C189.932 97.2286 189.384 96.8884 189.061 96.6964C188.897 96.5987 188.672 96.6505 188.496 96.7569C188.129 96.9785 188 97.5019 187.93 98.0499C187.906 98.7378 188.078 99.3378 188.408 99.7277C188.565 99.9064 188.702 100.046 188.983 100.244" stroke="black" stroke-width="8.37508" stroke-linecap="round"/>
<path d="M126.161 101.565C126.147 101.565 125.881 101.548 125.421 101.611C125.21 101.64 125.091 101.867 125.023 102.092C124.955 102.316 124.955 102.584 125.003 102.803C125.052 103.023 125.149 103.187 125.285 103.304C125.42 103.422 125.591 103.487 125.735 103.426C126.425 103.137 126.435 102.226 126.475 101.804C126.495 101.602 126.372 101.423 126.229 101.292C125.934 101.022 125.518 100.904 125.183 100.808C125.022 100.813 124.877 100.929 124.777 101.085C124.676 101.24 124.624 101.432 124.455 101.921" stroke="black" stroke-width="8.37508" stroke-linecap="round"/>
<path d="M125.363 100.066H125.383" stroke="black" stroke-width="8.37508" stroke-linecap="round"/>
<path d="M187.881 95.3271C187.881 95.3567 188.066 95.3694 188.31 95.2767C188.406 95.24 188.293 95.0085 188.173 94.961C188.053 94.9135 187.889 95.0018 187.881 95.0987C187.873 95.1955 188.026 95.2981 188.29 95.3818" stroke="white" stroke-width="1.67501" stroke-linecap="round"/>
<path d="M124.585 98.9803C124.585 98.9948 124.716 98.8548 124.837 98.6874C124.85 98.6699 124.674 98.78 124.634 98.9265C124.594 99.073 124.671 99.2502 124.744 99.2486C124.818 99.2471 124.884 99.0613 124.739 98.7871" stroke="white" stroke-width="1.67501" stroke-linecap="round"/>
<path d="M146.423 129.564C146.53 129.63 147.795 130.656 149 131.595C149.799 132.217 151.27 132.481 152.634 132.704C155.29 133.137 155.914 132.553 156.447 132.317C157.097 132.03 157.736 131.505 158.217 131.032C159.114 130.174 159.553 129.638 159.945 129.034C160.033 128.891 160.1 128.77 160.279 128.413" stroke="#FFFEFF" stroke-width="5.02504" stroke-linecap="round"/>
<path d="M90.9458 206.695C91.8619 206.695 92.615 206.741 93.205 206.835C93.8106 206.912 94.2997 207.099 94.6723 207.394C95.0605 207.673 95.2546 208.1 95.2546 208.675C95.2546 209.498 94.9363 210.041 94.2997 210.305C93.6786 210.569 92.7702 210.701 91.5746 210.701L89.6414 210.678L88.1741 210.701C88.2362 211.291 88.2673 211.757 88.2673 212.098C88.2673 213.822 87.5841 214.684 86.2176 214.684C85.0841 214.684 84.1913 214.055 83.5392 212.797C82.9025 211.539 82.5842 209.575 82.5842 206.904C82.5842 205.259 82.9258 203.791 83.609 202.502C84.3078 201.214 85.2549 200.212 86.4506 199.498C87.6462 198.768 88.9582 198.403 90.3868 198.403C92.1569 198.403 93.5 198.706 94.4161 199.312C95.3478 199.917 95.8136 200.763 95.8136 201.85C95.8136 202.611 95.6273 203.193 95.2546 203.597C94.8975 203.985 94.3928 204.249 93.7407 204.389C93.1041 204.513 92.2578 204.575 91.202 204.575C90.3479 204.575 89.6104 204.746 88.9893 205.088C88.3837 205.429 88.0499 205.903 87.9878 206.509L87.9645 206.718C88.1508 206.703 88.4303 206.695 88.803 206.695H89.6414H90.9458ZM102.339 214.707C101.128 214.707 100.134 214.435 99.3577 213.892C98.5813 213.333 98.1931 212.533 98.1931 211.493C98.1931 210.592 98.5891 209.878 99.381 209.35C100.173 208.822 101.159 208.558 102.339 208.558C102.774 208.558 103.177 208.597 103.55 208.675C103.938 208.737 104.202 208.814 104.342 208.908C104.342 208.519 104.179 208.201 103.853 207.953C103.527 207.689 103.03 207.557 102.362 207.557C102.067 207.557 101.827 207.58 101.64 207.627C101.454 207.673 101.252 207.743 101.035 207.836C100.817 207.929 100.615 207.999 100.429 208.046C100.258 208.092 100.025 208.116 99.7303 208.116C99.2335 208.116 98.8453 207.991 98.5658 207.743C98.2863 207.479 98.1465 207.083 98.1465 206.555C98.1465 205.95 98.3639 205.437 98.7987 205.018C99.249 204.599 99.808 204.288 100.476 204.086C101.143 203.869 101.811 203.76 102.479 203.76C103.799 203.76 104.901 204.009 105.786 204.506C106.687 204.987 107.347 205.631 107.766 206.439C108.201 207.246 108.418 208.139 108.418 209.117C108.418 209.645 108.371 210.134 108.278 210.584C108.201 211.035 108.092 211.384 107.952 211.633C108.169 211.819 108.333 212.036 108.441 212.285C108.565 212.533 108.628 212.789 108.628 213.053C108.628 213.504 108.472 213.892 108.162 214.218C107.867 214.544 107.471 214.707 106.974 214.707C106.601 214.707 106.298 214.653 106.066 214.544C105.833 214.435 105.584 214.264 105.32 214.032C104.932 214.264 104.505 214.435 104.039 214.544C103.589 214.653 103.022 214.707 102.339 214.707ZM102.805 212.355C103.131 212.355 103.387 212.285 103.573 212.145C103.775 212.005 103.876 211.834 103.876 211.633C103.876 211.431 103.775 211.26 103.573 211.12C103.387 210.98 103.131 210.911 102.805 210.911C102.479 210.911 102.215 210.98 102.013 211.12C101.827 211.26 101.733 211.431 101.733 211.633C101.733 211.834 101.827 212.005 102.013 212.145C102.215 212.285 102.479 212.355 102.805 212.355ZM116.01 214.684C115.637 214.684 115.288 214.637 114.962 214.544C114.651 214.451 114.286 214.241 113.867 213.915C113.386 213.527 112.842 212.875 112.237 211.959C111.631 211.027 111.111 210.026 110.676 208.954C110.241 207.867 110.024 206.889 110.024 206.019C110.024 205.367 110.21 204.832 110.583 204.412C110.971 203.978 111.422 203.76 111.934 203.76C112.555 203.76 113.083 204.001 113.518 204.482C113.968 204.948 114.341 205.53 114.636 206.229C114.946 206.912 115.296 207.836 115.684 209.001C115.73 209.14 115.777 209.296 115.824 209.467C115.886 209.622 115.948 209.785 116.01 209.956L116.243 209.28C116.678 208.038 117.05 207.06 117.361 206.346C117.671 205.616 118.06 205.002 118.525 204.506C118.991 203.993 119.535 203.745 120.156 203.76C120.653 203.776 121.072 203.962 121.413 204.319C121.771 204.676 121.949 205.196 121.949 205.88C121.949 206.811 121.747 207.79 121.344 208.814C120.94 209.839 120.466 210.771 119.923 211.609C119.379 212.432 118.914 213.038 118.525 213.426C118.184 213.814 117.78 214.125 117.314 214.358C116.864 214.575 116.429 214.684 116.01 214.684ZM129.362 214.73C128.244 214.746 127.243 214.513 126.358 214.032C125.488 213.55 124.805 212.89 124.308 212.052C123.827 211.198 123.57 210.251 123.539 209.21C123.524 208.17 123.764 207.238 124.261 206.415C124.758 205.592 125.449 204.94 126.334 204.459C127.235 203.978 128.244 203.737 129.362 203.737C130.449 203.737 131.427 203.97 132.297 204.436C133.182 204.901 133.881 205.554 134.393 206.392C134.905 207.231 135.177 208.17 135.208 209.21C135.224 210.22 134.983 211.143 134.486 211.982C133.989 212.805 133.291 213.465 132.39 213.962C131.505 214.459 130.496 214.715 129.362 214.73ZM129.432 211.33C129.851 211.33 130.216 211.167 130.527 210.841C130.837 210.515 130.993 210.134 130.993 209.699C130.993 209.265 130.837 208.892 130.527 208.581C130.216 208.255 129.851 208.092 129.432 208.092C129.013 208.092 128.648 208.255 128.337 208.581C128.027 208.892 127.871 209.265 127.871 209.699C127.871 210.134 128.027 210.515 128.337 210.841C128.648 211.167 129.013 211.33 129.432 211.33ZM139.797 214.707C138.803 214.707 138.135 214.125 137.794 212.96C137.468 211.796 137.305 210.189 137.305 208.139C137.305 207.207 137.344 206.431 137.421 205.81C137.514 205.173 137.724 204.637 138.05 204.203C138.392 203.752 138.912 203.527 139.611 203.527C140.045 203.527 140.426 203.628 140.752 203.83C141.093 204.032 141.311 204.319 141.404 204.692C141.746 204.381 142.188 204.148 142.732 203.993C143.275 203.838 143.857 203.76 144.478 203.76C144.975 203.76 145.48 203.884 145.992 204.133C146.52 204.381 146.955 204.723 147.297 205.158C147.654 205.577 147.832 206.035 147.832 206.532C147.832 207.029 147.654 207.471 147.297 207.859C146.955 208.232 146.497 208.418 145.922 208.418C145.736 208.418 145.558 208.395 145.387 208.349C145.232 208.302 145.092 208.255 144.968 208.209C144.657 208.085 144.409 208.022 144.222 208.022C143.617 208.022 143.081 208.263 142.615 208.744C142.165 209.21 141.94 209.816 141.94 210.561C141.94 211.384 141.909 212.067 141.847 212.611C141.784 213.154 141.598 213.643 141.288 214.078C140.977 214.497 140.48 214.707 139.797 214.707ZM152.18 203.411C151.419 203.411 150.775 203.139 150.247 202.596C149.719 202.037 149.455 201.361 149.455 200.569C149.455 199.793 149.719 199.133 150.247 198.59C150.775 198.031 151.419 197.751 152.18 197.751C152.926 197.751 153.562 198.031 154.09 198.59C154.634 199.133 154.905 199.793 154.905 200.569C154.905 201.361 154.634 202.037 154.09 202.596C153.562 203.139 152.926 203.411 152.18 203.411ZM152.18 214.707C151.544 214.707 151.07 214.528 150.76 214.171C150.465 213.799 150.263 213.247 150.154 212.518C150.061 211.772 150.014 210.716 150.014 209.35C150.014 208.201 150.069 207.293 150.177 206.625C150.302 205.957 150.519 205.46 150.829 205.134C151.14 204.808 151.59 204.645 152.18 204.645C152.817 204.645 153.283 204.832 153.578 205.204C153.888 205.561 154.09 206.113 154.183 206.858C154.292 207.588 154.346 208.636 154.346 210.002C154.346 211.151 154.284 212.06 154.16 212.727C154.051 213.395 153.842 213.892 153.531 214.218C153.221 214.544 152.77 214.707 152.18 214.707ZM168.605 204.622C168.605 205.429 168.224 205.981 167.464 206.276C166.703 206.555 165.662 206.703 164.343 206.718C164.327 207.106 164.319 207.735 164.319 208.605C164.319 209.49 164.381 210.119 164.506 210.491C164.583 210.755 164.7 210.926 164.855 211.004C165.026 211.081 165.274 211.136 165.6 211.167C165.709 211.182 165.825 211.206 165.95 211.237C166.089 211.252 166.245 211.275 166.415 211.307C166.773 211.384 167.052 211.578 167.254 211.889C167.456 212.184 167.557 212.564 167.557 213.03C167.557 213.558 167.285 213.969 166.741 214.264C166.198 214.56 165.453 214.707 164.506 214.707C163.636 214.707 162.805 214.459 162.013 213.962C161.221 213.449 160.678 212.766 160.383 211.912C160.072 210.996 159.917 209.265 159.917 206.718C158.83 206.687 157.953 206.547 157.285 206.299C156.633 206.035 156.307 205.569 156.307 204.901C156.307 204.063 156.618 203.504 157.239 203.224C157.86 202.929 158.753 202.774 159.917 202.759C159.964 201.516 160.158 200.484 160.499 199.661C160.841 198.822 161.454 198.403 162.339 198.403C163.24 198.403 163.822 198.791 164.086 199.568C164.366 200.344 164.49 201.408 164.459 202.759C165.872 202.743 166.912 202.852 167.58 203.085C168.263 203.318 168.605 203.83 168.605 204.622ZM182.529 204.622C182.529 205.429 182.149 205.981 181.388 206.276C180.627 206.555 179.587 206.703 178.267 206.718C178.252 207.106 178.244 207.735 178.244 208.605C178.244 209.49 178.306 210.119 178.43 210.491C178.508 210.755 178.624 210.926 178.78 211.004C178.95 211.081 179.199 211.136 179.525 211.167C179.634 211.182 179.75 211.206 179.874 211.237C180.014 211.252 180.169 211.275 180.34 211.307C180.697 211.384 180.977 211.578 181.179 211.889C181.38 212.184 181.481 212.564 181.481 213.03C181.481 213.558 181.21 213.969 180.666 214.264C180.123 214.56 179.377 214.707 178.43 214.707C177.561 214.707 176.73 214.459 175.938 213.962C175.146 213.449 174.603 212.766 174.308 211.912C173.997 210.996 173.842 209.265 173.842 206.718C172.755 206.687 171.878 206.547 171.21 206.299C170.558 206.035 170.232 205.569 170.232 204.901C170.232 204.063 170.542 203.504 171.163 203.224C171.784 202.929 172.677 202.774 173.842 202.759C173.888 201.516 174.083 200.484 174.424 199.661C174.766 198.822 175.379 198.403 176.264 198.403C177.165 198.403 177.747 198.791 178.011 199.568C178.29 200.344 178.415 201.408 178.384 202.759C179.797 202.743 180.837 202.852 181.505 203.085C182.188 203.318 182.529 203.83 182.529 204.622ZM189.547 214.707C188.398 214.707 187.381 214.482 186.495 214.032C185.61 213.581 184.919 212.952 184.423 212.145C183.941 211.322 183.701 210.398 183.701 209.373C183.701 208.364 183.941 207.432 184.423 206.578C184.919 205.724 185.603 205.041 186.472 204.529C187.342 204.016 188.328 203.76 189.43 203.76C190.424 203.76 191.301 203.962 192.062 204.366C192.823 204.769 193.405 205.305 193.809 205.973C194.213 206.625 194.414 207.308 194.414 208.022C194.414 209.187 193.972 210.041 193.087 210.584C192.217 211.112 191.177 211.376 189.966 211.376C189.158 211.376 188.475 211.275 187.916 211.074C188.382 211.834 189.151 212.215 190.222 212.215C190.657 212.215 191.123 212.161 191.62 212.052C191.806 212.005 191.984 211.982 192.155 211.982C192.497 211.982 192.769 212.067 192.97 212.238C193.188 212.409 193.296 212.642 193.296 212.937C193.296 213.418 193.001 213.837 192.411 214.195C191.821 214.536 190.866 214.707 189.547 214.707ZM187.986 208.232C188.126 208.449 188.312 208.613 188.545 208.721C188.794 208.814 189.065 208.861 189.36 208.861C189.702 208.861 189.997 208.783 190.245 208.628C190.509 208.473 190.641 208.271 190.641 208.022C190.641 207.743 190.525 207.502 190.292 207.3C190.075 207.099 189.756 206.998 189.337 206.998C188.918 206.998 188.584 207.13 188.335 207.394C188.103 207.642 187.986 207.922 187.986 208.232ZM199.003 214.707C198.009 214.707 197.341 214.125 197 212.96C196.674 211.796 196.511 210.189 196.511 208.139C196.511 207.207 196.549 206.431 196.627 205.81C196.72 205.173 196.93 204.637 197.256 204.203C197.598 203.752 198.118 203.527 198.816 203.527C199.251 203.527 199.632 203.628 199.958 203.83C200.299 204.032 200.517 204.319 200.61 204.692C200.952 204.381 201.394 204.148 201.938 203.993C202.481 203.838 203.063 203.76 203.684 203.76C204.181 203.76 204.686 203.884 205.198 204.133C205.726 204.381 206.161 204.723 206.503 205.158C206.86 205.577 207.038 206.035 207.038 206.532C207.038 207.029 206.86 207.471 206.503 207.859C206.161 208.232 205.703 208.418 205.128 208.418C204.942 208.418 204.763 208.395 204.593 208.349C204.437 208.302 204.298 208.255 204.173 208.209C203.863 208.085 203.614 208.022 203.428 208.022C202.823 208.022 202.287 208.263 201.821 208.744C201.371 209.21 201.146 209.816 201.146 210.561C201.146 211.384 201.115 212.067 201.052 212.611C200.99 213.154 200.804 213.643 200.493 214.078C200.183 214.497 199.686 214.707 199.003 214.707Z" fill="#741A43"/>
</g>
<defs>
<filter id="filter0_d_201_6340" x="-3.71933e-05" y="0" width="289.975" height="288.536" filterUnits="userSpaceOnUse" color-interpolation-filters="sRGB">
<feFlood flood-opacity="0" result="BackgroundImageFix"/>
<feColorMatrix in="SourceAlpha" type="matrix" values="0 0 0 0 0 0 0 0 0 0 0 0 0 0 0 0 0 0 127 0" result="hardAlpha"/>
<feOffset dy="6.98734"/>
<feGaussianBlur stdDeviation="3.49367"/>
<feComposite in2="hardAlpha" operator="out"/>
<feColorMatrix type="matrix" values="0 0 0 0 0 0 0 0 0 0 0 0 0 0 0 0 0 0 0.25 0"/>
<feBlend mode="normal" in2="BackgroundImageFix" result="effect1_dropShadow_201_6340"/>
<feBlend mode="normal" in="SourceGraphic" in2="effect1_dropShadow_201_6340" result="shape"/>
</filter>
</defs>
</svg>
