<svg width="485" height="534" viewBox="0 0 485 534" fill="none" xmlns="http://www.w3.org/2000/svg">
<g filter="url(#filter0_d_197_2160)">
<path d="M180.073 342.267C180.225 342.267 150.933 342.267 104.536 342.181C76.2265 342.128 63.8595 339.619 54.2884 337.717C44.7411 335.82 38.8788 328.384 34.5112 320.823C32.1301 316.702 32.4339 310.798 32.8504 305.323C33.544 296.205 45.7827 282.619 56.5443 267.789C64.6114 256.673 76.6822 246.676 84.2023 238.925C90.3879 232.549 94.9322 224.388 101.888 215.709C108.283 207.731 117.467 200.976 124.416 194.91C132.56 187.8 139.136 175.186 144.497 168.352C150.728 160.406 164.11 154.565 175.853 148.813C185.194 144.237 206.64 143.751 220.863 146.22C229.526 147.725 237.533 157.497 245.374 163.916C252.233 169.531 258.111 176.774 264.805 184.012C270.928 190.634 278.766 200.904 288.294 215.988C295.811 227.888 304.728 239.112 311.08 247.028C320.487 258.752 323.087 269.225 324.58 282.286C326.701 300.831 324.131 314.719 321.577 317.96C315.926 325.13 306.833 328.067 298.947 333.531C291.996 338.348 283.473 342.554 274.46 346.821C266.635 350.526 257.563 352.151 247.96 354.258C238.985 356.227 229.232 357.114 216.731 358.587C203.734 360.12 192.912 360.559 169.507 360.834C148.362 361.083 108.4 361.168 86.7456 361.08C55.9585 360.956 42.3361 355.728 31.3192 353.492C22.357 351.673 13.669 350.252 5.1198 346.487C1.183 344.753 0.754088 339.206 -0.291253 333.657C-4.03001 313.812 7.73238 297.709 18.3662 283.279C26.8003 271.833 36.2617 258.096 45.403 247.136C56.3231 234.045 64.3668 222.061 77.5766 207.681C89.1309 195.103 98.9638 185.394 121.54 169.785C131.887 162.632 140.539 158.309 150.164 155.14C159.091 152.202 167.79 152.086 176.248 150.896C178.392 150.624 180.497 150.263 184.608 150.075C188.718 149.887 194.77 149.882 203.93 152.247" stroke="#741A43" stroke-width="289.494" stroke-linecap="round"/>
<path d="M58.9039 173.297C58.8149 173.297 57.706 173.769 56.088 175.058C55.3158 175.673 55.5181 177.02 56.0323 177.369C57.3258 178.248 59.7077 176.016 61.4605 174.33C62.3232 173.5 62.5185 172.184 62.1645 171.308C61.4145 169.45 57.2797 169.343 53.1634 169.662C50.2023 169.892 48.3497 172.052 46.8944 173.862C45.3837 175.74 46.0281 179.444 46.5708 182.775C47.3616 187.629 56.1896 186.056 62.564 185.738C67.3856 185.498 65.8392 178.252 65.8221 175.953C65.6091 174.84 64.9811 173.836 64.083 173.198C63.185 172.559 62.0359 172.315 59.9207 171.624" stroke="white" stroke-width="72.3736" stroke-linecap="round"/>
<path d="M294.569 171.087C294.481 171.098 293.439 171.703 291.992 173.181C291.301 173.886 291.668 175.199 292.221 175.482C293.613 176.194 295.702 173.686 297.234 171.796C297.987 170.866 298.019 169.537 297.56 168.711C296.587 166.96 292.47 167.363 288.425 168.186C285.514 168.779 283.942 171.152 282.721 173.127C281.453 175.177 282.549 178.773 283.498 182.012C284.881 186.731 293.448 184.083 299.734 182.982C304.49 182.15 302.062 175.149 301.762 172.87C301.413 171.792 300.667 170.873 299.697 170.35C298.727 169.827 297.556 169.727 295.372 169.301" stroke="white" stroke-width="72.3736" stroke-linecap="round"/>
<path d="M99.781 177.958C99.7262 177.958 98.6821 177.896 96.8862 178.123C96.0606 178.228 95.5922 179.057 95.3271 179.875C95.0619 180.694 95.061 181.667 95.2512 182.468C95.4413 183.268 95.8226 183.866 96.3527 184.293C96.8828 184.72 97.5502 184.958 98.1148 184.737C100.811 183.682 100.85 180.366 101.009 178.828C101.085 178.092 100.604 177.438 100.046 176.963C98.8901 175.977 97.2658 175.549 95.9554 175.198C95.3234 175.218 94.7584 175.64 94.3649 176.207C93.9715 176.773 93.7667 177.473 93.1068 179.252" stroke="black" stroke-width="36.1868" stroke-linecap="round"/>
<path d="M331.644 169.351C331.59 169.357 330.546 169.424 328.792 169.872C327.986 170.077 327.623 170.957 327.461 171.802C327.298 172.647 327.417 173.613 327.705 174.384C327.992 175.155 328.444 175.702 329.023 176.06C329.601 176.419 330.293 176.572 330.826 176.283C333.372 174.905 333.002 171.609 332.97 170.063C332.955 169.323 332.397 168.733 331.785 168.33C330.516 167.494 328.851 167.27 327.508 167.083C326.883 167.181 326.374 167.669 326.054 168.28C325.733 168.891 325.616 169.61 325.18 171.457" stroke="black" stroke-width="36.1868" stroke-linecap="round"/>
<path d="M96.6619 172.495H96.7422" stroke="black" stroke-width="36.1868" stroke-linecap="round"/>
<path d="M93.6157 168.54C93.6157 168.593 94.1268 168.082 94.6013 167.473C94.651 167.409 93.9649 167.81 93.8073 168.344C93.6496 168.878 93.9522 169.523 94.2389 169.517C94.5255 169.512 94.787 168.835 94.2169 167.836" stroke="white" stroke-width="7.23736" stroke-linecap="round"/>
<path d="M324.813 160.407C324.82 160.46 325.264 159.891 325.66 159.227C325.701 159.158 325.07 159.64 324.979 160.189C324.889 160.738 325.268 161.342 325.552 161.301C325.836 161.26 326.012 160.556 325.323 159.635" stroke="white" stroke-width="7.23736" stroke-linecap="round"/>
<path d="M165.685 264.738C166.1 264.985 170.976 268.816 175.626 272.323C178.709 274.647 184.444 275.715 189.761 276.624C200.118 278.395 202.6 276.313 204.699 275.493C207.258 274.494 209.795 272.628 211.707 270.94C215.275 267.883 217.025 265.961 218.599 263.789C218.954 263.273 219.224 262.839 219.949 261.551" stroke="white" stroke-width="14.4747" stroke-linecap="round"/>
<path d="M26.4054 252.521C27.7491 252.521 32.1529 252.928 38.6195 255.61C43.02 257.434 47.0845 257.586 62.0638 257.317C65.0375 257.263 65.1995 255.888 65.2656 254.888C65.3318 253.888 65.2631 252.902 64.7718 252.085C61.7608 247.078 47.437 247.194 39.2998 246.29C31.1872 245.389 24.5544 247.403 22.3323 249.615C21.3484 250.594 20.9533 251.56 20.7787 252.546C20.604 253.533 20.7378 254.582 21.6032 255.34C25.6493 258.88 30.312 258.748 34.548 260.609C38.2007 262.214 42.2616 262.598 47.1519 262.935C51.4316 263.532 54.3771 263.91 56.5011 263.99C57.6704 264.031 59.0252 264.073 61.4846 261.896" stroke="#C4A1B9" stroke-width="21.7121" stroke-linecap="round"/>
<path d="M310.284 249.007C311.57 248.619 315.904 247.736 322.869 248.435C327.609 248.91 331.544 247.881 345.807 243.295C348.638 242.385 348.396 241.021 348.17 240.045C347.945 239.069 347.594 238.144 346.887 237.504C342.558 233.581 328.879 237.83 320.827 239.316C312.801 240.797 307.033 244.643 305.544 247.402C304.885 248.623 304.786 249.662 304.904 250.657C305.022 251.652 305.453 252.618 306.5 253.093C311.397 255.313 315.823 253.84 320.416 254.397C324.376 254.879 328.375 254.072 333.154 252.982C337.424 252.317 340.353 251.828 342.41 251.291C343.541 250.993 344.85 250.641 346.575 247.846" stroke="#C4A1B9" stroke-width="21.7121" stroke-linecap="round"/>
</g>
<defs>
<filter id="filter0_d_197_2160" x="-159.706" y="0" width="643.819" height="533.861" filterUnits="userSpaceOnUse" color-interpolation-filters="sRGB">
<feFlood flood-opacity="0" result="BackgroundImageFix"/>
<feColorMatrix in="SourceAlpha" type="matrix" values="0 0 0 0 0 0 0 0 0 0 0 0 0 0 0 0 0 0 127 0" result="hardAlpha"/>
<feOffset dy="14"/>
<feGaussianBlur stdDeviation="7"/>
<feComposite in2="hardAlpha" operator="out"/>
<feColorMatrix type="matrix" values="0 0 0 0 0 0 0 0 0 0 0 0 0 0 0 0 0 0 0.25 0"/>
<feBlend mode="normal" in2="BackgroundImageFix" result="effect1_dropShadow_197_2160"/>
<feBlend mode="normal" in="SourceGraphic" in2="effect1_dropShadow_197_2160" result="shape"/>
</filter>
</defs>
</svg>
