<svg width="288" height="287" viewBox="0 0 288 287" fill="none" xmlns="http://www.w3.org/2000/svg">
<g filter="url(#filter0_d_458_1112)">
<path d="M6 137.28C6 61.4626 68.1821 0 144 0C219.818 0 282 61.4626 282 137.28C282 213.098 219.818 274.561 144 274.561C68.1821 274.561 6 213.098 6 137.28Z" fill="#F3B1C7"/>
<path d="M89.9438 197.988C90.8599 197.988 91.613 198.034 92.203 198.128C92.8086 198.205 93.2977 198.392 93.6704 198.687C94.0586 198.966 94.2527 199.393 94.2527 199.968C94.2527 200.791 93.9343 201.334 93.2977 201.598C92.6766 201.862 91.7683 201.994 90.5727 201.994L88.6395 201.971L87.1722 201.994C87.2343 202.584 87.2653 203.05 87.2653 203.391C87.2653 205.115 86.5821 205.977 85.2157 205.977C84.0822 205.977 83.1894 205.348 82.5372 204.09C81.9006 202.832 81.5823 200.868 81.5823 198.197C81.5823 196.552 81.9239 195.084 82.6071 193.795C83.3058 192.507 84.253 191.505 85.4486 190.791C86.6442 190.061 87.9563 189.696 89.3848 189.696C91.1549 189.696 92.4981 189.999 93.4142 190.605C94.3458 191.21 94.8116 192.056 94.8116 193.143C94.8116 193.904 94.6253 194.486 94.2527 194.89C93.8955 195.278 93.3909 195.542 92.7387 195.682C92.1021 195.806 91.2559 195.868 90.2 195.868C89.346 195.868 88.6084 196.039 87.9873 196.381C87.3818 196.722 87.0479 197.196 86.9858 197.802L86.9625 198.011C87.1489 197.996 87.4284 197.988 87.801 197.988H88.6395H89.9438ZM101.337 206C100.126 206 99.1321 205.728 98.3557 205.185C97.5794 204.626 97.1912 203.826 97.1912 202.786C97.1912 201.885 97.5871 201.171 98.379 200.643C99.1709 200.115 100.157 199.851 101.337 199.851C101.772 199.851 102.175 199.89 102.548 199.968C102.936 200.03 103.2 200.107 103.34 200.201C103.34 199.812 103.177 199.494 102.851 199.246C102.525 198.982 102.028 198.85 101.36 198.85C101.065 198.85 100.825 198.873 100.638 198.919C100.452 198.966 100.25 199.036 100.033 199.129C99.8153 199.222 99.6134 199.292 99.4271 199.339C99.2563 199.385 99.0234 199.409 98.7284 199.409C98.2315 199.409 97.8433 199.284 97.5638 199.036C97.2843 198.772 97.1446 198.376 97.1446 197.848C97.1446 197.243 97.362 196.73 97.7967 196.311C98.247 195.892 98.806 195.581 99.4737 195.379C100.141 195.162 100.809 195.053 101.477 195.053C102.797 195.053 103.899 195.302 104.784 195.798C105.685 196.28 106.345 196.924 106.764 197.732C107.199 198.539 107.416 199.432 107.416 200.41C107.416 200.938 107.369 201.427 107.276 201.877C107.199 202.328 107.09 202.677 106.95 202.926C107.168 203.112 107.331 203.329 107.439 203.578C107.563 203.826 107.626 204.082 107.626 204.346C107.626 204.797 107.47 205.185 107.16 205.511C106.865 205.837 106.469 206 105.972 206C105.599 206 105.296 205.946 105.064 205.837C104.831 205.728 104.582 205.557 104.318 205.325C103.93 205.557 103.503 205.728 103.037 205.837C102.587 205.946 102.02 206 101.337 206ZM101.803 203.648C102.129 203.648 102.385 203.578 102.571 203.438C102.773 203.298 102.874 203.127 102.874 202.926C102.874 202.724 102.773 202.553 102.571 202.413C102.385 202.273 102.129 202.204 101.803 202.204C101.477 202.204 101.213 202.273 101.011 202.413C100.825 202.553 100.731 202.724 100.731 202.926C100.731 203.127 100.825 203.298 101.011 203.438C101.213 203.578 101.477 203.648 101.803 203.648ZM115.008 205.977C114.635 205.977 114.286 205.93 113.96 205.837C113.649 205.744 113.284 205.534 112.865 205.208C112.384 204.82 111.84 204.168 111.235 203.252C110.629 202.32 110.109 201.318 109.674 200.247C109.24 199.16 109.022 198.182 109.022 197.312C109.022 196.66 109.208 196.125 109.581 195.705C109.969 195.271 110.42 195.053 110.932 195.053C111.553 195.053 112.081 195.294 112.516 195.775C112.966 196.241 113.339 196.823 113.634 197.522C113.944 198.205 114.294 199.129 114.682 200.294C114.728 200.433 114.775 200.589 114.822 200.759C114.884 200.915 114.946 201.078 115.008 201.249L115.241 200.573C115.676 199.331 116.048 198.353 116.359 197.638C116.669 196.909 117.058 196.295 117.523 195.798C117.989 195.286 118.533 195.038 119.154 195.053C119.651 195.069 120.07 195.255 120.412 195.612C120.769 195.969 120.947 196.489 120.947 197.173C120.947 198.104 120.745 199.083 120.342 200.107C119.938 201.132 119.464 202.064 118.921 202.902C118.377 203.725 117.912 204.331 117.523 204.719C117.182 205.107 116.778 205.418 116.312 205.651C115.862 205.868 115.427 205.977 115.008 205.977ZM128.36 206.023C127.242 206.039 126.241 205.806 125.356 205.325C124.486 204.843 123.803 204.183 123.306 203.345C122.825 202.491 122.568 201.544 122.537 200.503C122.522 199.463 122.763 198.531 123.259 197.708C123.756 196.885 124.447 196.233 125.332 195.752C126.233 195.271 127.242 195.03 128.36 195.03C129.447 195.03 130.425 195.263 131.295 195.729C132.18 196.194 132.879 196.847 133.391 197.685C133.903 198.524 134.175 199.463 134.206 200.503C134.222 201.513 133.981 202.436 133.484 203.275C132.987 204.098 132.289 204.758 131.388 205.255C130.503 205.752 129.494 206.008 128.36 206.023ZM128.43 202.623C128.849 202.623 129.214 202.46 129.525 202.134C129.835 201.808 129.991 201.427 129.991 200.992C129.991 200.558 129.835 200.185 129.525 199.874C129.214 199.548 128.849 199.385 128.43 199.385C128.011 199.385 127.646 199.548 127.335 199.874C127.025 200.185 126.87 200.558 126.87 200.992C126.87 201.427 127.025 201.808 127.335 202.134C127.646 202.46 128.011 202.623 128.43 202.623ZM138.795 206C137.801 206 137.134 205.418 136.792 204.253C136.466 203.089 136.303 201.482 136.303 199.432C136.303 198.5 136.342 197.724 136.419 197.103C136.512 196.466 136.722 195.93 137.048 195.496C137.39 195.045 137.91 194.82 138.609 194.82C139.043 194.82 139.424 194.921 139.75 195.123C140.092 195.325 140.309 195.612 140.402 195.985C140.744 195.674 141.186 195.441 141.73 195.286C142.273 195.131 142.855 195.053 143.476 195.053C143.973 195.053 144.478 195.177 144.99 195.426C145.518 195.674 145.953 196.016 146.295 196.451C146.652 196.87 146.83 197.328 146.83 197.825C146.83 198.322 146.652 198.764 146.295 199.152C145.953 199.525 145.495 199.711 144.921 199.711C144.734 199.711 144.556 199.688 144.385 199.642C144.23 199.595 144.09 199.548 143.966 199.502C143.655 199.378 143.407 199.315 143.22 199.315C142.615 199.315 142.079 199.556 141.613 200.037C141.163 200.503 140.938 201.109 140.938 201.854C140.938 202.677 140.907 203.36 140.845 203.904C140.782 204.447 140.596 204.936 140.286 205.371C139.975 205.79 139.478 206 138.795 206ZM151.178 194.704C150.418 194.704 149.773 194.432 149.245 193.889C148.717 193.33 148.453 192.654 148.453 191.862C148.453 191.086 148.717 190.426 149.245 189.883C149.773 189.324 150.418 189.044 151.178 189.044C151.924 189.044 152.56 189.324 153.088 189.883C153.632 190.426 153.903 191.086 153.903 191.862C153.903 192.654 153.632 193.33 153.088 193.889C152.56 194.432 151.924 194.704 151.178 194.704ZM151.178 206C150.542 206 150.068 205.821 149.758 205.464C149.463 205.092 149.261 204.54 149.152 203.811C149.059 203.065 149.012 202.009 149.012 200.643C149.012 199.494 149.067 198.586 149.175 197.918C149.3 197.25 149.517 196.753 149.828 196.427C150.138 196.101 150.588 195.938 151.178 195.938C151.815 195.938 152.281 196.125 152.576 196.497C152.886 196.854 153.088 197.406 153.181 198.151C153.29 198.881 153.344 199.929 153.344 201.295C153.344 202.444 153.282 203.353 153.158 204.02C153.049 204.688 152.84 205.185 152.529 205.511C152.219 205.837 151.768 206 151.178 206ZM167.603 195.915C167.603 196.722 167.222 197.274 166.462 197.569C165.701 197.848 164.66 197.996 163.341 198.011C163.325 198.399 163.317 199.028 163.317 199.898C163.317 200.783 163.379 201.412 163.504 201.784C163.581 202.048 163.698 202.219 163.853 202.297C164.024 202.374 164.272 202.429 164.598 202.46C164.707 202.475 164.823 202.499 164.948 202.53C165.087 202.545 165.243 202.568 165.413 202.599C165.771 202.677 166.05 202.871 166.252 203.182C166.454 203.477 166.555 203.857 166.555 204.323C166.555 204.851 166.283 205.262 165.74 205.557C165.196 205.852 164.451 206 163.504 206C162.634 206 161.803 205.752 161.011 205.255C160.22 204.742 159.676 204.059 159.381 203.205C159.071 202.289 158.915 200.558 158.915 198.011C157.828 197.98 156.951 197.84 156.283 197.592C155.631 197.328 155.305 196.862 155.305 196.194C155.305 195.356 155.616 194.797 156.237 194.517C156.858 194.222 157.751 194.067 158.915 194.052C158.962 192.809 159.156 191.777 159.498 190.954C159.839 190.115 160.452 189.696 161.338 189.696C162.238 189.696 162.82 190.084 163.084 190.861C163.364 191.637 163.488 192.701 163.457 194.052C164.87 194.036 165.91 194.145 166.578 194.378C167.261 194.611 167.603 195.123 167.603 195.915ZM181.527 195.915C181.527 196.722 181.147 197.274 180.386 197.569C179.625 197.848 178.585 197.996 177.265 198.011C177.25 198.399 177.242 199.028 177.242 199.898C177.242 200.783 177.304 201.412 177.428 201.784C177.506 202.048 177.622 202.219 177.778 202.297C177.948 202.374 178.197 202.429 178.523 202.46C178.632 202.475 178.748 202.499 178.872 202.53C179.012 202.545 179.167 202.568 179.338 202.599C179.695 202.677 179.975 202.871 180.177 203.182C180.378 203.477 180.479 203.857 180.479 204.323C180.479 204.851 180.208 205.262 179.664 205.557C179.121 205.852 178.375 206 177.428 206C176.559 206 175.728 205.752 174.936 205.255C174.144 204.742 173.601 204.059 173.306 203.205C172.995 202.289 172.84 200.558 172.84 198.011C171.753 197.98 170.876 197.84 170.208 197.592C169.556 197.328 169.23 196.862 169.23 196.194C169.23 195.356 169.54 194.797 170.161 194.517C170.783 194.222 171.675 194.067 172.84 194.052C172.886 192.809 173.081 191.777 173.422 190.954C173.764 190.115 174.377 189.696 175.262 189.696C176.163 189.696 176.745 190.084 177.009 190.861C177.288 191.637 177.413 192.701 177.382 194.052C178.795 194.036 179.835 194.145 180.503 194.378C181.186 194.611 181.527 195.123 181.527 195.915ZM188.545 206C187.396 206 186.379 205.775 185.494 205.325C184.608 204.874 183.917 204.245 183.421 203.438C182.939 202.615 182.699 201.691 182.699 200.666C182.699 199.657 182.939 198.725 183.421 197.871C183.917 197.017 184.601 196.334 185.47 195.822C186.34 195.309 187.326 195.053 188.428 195.053C189.422 195.053 190.299 195.255 191.06 195.659C191.821 196.062 192.403 196.598 192.807 197.266C193.211 197.918 193.413 198.601 193.413 199.315C193.413 200.48 192.97 201.334 192.085 201.877C191.215 202.405 190.175 202.669 188.964 202.669C188.156 202.669 187.473 202.568 186.914 202.367C187.38 203.127 188.149 203.508 189.22 203.508C189.655 203.508 190.121 203.454 190.618 203.345C190.804 203.298 190.982 203.275 191.153 203.275C191.495 203.275 191.767 203.36 191.968 203.531C192.186 203.702 192.295 203.935 192.295 204.23C192.295 204.711 192 205.13 191.409 205.488C190.819 205.829 189.864 206 188.545 206ZM186.984 199.525C187.124 199.742 187.31 199.905 187.543 200.014C187.792 200.107 188.063 200.154 188.358 200.154C188.7 200.154 188.995 200.076 189.243 199.921C189.507 199.766 189.639 199.564 189.639 199.315C189.639 199.036 189.523 198.795 189.29 198.593C189.073 198.392 188.754 198.291 188.335 198.291C187.916 198.291 187.582 198.423 187.334 198.687C187.101 198.935 186.984 199.215 186.984 199.525ZM198.001 206C197.007 206 196.339 205.418 195.998 204.253C195.672 203.089 195.509 201.482 195.509 199.432C195.509 198.5 195.548 197.724 195.625 197.103C195.718 196.466 195.928 195.93 196.254 195.496C196.596 195.045 197.116 194.82 197.815 194.82C198.249 194.82 198.63 194.921 198.956 195.123C199.297 195.325 199.515 195.612 199.608 195.985C199.95 195.674 200.392 195.441 200.936 195.286C201.479 195.131 202.061 195.053 202.682 195.053C203.179 195.053 203.684 195.177 204.196 195.426C204.724 195.674 205.159 196.016 205.501 196.451C205.858 196.87 206.036 197.328 206.036 197.825C206.036 198.322 205.858 198.764 205.501 199.152C205.159 199.525 204.701 199.711 204.126 199.711C203.94 199.711 203.762 199.688 203.591 199.642C203.435 199.595 203.296 199.548 203.172 199.502C202.861 199.378 202.613 199.315 202.426 199.315C201.821 199.315 201.285 199.556 200.819 200.037C200.369 200.503 200.144 201.109 200.144 201.854C200.144 202.677 200.113 203.36 200.05 203.904C199.988 204.447 199.802 204.936 199.492 205.371C199.181 205.79 198.684 206 198.001 206Z" fill="#741A43"/>
<path d="M145.191 139.296C145.23 139.296 137.919 139.296 126.339 139.275C119.274 139.262 116.187 138.635 113.799 138.161C111.416 137.687 109.953 135.832 108.863 133.945C108.268 132.916 108.344 131.443 108.448 130.076C108.621 127.8 111.676 124.41 114.362 120.708C116.375 117.934 119.388 115.439 121.264 113.505C122.808 111.913 123.942 109.876 125.679 107.711C127.275 105.719 129.567 104.033 131.301 102.52C133.333 100.745 134.975 97.597 136.313 95.8912C137.868 93.9082 141.208 92.4504 144.138 91.0147C146.47 89.8728 151.822 89.7514 155.372 90.3678C157.534 90.7432 159.532 93.1822 161.489 94.7843C163.201 96.1855 164.668 97.9931 166.339 99.7997C167.867 101.452 169.823 104.015 172.201 107.78C174.077 110.75 176.302 113.551 177.888 115.527C180.236 118.453 180.884 121.067 181.257 124.326C181.786 128.955 181.145 132.421 180.508 133.23C179.097 135.019 176.828 135.752 174.86 137.116C173.125 138.318 170.998 139.368 168.748 140.433C166.795 141.357 164.531 141.763 162.135 142.289C159.895 142.78 157.461 143.002 154.341 143.37C151.097 143.752 148.396 143.862 142.554 143.93C137.277 143.992 127.304 144.013 121.899 143.992C114.215 143.961 110.816 142.656 108.066 142.098C105.829 141.644 103.661 141.289 101.527 140.35C100.545 139.917 100.438 138.532 100.177 137.147C99.2438 132.195 102.179 128.176 104.833 124.574C106.938 121.718 109.3 118.289 111.581 115.554C114.306 112.287 116.314 109.296 119.611 105.707C122.495 102.568 124.949 100.145 130.583 96.249C133.165 94.4637 135.325 93.3847 137.727 92.5939C139.955 91.8606 142.126 91.8317 144.237 91.5347C144.772 91.4668 145.297 91.3768 146.323 91.3298C147.349 91.2828 148.86 91.2816 151.146 91.8718" stroke="#741A43" stroke-width="72.2509" stroke-linecap="round"/>
<path d="M114.951 97.1255C114.928 97.1255 114.652 97.2433 114.248 97.5649C114.055 97.7183 114.106 98.0547 114.234 98.1418C114.557 98.361 115.151 97.804 115.589 97.3831C115.804 97.176 115.853 96.8478 115.764 96.629C115.577 96.1654 114.545 96.1386 113.518 96.2182C112.779 96.2755 112.317 96.8148 111.953 97.2664C111.576 97.7353 111.737 98.6596 111.873 99.4909C112.07 100.702 114.273 100.31 115.864 100.231C117.067 100.171 116.681 98.3621 116.677 97.7883C116.624 97.5105 116.467 97.2601 116.243 97.1007C116.019 96.9412 115.732 96.8805 115.204 96.7078" stroke="white" stroke-width="18.0627" stroke-linecap="round"/>
<path d="M173.767 96.5739C173.745 96.5766 173.485 96.7277 173.124 97.0965C172.951 97.2725 173.043 97.6001 173.181 97.6707C173.528 97.8485 174.05 97.2225 174.432 96.7509C174.62 96.5189 174.628 96.1871 174.513 95.9809C174.271 95.5439 173.243 95.6444 172.234 95.85C171.507 95.998 171.115 96.5901 170.81 97.083C170.494 97.5947 170.767 98.4922 171.004 99.3005C171.349 100.478 173.487 99.8174 175.056 99.5427C176.243 99.335 175.637 97.5878 175.562 97.0189C175.475 96.7498 175.289 96.5206 175.047 96.39C174.805 96.2594 174.513 96.2344 173.967 96.1281" stroke="white" stroke-width="18.0627" stroke-linecap="round"/>
<path d="M125.153 98.2887C125.139 98.2887 124.878 98.2732 124.43 98.33C124.224 98.3561 124.107 98.563 124.041 98.7672C123.975 98.9715 123.975 99.2145 124.022 99.4143C124.069 99.6141 124.165 99.7633 124.297 99.8699C124.429 99.9764 124.596 100.036 124.737 99.9806C125.41 99.7174 125.419 98.8898 125.459 98.5059C125.478 98.3221 125.358 98.159 125.219 98.0403C124.93 97.7942 124.525 97.6874 124.198 97.6C124.04 97.605 123.899 97.7102 123.801 97.8516C123.703 97.9931 123.652 98.1676 123.487 98.6116" stroke="black" stroke-width="9.03136" stroke-linecap="round"/>
<path d="M183.02 96.1405C183.007 96.1422 182.746 96.1589 182.308 96.2705C182.107 96.3218 182.016 96.5415 181.976 96.7523C181.935 96.9632 181.965 97.2044 182.037 97.3968C182.109 97.5892 182.221 97.7256 182.366 97.815C182.51 97.9045 182.683 97.9428 182.816 97.8708C183.451 97.5266 183.359 96.7041 183.351 96.3183C183.347 96.1335 183.208 95.9865 183.055 95.8858C182.739 95.6772 182.323 95.6211 181.988 95.5746C181.832 95.599 181.705 95.7208 181.625 95.8733C181.545 96.0258 181.516 96.2053 181.407 96.6662" stroke="black" stroke-width="9.03136" stroke-linecap="round"/>
<path d="M124.374 96.9252H124.394" stroke="black" stroke-width="9.03136" stroke-linecap="round"/>
<path d="M123.614 95.9381C123.614 95.9514 123.741 95.824 123.86 95.6718C123.872 95.6559 123.701 95.7561 123.662 95.8893C123.622 96.0225 123.698 96.1836 123.769 96.1821C123.841 96.1807 123.906 96.0118 123.764 95.7625" stroke="white" stroke-width="1.80627" stroke-linecap="round"/>
<path d="M181.315 93.9085C181.317 93.9216 181.428 93.7795 181.527 93.6139C181.537 93.5966 181.379 93.7171 181.357 93.8541C181.334 93.9912 181.429 94.1417 181.5 94.1315C181.57 94.1212 181.614 93.9456 181.443 93.7157" stroke="white" stroke-width="1.80627" stroke-linecap="round"/>
<path d="M141.601 119.947C141.704 120.009 142.921 120.965 144.082 121.84C144.851 122.42 146.282 122.687 147.609 122.913C150.194 123.355 150.814 122.836 151.338 122.631C151.976 122.382 152.609 121.916 153.087 121.495C153.977 120.732 154.414 120.252 154.807 119.71C154.895 119.581 154.963 119.473 155.144 119.152" stroke="white" stroke-width="3.61254" stroke-linecap="round"/>
<path d="M106.84 116.898C107.175 116.898 108.274 117 109.888 117.669C110.986 118.124 112.001 118.162 115.739 118.095C116.481 118.081 116.522 117.738 116.538 117.489C116.555 117.239 116.538 116.993 116.415 116.789C115.664 115.54 112.089 115.568 110.058 115.343C108.033 115.118 106.378 115.621 105.823 116.173C105.578 116.417 105.479 116.658 105.435 116.904C105.392 117.151 105.425 117.412 105.641 117.601C106.651 118.485 107.815 118.452 108.872 118.917C109.784 119.317 110.797 119.413 112.018 119.497C113.086 119.646 113.821 119.74 114.351 119.76C114.643 119.771 114.981 119.781 115.595 119.238" stroke="#C4A1B9" stroke-width="5.41882" stroke-linecap="round"/>
<path d="M177.689 116.021C178.01 115.924 179.092 115.704 180.83 115.878C182.013 115.997 182.995 115.74 186.555 114.595C187.261 114.368 187.201 114.028 187.145 113.784C187.088 113.54 187.001 113.31 186.824 113.15C185.744 112.171 182.33 113.231 180.32 113.602C178.317 113.972 176.878 114.932 176.506 115.62C176.342 115.925 176.317 116.184 176.346 116.433C176.376 116.681 176.483 116.922 176.745 117.041C177.967 117.595 179.071 117.227 180.218 117.366C181.206 117.486 182.204 117.285 183.397 117.013C184.463 116.847 185.194 116.725 185.707 116.591C185.989 116.516 186.316 116.429 186.747 115.731" stroke="#C4A1B9" stroke-width="5.41882" stroke-linecap="round"/>
</g>
<defs>
<filter id="filter0_d_458_1112" x="0" y="0" width="288" height="286.561" filterUnits="userSpaceOnUse" color-interpolation-filters="sRGB">
<feFlood flood-opacity="0" result="BackgroundImageFix"/>
<feColorMatrix in="SourceAlpha" type="matrix" values="0 0 0 0 0 0 0 0 0 0 0 0 0 0 0 0 0 0 127 0" result="hardAlpha"/>
<feOffset dy="6"/>
<feGaussianBlur stdDeviation="3"/>
<feComposite in2="hardAlpha" operator="out"/>
<feColorMatrix type="matrix" values="0 0 0 0 0 0 0 0 0 0 0 0 0 0 0 0 0 0 0.25 0"/>
<feBlend mode="normal" in2="BackgroundImageFix" result="effect1_dropShadow_458_1112"/>
<feBlend mode="normal" in="SourceGraphic" in2="effect1_dropShadow_458_1112" result="shape"/>
</filter>
</defs>
</svg>
