<svg width="54" height="54" viewBox="0 0 54 54" fill="none" xmlns="http://www.w3.org/2000/svg">
<path fill-rule="evenodd" clip-rule="evenodd" d="M32.3663 34.7535C29.3336 37.1766 25.4883 38.3464 21.62 38.0229C17.7517 37.6993 14.1542 35.9068 11.5663 33.0136C8.9783 30.1204 7.5964 26.3461 7.70437 22.4658C7.81234 18.5855 9.40198 14.8939 12.1468 12.149C14.8916 9.40421 18.5833 7.81456 22.4636 7.7066C26.3438 7.59863 30.1182 8.98053 33.0114 11.5685C35.9046 14.1564 37.6971 17.754 38.0206 21.6222C38.3442 25.4905 37.1743 29.3358 34.7513 32.3685L46.3523 43.9672C46.5181 44.1217 46.651 44.308 46.7433 44.515C46.8355 44.722 46.8851 44.9455 46.8891 45.1721C46.8931 45.3986 46.8514 45.6237 46.7665 45.8338C46.6817 46.044 46.5553 46.2348 46.3951 46.3951C46.2349 46.5553 46.044 46.6816 45.8339 46.7665C45.6237 46.8514 45.3987 46.8931 45.1721 46.8891C44.9455 46.8851 44.7221 46.8355 44.5151 46.7432C44.3081 46.651 44.1218 46.518 43.9673 46.3522L32.3663 34.7535ZM14.5328 31.239C12.8814 29.5874 11.7566 27.4834 11.3007 25.1927C10.8447 22.9021 11.0781 20.5277 11.9712 18.3697C12.8643 16.2116 14.3771 14.3667 16.3184 13.0682C18.2597 11.7697 20.5424 11.0758 22.8779 11.0742C25.2135 11.0727 27.4971 11.7635 29.4402 13.0594C31.3832 14.3553 32.8985 16.1981 33.7945 18.355C34.6906 20.5118 34.9271 22.8859 34.4742 25.1771C34.0214 27.4684 32.8994 29.5739 31.2503 31.2277L31.239 31.239L31.2278 31.248C29.0117 33.4589 26.0087 34.6998 22.8784 34.6981C19.7481 34.6964 16.7464 33.4523 14.5328 31.239Z" fill="#5C726E"/>
</svg>
