<svg width="38" height="38" viewBox="0 0 38 38" fill="none" xmlns="http://www.w3.org/2000/svg">
<path d="M20.1875 11.0833C20.1875 10.7683 20.0624 10.4663 19.8397 10.2436C19.617 10.0209 19.3149 9.89575 19 9.89575C18.6851 9.89575 18.383 10.0209 18.1603 10.2436C17.9376 10.4663 17.8125 10.7683 17.8125 11.0833V18.9999C17.8124 19.2013 17.8635 19.3993 17.961 19.5755C18.0585 19.7516 18.1992 19.9001 18.3698 20.0069L23.1198 22.9757C23.3869 23.1428 23.7094 23.197 24.0165 23.1263C24.1685 23.0913 24.3121 23.0267 24.4392 22.9362C24.5663 22.8457 24.6742 22.7311 24.757 22.5988C24.8398 22.4666 24.8957 22.3193 24.9215 22.1655C24.9474 22.0117 24.9426 21.8542 24.9077 21.7022C24.8727 21.5502 24.8081 21.4065 24.7176 21.2795C24.6271 21.1524 24.5124 21.0444 24.3802 20.9617L20.1875 18.3413V11.0833Z" fill="black"/>
<path fill-rule="evenodd" clip-rule="evenodd" d="M19 5.14575C15.3256 5.14575 11.8018 6.60538 9.2036 9.20354C6.60544 11.8017 5.14581 15.3256 5.14581 18.9999C5.14581 22.6743 6.60544 26.1981 9.2036 28.7963C11.8018 31.3945 15.3256 32.8541 19 32.8541C22.6743 32.8541 26.1982 31.3945 28.7964 28.7963C31.3945 26.1981 32.8541 22.6743 32.8541 18.9999C32.8541 15.3256 31.3945 11.8017 28.7964 9.20354C26.1982 6.60538 22.6743 5.14575 19 5.14575ZM7.52081 18.9999C7.52081 17.4925 7.81773 15.9997 8.39461 14.607C8.97149 13.2143 9.81704 11.9489 10.883 10.8829C11.9489 9.81698 13.2144 8.97143 14.6071 8.39455C15.9998 7.81767 17.4925 7.52075 19 7.52075C20.5074 7.52075 22.0001 7.81767 23.3929 8.39455C24.7856 8.97143 26.051 9.81698 27.117 10.8829C28.1829 11.9489 29.0285 13.2143 29.6053 14.607C30.1822 15.9997 30.4791 17.4925 30.4791 18.9999C30.4791 22.0444 29.2697 24.9642 27.117 27.1169C24.9642 29.2697 22.0444 30.4791 19 30.4791C15.9555 30.4791 13.0357 29.2697 10.883 27.1169C8.73022 24.9642 7.52081 22.0444 7.52081 18.9999Z" fill="black"/>
</svg>
